<?xml version="1.0" encoding="utf-8"?>
<!-- Generator: Adobe Illustrator 23.0.6, SVG Export Plug-In . SVG Version: 6.00 Build 0)  -->
<svg version="1.1" xmlns="http://www.w3.org/2000/svg" xmlns:xlink="http://www.w3.org/1999/xlink" x="0px" y="0px"
	 viewBox="0 0 698.2 359.2" style="enable-background:new 0 0 698.2 359.2;" xml:space="preserve">
<style type="text/css">
	.st0{display:none;}
	.st1{display:inline;}
	.st2{fill:#C0C6C8;}
	.st3{fill:#8DA09F;}
	.st4{fill:#474645;}
	.st5{fill:#686867;}
	.st6{fill:#3A3A3A;}
	.st7{fill:#6C582C;}
	.st8{opacity:0.24;fill:#FFFFFF;}
	.st9{fill:#56451A;}
	.st10{fill:#6C5728;}
	.st11{opacity:0.27;fill:#FFFFFF;}
	.st12{fill:#473315;}
	.st13{fill:#474872;}
	.st14{fill:#F3F4F5;}
	.st15{fill:#FDE7DA;}
	.st16{fill:#CBB995;}
	.st17{fill:#B9A37F;}
	.st18{fill:#B7A27E;}
	.st19{opacity:0.11;}
	.st20{fill:#F4834A;}
	.st21{fill:#846456;}
	.st22{fill:#684533;}
	.st23{fill:#52413A;}
	.st24{display:none;opacity:0.13;fill:#846456;}
	.st25{fill:#858586;}
	.st26{fill:#8D8D8D;}
	.st27{opacity:0.18;}
	.st28{fill:#64646C;}
	.st29{fill:#CECECD;}
	.st30{fill:#C8C8C8;}
	.st31{fill:#ACACAC;}
	.st32{fill:#FFFFFF;}
	.st33{fill:#626364;}
	.st34{fill:#989898;}
	.st35{fill:#6A6C6C;}
	.st36{fill:#787878;}
	.st37{fill:#D22027;}
	.st38{fill:#AF2024;}
	.st39{opacity:5.000000e-02;}
	.st40{fill:#575757;}
	.st41{fill:#30302F;}
	.st42{fill:#7F7F7F;}
	.st43{fill:#919090;}
</style>
<g id="kjhgf" class="st0">
	
		<image style="overflow:visible;opacity:0.28;" width="450" height="453" xlink:href="../../../../Downloads/business-man-manager-sitting-on-office-desk_gg99587865.jpg"  transform="matrix(0.4415 0 0 0.4415 248.3218 6.7097)">
	</image>
	
		<image style="overflow:visible;opacity:0.28;" width="450" height="470" xlink:href="../../../../Downloads/work-office-desk-eps-vector_csp39582249.jpg"  transform="matrix(0.3806 8.224338e-02 -7.953732e-02 0.3681 330.3931 -20.6055)">
	</image>
	
		<image style="overflow:visible;opacity:0.28;" width="1000" height="1080" xlink:href="../../../../Downloads/man-behind-a-desk-working-on-a-computer-the-vector-13367445.jpg"  transform="matrix(0.1542 0 0 0.1763 298.8627 -1.1627)">
	</image>
	
		<image style="overflow:visible;opacity:0.28;" width="1300" height="1040" xlink:href="../../../../Downloads/84988684-business-man-or-a-clerk-working-at-his-office-desk-vector-illustration-in-flat-style.jpg"  transform="matrix(0.2074 0 0 0.2074 397.6596 -1.1371)">
	</image>
</g>
<g id="mobile" class="st0">
	<g id="chair" class="st1">
		
			<rect x="397.4" y="155" transform="matrix(0.9546 0.2978 -0.2978 0.9546 64.6515 -113.3273)" class="st2" width="13.8" height="0.9"/>
		
			<ellipse transform="matrix(0.2182 -0.9759 0.9759 0.2182 168.2372 525.527)" class="st3" cx="412.1" cy="157.8" rx="2.4" ry="3.7"/>
		<path class="st2" d="M363.5,187.4h-3.8c-0.4,0-0.7,0.3-0.7,0.7v8h4.6V187.4z"/>
		<path class="st3" d="M363.5,191.9c-1.1,1.3-1.2,2.6-0.5,4l0.5,0.9L363.5,191.9L363.5,191.9z"/>
		<rect x="387.9" y="187.4" class="st2" width="5.5" height="8.7"/>
		<rect x="387" y="154.6" class="st2" width="7.1" height="19"/>
		<path class="st2" d="M421.9,187.4h-4.2v8.7h4.6v-8.4C422.2,187.6,422.1,187.4,421.9,187.4z"/>
		<path class="st3" d="M417.7,191.9c1,1.3,1.2,2.8,0.5,4.1l-0.5,1L417.7,191.9L417.7,191.9z"/>
		<rect x="419.9" y="122.5" class="st2" width="3.1" height="16.3"/>
		<rect x="357.9" y="122.5" class="st2" width="3.1" height="16.3"/>
		<circle class="st4" cx="390.6" cy="199.3" r="4.6"/>
		<circle class="st4" cx="361" cy="199.3" r="4.6"/>
		<circle class="st4" cx="420.5" cy="199.3" r="4.6"/>
		<circle class="st5" cx="390.6" cy="199.3" r="2.5"/>
		<circle class="st5" cx="361" cy="199.3" r="2.5"/>
		<circle class="st5" cx="420.5" cy="199.3" r="2.5"/>
		<path class="st2" d="M419.6,190.8c-19.3-2.5-38.6-2.5-58,0c-1.5,0-2.7-1.2-2.7-2.7v0c0-1.5,1.2-2.7,2.7-2.7c18.8-2,38.1-2,58,0
			c1.5,0,2.7,1.2,2.7,2.7v0C422.2,189.6,421,190.8,419.6,190.8z"/>
		<path class="st3" d="M415.9,190.3c-16.9-1.9-33.7-1.9-50.6,0c-1.2,0.1-2.5,0.3-3.7,0.5c-1.5,0,19.2-4,29-4
			C400.1,186.8,417.1,190.5,415.9,190.3z"/>
		<circle class="st2" cx="418.8" cy="188.6" r="3.4"/>
		<circle class="st2" cx="362.4" cy="188.6" r="3.4"/>
		<path class="st6" d="M393.5,190.8h-5.9c-1.5,0-2.8-1.3-2.8-2.8v-14.1c0-0.4,0.3-0.7,0.7-0.7h10c0.4,0,0.7,0.3,0.7,0.7V188
			C396.3,189.5,395.1,190.8,393.5,190.8z"/>
		<path class="st3" d="M397.3,157.5h-13.4c-1,0-1.9-0.8-1.9-1.9V147h17.1v8.7C399.1,156.7,398.3,157.5,397.3,157.5z"/>
		<path class="st6" d="M416.4,151.7h-51.6c-2.9,0-5.3-2.4-5.3-5.3v-5.2h62.3v5.2C421.8,149.3,419.4,151.7,416.4,151.7z"/>
		<path class="st7" d="M421.9,145h-62.6c-1.6,0-2.9-1.3-2.9-2.9v-4.8c0-1.6,1.3-2.9,2.9-2.9h62.6c1.6,0,2.9,1.3,2.9,2.9v4.8
			C424.8,143.7,423.5,145,421.9,145z"/>
		<path class="st8" d="M356.8,136.5c0.1-1.3,1.8-2.1,3.3-2.1h61.1c1.4,0,3.1,0.7,3.3,2.1C393.5,140.2,386.1,139.9,356.8,136.5z"/>
		
			<rect x="362.3" y="108.7" transform="matrix(3.004625e-11 -1 1 3.004625e-11 249.6344 478.0154)" class="st2" width="3.1" height="11"/>
		
			<rect x="414.7" y="108.7" transform="matrix(2.858786e-11 -1 1 2.858786e-11 302.0401 530.4211)" class="st2" width="3.1" height="11"/>
		<path class="st9" d="M412.6,134.5h-44.4c-1.6,0-3-1.3-3-3V73.4c0-7.8,7.8-15.4,15.7-15.4l19-0.1c7.8,0,15.7,7.9,15.7,15.8v57.8
			C415.5,133.1,414.2,134.5,412.6,134.5z"/>
		<path class="st10" d="M409.3,134.5h-37.4c1-23.2,0-38.9-6.7-60.8c0.5-8.8,7.1-14.5,15.6-15.7l19.5,0c8.8,1.3,13.9,6.5,15.3,15.7
			C414.7,73.7,406.1,111.9,409.3,134.5z"/>
		<path class="st11" d="M367.7,65.7c2.7-4.3,7.3-7.1,13-7.7c6.8-0.1,13.3-0.1,19.5,0c5.8,0.7,10.4,3.7,13,8.5
			C398.4,57.9,383.2,57.4,367.7,65.7z"/>
		<path class="st9" d="M360.9,126.3H358c-1.2,0-2.2-1-2.2-2.2v-12.2c0-1.2,1-2.2,2.2-2.2h2.8c1.2,0,2.2,1,2.2,2.2v12.2
			C363.1,125.3,362.1,126.3,360.9,126.3z"/>
		<path class="st10" d="M360.7,125.8h-2.4c-1,0-1.9-0.8-1.9-1.9v-11.9c0-1,0.8-1.9,1.9-1.9h2.4c1,0,1.9,0.8,1.9,1.9v11.9
			C362.5,124.9,361.7,125.8,360.7,125.8z"/>
		<path class="st9" d="M422.9,126.3h-2.8c-1.2,0-2.2-1-2.2-2.2v-12.2c0-1.2,1-2.2,2.2-2.2h2.8c1.2,0,2.2,1,2.2,2.2v12.2
			C425.1,125.3,424.1,126.3,422.9,126.3z"/>
		<path class="st10" d="M422.7,125.8h-2.4c-1,0-1.9-0.8-1.9-1.9v-11.9c0-1,0.8-1.9,1.9-1.9h2.4c1,0,1.9,0.8,1.9,1.9v11.9
			C424.6,124.9,423.7,125.8,422.7,125.8z"/>
	</g>
	<g id="Layer_4" class="st1">
		<g id="Layer_11">
			<path class="st12" d="M385.5,188.8c0,0,4.2,4.6,0,6.8c-4.2,2.2-7.7,6.1-7.7,6.1s-4,3.1-7.7,2s-6.6-1.8-3.4-4.6
				c3.1-2.8,12-9,11.4-12.2c-0.6-3.2,6.2,0.4,6.2,0.4L385.5,188.8z"/>
		</g>
		<g id="Layer_11_copy">
			<path class="st12" d="M393.4,188.8c0,0-4.2,4.6,0,6.8c4.2,2.2,7.7,6.1,7.7,6.1s4,3.1,7.7,2s6.6-1.8,3.4-4.6
				c-3.1-2.8-12-9-11.4-12.2c0.6-3.2-6.2,0.4-6.2,0.4L393.4,188.8z"/>
		</g>
		<g id="Layer_9">
			<g id="Layer_10">
				<path class="st13" d="M400.9,120.8c0,0,12.2,14.9,13.9,17.8c0,0,1.8,2.5,1.1,9.6c-0.7,7.1-12.2,42-12.9,42.6c0,0-6.3,1.4-10-2.1
					c0,0-0.2-0.7,1.7-2.5c0,0-0.1-1.4,0.7-2.4c0,0,3-17.5,3.5-20.4c0.5-2.9,2.5-17.3,3-17.9c0,0-4.8-9.3-11.1-8.8
					c-6.3,0.5-9.7,1.1-10.1,5.5c-0.4,4.4,1.2,21.8,1.5,22.5c0.2,0.7,3.8,19.6,3.6,20.3c0,0,1.2,0.9,0.9,1.5c0,0,0.7,2.4-0.2,2.8
					c0,0-7,2.8-10.7-1.4c0,0-1.5-6.3-3.6-12.6s-5.1-29.1-5.2-33c-0.1-3.9,1.6-20.6,10.3-21.3C385.9,120.1,400.9,120.8,400.9,120.8z"
					/>
			</g>
		</g>
		<path class="st14" d="M381.7,67.7c0,0,1.4,5.6,7,6.3c5.5,0.7,7.1-5.5,6.7-6.3s3,0.9,3,0.9l0.6,52.7c0,0-4.4,2.3-22.5,0l4.3-53.8
			L381.7,67.7z"/>
		<g id="Layer_7">
			<g id="Layer_8">
				<path class="st15" d="M398.9,69.9"/>
				<path class="st16" d="M379.7,120.9l-11,19l-1.2,0.7c0,0-1.3-1.1-1.7-4.4c-0.4-3.3-0.3-6.8,0.9-7.7c1.2-0.9,5.5-7.6,6.2-12.4
					c0.6-4.8,1.8-6-0.2-5.9c-2,0.1-10,0.7-11.5,0.4c-1.5-0.3-4.1-0.7-3.6-6.5c0.4-5.8,9.2-20.1,9.5-23.9c0.3-3.8,2.9-6.4,4.9-7.6
					c2.1-1.2,4.8-2,5-2.2c0,0,1-0.1,2.5-0.1L379.7,120.9z"/>
				<path class="st16" d="M397.2,69.9c1.3,0,2.1,0,2.1,0c0.6,0.5,10.8,6.3,10.8,6.3s2.3,1.4,3.3,5.7s-1.5,16.9,1.1,17.7
					c12.7,4,9.7,11.7,5.8,13.1c-7.5,2.6-12.7-2.5-12.7-2.5s-1.8,4.3-1.5,8.4c0.4,4.2,3.6,12.7,3.6,13.4s-0.3,6.8-1.7,7.5
					c-1.4,0.7-3.6-5.3-3.6-5.3l-6.1-13.6L397.2,69.9z"/>
			</g>
			<path class="st17" d="M427.3,105.5c1.7,4.2-0.6,7.4-5.4,7.4c-3.6,0-6.6-2.3-6.8-5.5c-0.2-2.5,0.1-5.9,4.9-6.8
				C423.6,100,426.1,102.5,427.3,105.5z"/>
		</g>
		<g id="Layer_5">
			<g id="Layer_6">
				<path class="st18" d="M382.8,66.7c-3.5,3.8-3.2,21.2-3,29.1c0.1,7.9,1.1,27,0.4,27.7s-2.2,4.8-3.2,8.2c-1,3.4,4.8,11.9-3.1,11.4
					c-7.9-0.4-7.4-4.5-7.7-7.6c-0.2-1.7-0.2-3.6-0.2-5c0-1.1,0.6-2.2,1.5-2.8c7.4-5.3,8.9-14.1,8.9-14.1s3.1-8.7,1.2-15
					c-1.9-6.3-3.2-23.9-1.9-25.4s1.1-3,1.1-3c0.2-3.8,6.8-6.1,6.8-6.1h9.4c0,0,6.9,2.3,7.1,6.1c0,0-0.1,1.5,1.1,3
					c1.2,1.5,0,19.1-1.9,25.4c-1.9,6.3,1.2,15,1.2,15s-1.2,9.3,5.9,14.7c0.9,0.7,1.6,1.7,1.8,2.8c0.3,1.6,0.7,3.8,0.5,5.6
					c-0.3,3.1-1.3,3.4-1.9,3.4c-7.9,0.4-5.3-5-6.3-8.5c-1-3.4-3.1-7.5-3.8-8.2s0.3-19.8,0.4-27.7s0.5-25.2-3-29.1H382.8z"/>
			</g>
		</g>
		<path class="st15" d="M394.9,70.1c-0.6,1.5-1.6,2.6-2.8,3.3c-1.9,0.9-3.9,0.8-5.9-0.1c-1.4-0.7-2.6-1.8-3.4-3.2
			c-0.4-0.6-0.7-1.2-0.9-1.8c0,0,0.3-0.7,0.6-1.1c1.5-2.2,1.9-5.6,1.2-10.1h9.4c-0.7,5,0.4,8.1,1.7,10.4c0.2,0.4,0.4,0.9,0.6,1.3
			C395.2,69.2,395.1,69.7,394.9,70.1z"/>
		<path class="st19" d="M393,61.9c-1,1.2-2.4,2.7-4.5,2.7c-2.2-0.1-4-1.6-4.5-2.5L393,61.9z"/>
		<path class="st15" d="M400.5,43.5c0,3-1.3,5.8-1.6,8.4c-0.4,3.9-5.7,12.1-10.5,12.1c-5,0-10.3-8.4-10.8-11.9
			c-0.3-2.6-1.6-5.9-1.6-8.9c0-11.3,5.8-17.6,12.2-17.6S400.5,32.2,400.5,43.5z"/>
		<path class="st20" d="M402.4,45c0,0,0.2-3.2,0.3-3.4c0-0.1,1.6-11.7-5.3-16.6c-6.8-5-16.9-0.8-16.9-0.8s-3.9,2.6-5.5,6.4
			c-2,4.7-0.8,13.9-0.8,13.9l2.1-0.4l-0.3-4.2c0,0,2.3-1.5,3.4-3.5l0.3,4c0,0,4.5-3.9,4.3-7.6c0,0,4.3,7.2,5.7,6.6
			c0,0-4-5.9-2.8-8.6c0,0,2.3,6.4,5.1,7.5c0,0-4.6-5.8-2.8-7.5c0,0,4.5-0.6,7.9,1c3.4,1.6,3,12.4,3,12.4l1.1,0.3L402.4,45z"/>
		<path class="st15" d="M374.1,44.3c0.3-0.2,0.6-0.3,0.9-0.4c1-0.1,2.3,0.5,3.3,1.7c1.3,1.6,1.5,3.6,0.5,4.4c-1,0.8-2.9,0.2-4.2-1.4
			C373.3,47.1,373.1,45.1,374.1,44.3z"/>
		
			<ellipse transform="matrix(0.6306 -0.7761 0.7761 0.6306 111.1121 327.767)" class="st15" cx="399.9" cy="47.2" rx="3.7" ry="2.4"/>
		<path class="st15" d="M432.9,98.5c0,0-2.8,1.5-6.1,1.9c-2.6,0.3-5.6,1.6-7.1,2.2c-0.6,0.3-1.2,0.8-1.5,1.4
			c-1.6,3.5,2.2,7.2,5.7,6.5c1.7-0.4,3.9-2.1,4.8-2.7c0.8-0.5,4.2-4,6.4-5.2"/>
	</g>
	<g id="Table" class="st1">
		<polygon id="leg_x5F_l" class="st21" points="283.8,123.1 272.5,123.1 259.5,207 265.1,207 		"/>
		<path id="leg_x5F_l_x5F_sh" class="st22" d="M283.8,123.1l-3.4,0.1L264,200.1c-0.4,2.3,0,4.7,1,6.9l0,0L283.8,123.1z"/>
		<polygon id="leg_x5F_r" class="st21" points="499.3,123.1 510.6,123.1 523.6,207 518,207 		"/>
		<path id="leg_x5F_r_x5F_sh" class="st22" d="M499.3,123.1l3.4,0.1l16.4,76.8c0.4,2.3,0,4.7-1,6.9l0,0L499.3,123.1z"/>
		<path id="top_x5F_bottom" class="st23" d="M526.7,116.9H251.5v5.5c0,1,0.8,1.8,1.8,1.8H525c1,0,1.8-0.8,1.8-1.8V116.9z"/>
		<path id="top_x5F_mid" class="st22" d="M565.9,116.4H212.3c-1.3,0-2.4,1.1-2.4,2.4v0.2c0,1.3,1.1,2.4,2.4,2.4h353.5
			c1.3,0,2.4-1.1,2.4-2.4v-0.2C568.2,117.5,567.2,116.4,565.9,116.4z"/>
		<path id="top_x5F_top" class="st21" d="M565.5,113.6H212.7c-1.5,0-2.8,1.2-2.8,2.8v2.5h358.3v-2.5
			C568.2,114.8,567,113.6,565.5,113.6z"/>
		<rect x="139.1" y="19.3" class="st24" width="500" height="200"/>
	</g>
	<g id="laptop" class="st1">
		<rect x="379.2" y="108.9" class="st25" width="3.9" height="3.9"/>
		<rect x="399.6" y="108.9" class="st25" width="3.9" height="3.9"/>
		<path class="st26" d="M406.8,75.7l8.2,0.3c1,0,1.8,0.8,1.8,1.8v31c0,1-0.8,1.8-1.8,1.8l-8.1,0.2h-31.7l-7.4-0.2
			c-1,0-1.8-0.8-1.8-1.8v-31c0-1,0.8-1.8,1.8-1.8l7.4-0.3"/>
		<path class="st25" d="M391.4,93.3l-23.6,17.3c-1,0-1.8-0.8-1.8-1.8v-31c0-1,0.8-1.8,1.8-1.8L391.4,93.3z"/>
		<path class="st25" d="M391.4,93.3l23.6,17.3c1,0,1.8-0.8,1.8-1.8v-31c0-1-0.8-1.8-1.8-1.8L391.4,93.3z"/>
		<path class="st27" d="M416.8,108.8"/>
		<path class="st25" d="M414.9,111.7h-47.4c-0.6,0-1.1,0.5-1.1,1.1v1.3c0,0.4,0.4,0.8,0.8,0.8h48.1c0.6,0,1-0.5,1-1v-0.8
			C416.3,112.3,415.7,111.7,414.9,111.7z"/>
		<path class="st28" d="M414.5,111.7h-46.7c-0.4,0-0.9,0.1-1,0.4c-0.3,0.8,49.3,1,48.9,0.1C415.6,111.7,415,111.7,414.5,111.7z"/>
		<ellipse class="st29" cx="391.4" cy="84.9" rx="1.8" ry="2.2"/>
	</g>
	<g id="laptop_copy" class="st1">
		<path class="st30" d="M268.7,82.1l7.9,0.3c0.9,0,1.7,0.7,1.7,1.5v26.1c0,0.8-0.8,1.5-1.7,1.5l-7.8,0.2h-30.5l-7.2-0.2
			c-0.9,0-1.7-0.7-1.7-1.5V83.9c0-0.8,0.8-1.5,1.7-1.5l7.2-0.3"/>
		<path class="st27" d="M278.3,109"/>
		<path class="st30" d="M277.6,111.4h-47.8c-0.2,0-0.3,0.1-0.3,0.3v1.6c0,0.4,0.4,0.8,0.8,0.8h46.7c0.6,0,1-0.5,1-1v-1.4
			C277.9,111.6,277.8,111.4,277.6,111.4z"/>
		<path class="st31" d="M276.2,111.4h-45.4c-0.4,0-1.2-0.1-1.3,0.2c-0.3,0.7,48.5,0.2,48.5,0.1C277.9,111.3,277.2,111.4,276.2,111.4
			z"/>
		<ellipse class="st32" cx="253.9" cy="96.9" rx="1.8" ry="1.8"/>
	</g>
	<g id="screen" class="st1">
		<path class="st33" d="M319.8,126.2h-1c-0.8,0-1.5-0.7-1.5-1.5v-1.7c0-0.8,0.7-1.5,1.5-1.5h1c0.8,0,1.5,0.7,1.5,1.5v1.7
			C321.3,125.6,320.6,126.2,319.8,126.2z"/>
		<path class="st25" d="M324.5,29.5h34.7c1.7,0,3,1.3,3,3v61.4c0,1.7-1.3,3-3,3h-34.7c-1.7,0-3-1.3-3-3V32.5
			C321.5,30.8,322.9,29.5,324.5,29.5z"/>
		<path class="st34" d="M361.2,30.4c0.4,0.4,1,1.4,1,2.3v61.2c0,0.8-0.3,1.4-0.7,2C358.5,99.7,358.3,33,361.2,30.4z"/>
		<path class="st34" d="M322.5,30.4c-0.4,0.4-1,1.4-1,2.3v61.2c0,0.8,0.3,1.4,0.7,2C325.2,99.7,325.4,33.1,322.5,30.4z"/>
		<path class="st33" d="M346.6,69.9h-10.2c-0.9,0-1.6-0.7-1.6-1.6V58.1c0-0.9,0.7-1.6,1.6-1.6h10.2c0.9,0,1.6,0.7,1.6,1.6v10.2
			C348.2,69.2,347.5,69.9,346.6,69.9z"/>
		<path class="st35" d="M317.9,65.5h24.2c0.6,0,1.1-0.5,1.1-1.1v-3.2c0-0.6-0.5-1.1-1.1-1.1h-22.9c-1.4,0-2.5,1.1-2.5,2.5v1.8
			C316.8,65,317.3,65.5,317.9,65.5z"/>
		<path class="st35" d="M321.8,112.2h-4.9c-0.1,0-0.1-0.1-0.1-0.1V62.4c0-1.3,1.1-2.4,2.4-2.4h2.7c0.1,0,0.1,0.1,0.1,0.1v51.9
			C321.9,112.2,321.8,112.2,321.8,112.2z"/>
		<path class="st33" d="M326,118h-13.3v-7.6c0-1.6,1.3-2.9,2.9-2.9h7.4c1.6,0,2.9,1.3,2.9,2.9V118z"/>
		<path class="st36" d="M322.2,125h-5.6c-0.2,0-0.4-0.2-0.4-0.4v-6.5c0-0.2,0.2-0.4,0.4-0.4h5.6c0.2,0,0.4,0.2,0.4,0.4v6.5
			C322.6,124.8,322.4,125,322.2,125z"/>
		<circle class="st25" cx="336.1" cy="57.8" r="0.4"/>
		<circle class="st25" cx="346.7" cy="57.8" r="0.4"/>
		<circle class="st25" cx="336.2" cy="68.5" r="0.4"/>
		<circle class="st25" cx="346.6" cy="68.5" r="0.5"/>
	</g>
	<g id="mug" class="st1">
		<path class="st37" d="M435.2,112.6h-5.5c-1.7,0-3.1-1.4-3.1-3.1V96.1c0-1.5,1.2-2.6,2.7-2.6c2.5-0.3,3.9-0.3,6.4,0
			c1.5,0,2.7,1.2,2.7,2.6v13.4C438.3,111.2,436.9,112.6,435.2,112.6z"/>
		<path class="st38" d="M435.3,112.6c-2.8,0-6.1,0.2-6.9-0.3c0.4-1.1,7.9-0.7,8.2-1.1c1.8-1.9-0.5-15.3,1.5-16.1
			c0.1,0.3,0.2,0.7,0.2,1l0,13.7C438.1,111.7,436.4,112.6,435.3,112.6z"/>
		<ellipse class="st6" cx="432.4" cy="94.4" rx="4.7" ry="0.8"/>
		<g class="st39">
			<path d="M430.8,94.8c-0.6-0.6-0.9-1.4-1.2-2.3c-0.2-0.8-0.3-1.7-0.4-2.5c0-0.8-0.2-1.7-0.1-2.4c0.2-0.8,0.4-1.5,0.9-2.4l0.2,0
				c0.6,0.8,0.8,1.6,0.9,2.5c0.1,0.8-0.2,1.6-0.3,2.4c-0.1,0.8-0.2,1.5-0.2,2.3c0,0.8,0.1,1.5,0.3,2.3L430.8,94.8z"/>
		</g>
		<g class="st39">
			<path d="M431.4,93.8c0.1-1.3,0.4-2.6,0.5-3.9c0.1-1.3,0.1-2.5,0-3.7c-0.1-1.2-0.7-2.3-0.7-3.5c-0.1-1.2-0.3-2.4-0.2-3.9l0.3-0.1
				c0.7,0.4,1.3,0.9,1.7,1.4c0.5,0.6,0.8,1.2,1.1,1.9c0.6,1.4,0.4,2.9,0.2,4.3c-0.1,1.4-0.5,2.8-1,4c-0.5,1.3-1.1,2.5-1.7,3.6
				L431.4,93.8z"/>
		</g>
		<g class="st39">
			<path d="M434.1,94.8c0.1-0.6,0.3-1.2,0.4-1.8c0.1-0.6,0.2-1.1,0.2-1.7c0-0.6-0.2-1.1,0-1.6c0.1-0.5,0.3-1.1,0.7-1.8l0.2-0.1
				c0.7,0.5,1,1.1,1.1,1.8c0.2,0.7-0.2,1.3-0.4,1.9c-0.2,0.6-0.5,1.2-0.8,1.7c-0.3,0.5-0.7,1-1.2,1.5L434.1,94.8z"/>
		</g>
	</g>
	<g id="tablet" class="st1">
		<path class="st25" d="M535,114.5l-62,1c-2,0-5-1.5-5.1-3.5l-1.8-35c-0.2-2.2,1.5-4.1,3.7-4.2l68.5,1.5c2.5-0.1,4.4,2.2,3.9,4.6
			l-3.4,32.4C538.4,113,536.9,114.5,535,114.5z"/>
		<path class="st33" d="M475.4,115.6l-2.2,0c-2,0-5-1.5-5.1-3.5l-1.8-35c-0.2-2.2,1.5-4.1,3.7-4.2l5,0.1c-9.7,1.5-6.4,10.9-6.1,21.7
			C469.2,109.4,469.3,115,475.4,115.6z"/>
		<path class="st33" d="M535.2,114.5c3.6-2.7,3.8-13.3,4.2-20c0.4-6.2,2.9-15.4-1-20c1.2,0,2.3,0.5,3.1,1.4c0.7,0.9,1.1,2,0.8,3.2
			l-3.4,32.4C538.6,113.2,537,114.4,535.2,114.5z"/>
		<path class="st35" d="M506.3,101.2v15.3c0,0,0,0.1,0.1,0.1h1.8c0,0,0.1,0,0.1-0.1v-15.3c0,0,0-0.1-0.1-0.1L506.3,101.2
			C506.3,101.2,506.3,101.2,506.3,101.2z"/>
		<path class="st35" d="M498.7,101.2v15.3c0,0,0,0.1,0.1,0.1h1.8c0,0,0.1,0,0.1-0.1v-15.3c0,0,0-0.1-0.1-0.1L498.7,101.2
			C498.7,101.2,498.7,101.2,498.7,101.2z"/>
		<path class="st33" d="M508.6,104.8h-10.4c-0.9,0-1.7-0.7-1.7-1.7V85.6c0-0.9,0.7-1.7,1.7-1.7h10.4c0.9,0,1.7,0.7,1.7,1.7v17.5
			C510.2,104,509.5,104.8,508.6,104.8z"/>
		<path class="st35" d="M529.7,116.6h-49c-0.7,0-1.3-0.6-1.3-1.3v-0.6c0-0.7,0.6-1.3,1.3-1.3h49c0.7,0,1.3,0.6,1.3,1.3v0.6
			C531.1,116,530.5,116.6,529.7,116.6z"/>
		<path class="st35" d="M496.4,89.3l-5.6,26.3c0,0,0,0-0.1,0l-3.2-0.7c0,0,0,0,0-0.1l5.6-26.3c0,0,0,0,0.1,0L496.4,89.3
			C496.4,89.2,496.4,89.2,496.4,89.3z"/>
		<path class="st35" d="M510.2,89.3l5.6,26.3c0,0,0,0,0.1,0l3.2-0.7c0,0,0,0,0-0.1l-5.6-26.3c0,0,0,0-0.1,0L510.2,89.3
			C510.2,89.2,510.2,89.2,510.2,89.3z"/>
		<path class="st35" d="M515.5,86.6H491c-0.9,0-1.6,0.7-1.6,1.6V89c0,0.9,0.7,1.6,1.6,1.6h24.4c0.9,0,1.6-0.7,1.6-1.6v-0.8
			C517.1,87.3,516.4,86.6,515.5,86.6z"/>
	</g>
	<g id="pen" class="st1">
		<path class="st40" d="M546,94.5L546,94.5c-0.4,0-0.7,0.3-0.7,0.7v13.8c0,0.4,0.3,0.7,0.7,0.7l0,0c0.4,0,0.7-0.3,0.7-0.7V95.1
			C546.7,94.7,546.4,94.5,546,94.5z"/>
		<path class="st41" d="M546.8,108.2h-1.4c-0.1,0-0.2-0.1-0.2-0.2v-2.8c0-0.4,0.3-0.7,0.7-0.7h0.3c0.4,0,0.7,0.3,0.7,0.7
			L546.8,108.2C546.9,108.2,546.9,108.2,546.8,108.2z"/>
		<path class="st42" d="M548,114.1h-3.9c-0.4,0-0.7-0.3-0.7-0.7v-5.6c0-1,0.8-1.4,1.8-1.4c0.5,0.1,1.1,0.1,1.6,0
			c1,0,1.8,0.4,1.8,1.4v5.6C548.7,113.8,548.4,114.1,548,114.1z"/>
		<path class="st33" d="M548,114.1h-1.2c1.2-0.1,1.5-1.8,1.4-3.9c-0.1-1.8,0.4-3.4-1.6-3.8c0,0,0.2,0,0.3-0.1c1,0,1.8,0.4,1.8,1.4
			v5.6C548.7,113.8,548.4,114.1,548,114.1z"/>
		<path class="st43" d="M546,102.2L546,102.2c-0.1,0-0.2,0.1-0.2,0.2v1.5c0,0.1,0.1,0.2,0.2,0.2l0,0c0.1,0,0.2-0.1,0.2-0.2v-1.5
			C546.2,102.3,546.1,102.2,546,102.2z"/>
	</g>
</g>
<g id="mobile_copy">
	<g id="chair_copy">
		
			<rect x="363.2" y="248.2" transform="matrix(0.9546 0.2978 -0.2978 0.9546 91.1651 -100.3516)" class="st2" width="23.5" height="1.6"/>
		
			<ellipse transform="matrix(0.2182 -0.9759 0.9759 0.2182 56.8565 576.6437)" class="st3" cx="388.3" cy="252.8" rx="4.2" ry="6.3"/>
		<path class="st2" d="M305.6,303.3h-7c-0.4,0-0.7,0.3-0.7,0.7v14.2h7.8V303.3z"/>
		<path class="st3" d="M305.5,311c-1.8,2.1-2.1,4.5-0.8,6.7l0.9,1.6L305.5,311L305.5,311z"/>
		<rect x="347" y="303.3" class="st2" width="9.4" height="14.9"/>
		<rect x="345.6" y="247.5" class="st2" width="12.1" height="32.3"/>
		<path class="st2" d="M405.2,303.3h-7.4v14.9h7.8v-14.5C405.5,303.5,405.4,303.3,405.2,303.3z"/>
		<path class="st3" d="M397.9,311c1.7,2.2,2,4.7,0.8,7l-0.9,1.7v-8.8L397.9,311z"/>
		<rect x="401.6" y="192.8" class="st2" width="5.3" height="27.7"/>
		<rect x="295.9" y="192.8" class="st2" width="5.3" height="27.7"/>
		<circle class="st4" cx="351.7" cy="323.7" r="7.9"/>
		<circle class="st4" cx="301.2" cy="323.7" r="7.9"/>
		<circle class="st4" cx="402.7" cy="323.7" r="7.9"/>
		<circle class="st5" cx="351.7" cy="323.7" r="4.3"/>
		<circle class="st5" cx="301.2" cy="323.7" r="4.3"/>
		<circle class="st5" cx="402.7" cy="323.7" r="4.3"/>
		<path class="st2" d="M401,309.1c-32.9-4.3-65.8-4.3-98.7,0c-2.5,0-4.5-2-4.5-4.5l0,0c0-2.5,2-4.5,4.5-4.5
			c31.9-3.4,64.8-3.4,98.7,0c2.5,0,4.5,2,4.5,4.5l0,0C405.5,307.1,403.5,309.1,401,309.1z"/>
		<path class="st3" d="M394.8,308.3c-28.7-3.3-57.4-3.3-86.2,0c-2.1,0.2-4.2,0.5-6.3,0.8c-2.5,0,32.7-6.8,49.4-6.7
			C367.9,302.4,396.8,308.6,394.8,308.3z"/>
		<circle class="st2" cx="399.8" cy="305.4" r="5.8"/>
		<circle class="st2" cx="303.6" cy="305.4" r="5.8"/>
		<path class="st6" d="M358.6,309.1h-13.9c-1.5,0-2.8-1.3-2.8-2.8v-26.6c0-0.4,0.3-0.7,0.7-0.7h18c0.4,0,0.7,0.3,0.7,0.7v26.6
			C361.4,307.9,360.2,309.1,358.6,309.1z"/>
		<path class="st3" d="M364.4,252.4H339c-1,0-1.9-0.8-1.9-1.9v-16h29.1v16C366.2,251.6,365.4,252.4,364.4,252.4z"/>
		<path class="st6" d="M399.4,242.6h-95.5c-2.9,0-5.3-2.4-5.3-5.3v-12.6h106.1v12.6C404.7,240.2,402.3,242.6,399.4,242.6z"/>
		<path class="st7" d="M407,231H296.4c-1.6,0-2.9-1.3-2.9-2.9V216c0-1.6,1.3-2.9,2.9-2.9H407c1.6,0,2.9,1.3,2.9,2.9v12.2
			C409.8,229.8,408.6,231,407,231z"/>
		<path class="st8" d="M294.1,216.7c0.2-2.3,3.1-3.5,5.6-3.5h104.1c2.4,0,5.3,1.2,5.5,3.5C356.7,222.9,343.9,222.4,294.1,216.7z"/>
		
			<rect x="303.4" y="169.2" transform="matrix(2.996720e-11 -1 1 2.996720e-11 127.4334 484.6757)" class="st2" width="5.3" height="18.8"/>
		
			<rect x="392.7" y="169.2" transform="matrix(3.082341e-11 -1 1 3.082341e-11 216.7061 573.9484)" class="st2" width="5.3" height="18.8"/>
		<path class="st9" d="M389.1,213.1h-75.7c-2.8,0-5.1-2.3-5.1-5.1v-99c0-13.3,13.3-26.2,26.7-26.2l32.4-0.1
			c13.3,0,26.8,13.5,26.8,26.9v98.4C394.2,210.9,391.9,213.1,389.1,213.1z"/>
		<path class="st10" d="M383.5,213.1h-63.7c1.7-39.5,0-66.2-11.4-103.5c0.9-14.9,12.2-24.8,26.6-26.7l33.2,0.1
			c15,2.1,23.7,11.1,26,26.7C392.7,109.7,378,174.8,383.5,213.1z"/>
		<path class="st11" d="M312.7,96.1c4.5-7.3,12.4-12.1,22.2-13.2c11.5-0.1,22.7-0.1,33.2,0.1c9.9,1.2,17.7,6.3,22.2,14.4
			C365,82.7,339,81.9,312.7,96.1z"/>
		<path class="st9" d="M302.6,199.2h-7.9c-1.2,0-2.2-1-2.2-2.2v-23.8c0-1.2,1-2.2,2.2-2.2h7.9c1.2,0,2.2,1,2.2,2.2V197
			C304.7,198.2,303.8,199.2,302.6,199.2z"/>
		<path class="st10" d="M302,198.4h-6.8c-1,0-1.9-0.8-1.9-1.9v-22.8c0-1,0.8-1.9,1.9-1.9h6.8c1,0,1.9,0.8,1.9,1.9v22.8
			C303.9,197.5,303,198.4,302,198.4z"/>
		<path class="st9" d="M408.3,199.2h-7.9c-1.2,0-2.2-1-2.2-2.2v-23.8c0-1.2,1-2.2,2.2-2.2h7.9c1.2,0,2.2,1,2.2,2.2V197
			C410.4,198.2,409.5,199.2,408.3,199.2z"/>
		<path class="st10" d="M407.7,198.4h-6.8c-1,0-1.9-0.8-1.9-1.9v-22.8c0-1,0.8-1.9,1.9-1.9h6.8c1,0,1.9,0.8,1.9,1.9v22.8
			C409.6,197.5,408.7,198.4,407.7,198.4z"/>
	</g>
	<g id="Layer_4_copy">
		<g id="Layer_11_copy_2_1_">
			<path class="st12" d="M342.9,305.7c0,0,7.1,7.8,0,11.6c-7.1,3.8-13.1,10.4-13.1,10.4s-6.8,5.3-13.2,3.5
				c-6.4-1.9-11.2-3.1-5.9-7.8c5.3-4.7,20.4-15.4,19.4-20.8c-1-5.4,10.6,0.6,10.6,0.6L342.9,305.7z"/>
		</g>
		<g id="Layer_11_copy_2">
			<path class="st12" d="M356.5,305.7c0,0-7.1,7.8,0,11.6c7.1,3.8,13.1,10.4,13.1,10.4s6.8,5.3,13.2,3.5c6.4-1.9,11.2-3.1,5.9-7.8
				c-5.3-4.7-20.4-15.4-19.4-20.8c1-5.4-10.6,0.6-10.6,0.6L356.5,305.7z"/>
		</g>
		<g id="Layer_9_copy">
			<g id="Layer_10_copy">
				<path class="st13" d="M369.3,189.8c0,0,20.8,25.4,23.7,30.3c0,0,3.1,4.2,1.9,16.3c-1.2,12.1-20.8,71.5-22,72.6
					c0,0-10.8,2.4-17.1-3.6c0,0-0.3-1.2,2.9-4.2c0,0-0.2-2.4,1.3-4.1c0,0,5.1-29.8,5.9-34.7s4.3-29.5,5.1-30.4
					c0,0-8.2-15.9-18.9-15.1s-16.5,1.9-17.2,9.3c-0.6,7.4,2.1,37.1,2.5,38.4s6.5,33.4,6.2,34.5c0,0,2,1.5,1.6,2.5
					c0,0,1.3,4.1-0.4,4.7c0,0-11.9,4.7-18.2-2.3c0,0-2.6-10.8-6.2-21.5c-3.6-10.8-8.8-49.6-8.8-56.2c-0.1-6.6,2.8-35.1,17.5-36.3
					C343.7,188.7,369.3,189.8,369.3,189.8z"/>
			</g>
		</g>
		<path class="st14" d="M336.5,99.5c0,0,2.4,9.5,11.8,10.7c9.4,1.1,12.2-9.4,11.4-10.7c-0.7-1.3,5.1,1.6,5.1,1.6l1,89.7
			c0,0-7.6,3.9-38.4,0l7.4-91.6L336.5,99.5z"/>
		<g id="Layer_7_copy">
			<g id="Layer_8_copy">
				<path class="st15" d="M365.9,103.2"/>
				<path class="st16" d="M333.1,190.1l-18.8,32.3l-2,1.2c0,0-2.2-1.9-2.9-7.5c-0.7-5.6-0.5-11.6,1.5-13.1c2-1.5,9.4-12.9,10.5-21.1
					c1-8.2,3-10.2-0.4-10c-3.5,0.2-17,1.2-19.5,0.6c-2.5-0.5-6.9-1.2-6.2-11.1c0.7-10,15.6-34.3,16.2-40.7
					c0.5-6.4,4.9-10.8,8.4-12.9c3.5-2.1,8.1-3.5,8.4-3.8c0.1-0.1,1.7-0.1,4.3-0.2L333.1,190.1z"/>
				<path class="st16" d="M362.9,103.2c2.2,0,3.5-0.1,3.5-0.1c1.1,0.8,18.4,10.7,18.4,10.7s3.9,2.4,5.6,9.6
					c1.7,7.3-2.6,28.8,1.9,30.2c21.6,6.7,16.5,19.9,9.8,22.2c-12.8,4.5-21.7-4.3-21.7-4.3s-3.1,7.2-2.5,14.4
					c0.6,7.1,6.2,21.6,6.1,22.8c-0.1,1.3-0.5,11.6-2.8,12.7c-2.3,1.2-6.1-9.1-6.1-9.1l-10.4-23.2L362.9,103.2z"/>
			</g>
			<path class="st17" d="M414.1,163.8c2.8,7.2-1,12.7-9.2,12.6c-6.2,0-11.2-3.9-11.6-9.3c-0.3-4.2,0.1-10.1,8.4-11.5
				C407.9,154.5,412.1,158.8,414.1,163.8z"/>
		</g>
		<g id="Layer_5_copy">
			<g id="Layer_6_copy">
				<path class="st18" d="M338.4,97.7c-6,6.5-5.4,36.1-5.2,49.5s1.9,46,0.7,47.2c-1.2,1.2-3.8,8.1-5.4,14s8.3,20.2-5.2,19.5
					s-12.6-7.7-13.1-12.9c-0.3-2.9-0.3-6.2-0.3-8.5c0-1.9,1-3.7,2.5-4.8c12.6-9.1,15.2-23.9,15.2-23.9s5.3-14.9,2.1-25.6
					c-3.2-10.8-5.4-40.6-3.3-43.3s1.9-5.2,1.9-5.2c0.3-6.5,11.5-10.5,11.5-10.5h16c0,0,11.7,3.9,12.1,10.5c0,0-0.2,2.6,1.9,5.2
					s-0.1,32.5-3.3,43.3c-3.2,10.8,2.1,25.6,2.1,25.6s-2.1,15.9,10.1,25c1.6,1.2,2.7,2.9,3.1,4.8c0.6,2.7,1.2,6.5,0.9,9.6
					c-0.5,5.2-2.3,5.7-3.3,5.8c-13.5,0.7-9-8.6-10.7-14.4c-1.7-5.9-5.3-12.7-6.4-13.9c-1.2-1.2,0.5-33.8,0.7-47.2
					c0.2-13.4,0.9-43-5.2-49.5H338.4z"/>
			</g>
		</g>
		<path class="st15" d="M359,103.5c-1.1,2.5-2.7,4.4-4.8,5.6c-3.2,1.6-6.6,1.4-10-0.2c-2.4-1.2-4.4-3-5.8-5.4
			c-0.6-1-1.2-2.1-1.5-3.1c0,0,0.6-1.2,1-1.8c2.5-3.8,3.2-9.5,2-17.2h16c-1.2,8.6,0.6,13.8,2.9,17.8c0.4,0.6,0.7,1.5,1,2.2
			C359.6,102.1,359.3,102.8,359,103.5z"/>
		<path class="st19" d="M355.8,89.5c-1.8,2.1-4.2,4.6-7.7,4.5c-3.8-0.1-6.8-2.8-7.7-4.3L355.8,89.5z"/>
		<path class="st15" d="M368.6,58.2c0,5.1-2.2,9.8-2.7,14.3c-0.7,6.6-9.8,20.5-17.9,20.6c-8.5,0-17.6-14.3-18.4-20.2
			c-0.6-4.5-2.7-10-2.7-15.2c0-19.2,10-30,20.8-30C358.6,27.7,368.6,39,368.6,58.2z"/>
		<path class="st20" d="M371.8,60.8c0,0,0.4-5.5,0.5-5.7c0.1-0.2,2.7-19.8-8.9-28.3c-11.6-8.5-28.7-1.4-28.7-1.4s-6.6,4.3-9.3,11
			c-3.4,8.1-1.3,23.6-1.3,23.6l3.6-0.6l-0.5-7.2c0,0,4-2.5,5.7-6l0.5,6.8c0,0,7.6-6.7,7.3-13c0,0,7.4,12.2,9.7,11.2
			c0,0-6.8-10.1-4.7-14.7c0,0,3.8,11,8.6,12.7c0,0-7.8-9.8-4.7-12.8c0,0,7.7-1,13.5,1.6c5.8,2.7,5.1,21.1,5.1,21.1l1.8,0.6
			L371.8,60.8z"/>
		<path class="st15" d="M323.5,59.5c0.4-0.4,1-0.6,1.6-0.6c1.7-0.2,4,0.9,5.6,3c2.2,2.7,2.6,6.1,0.8,7.5c-1.8,1.4-5,0.4-7.2-2.3
			C322.1,64.3,321.8,60.9,323.5,59.5z"/>
		
			<ellipse transform="matrix(0.6306 -0.7761 0.7761 0.6306 85.7352 308.9979)" class="st15" cx="367.5" cy="64.4" rx="6.4" ry="4.1"/>
		<path class="st15" d="M423.8,151.9c0,0-4.8,2.6-10.3,3.3c-4.5,0.6-9.6,2.7-12,3.8c-1.1,0.5-2,1.3-2.5,2.4
			c-2.8,5.9,3.7,12.3,9.8,11c2.9-0.6,6.6-3.7,8.2-4.6c1.4-0.9,7.2-6.8,10.9-8.9"/>
	</g>
	<g id="Table_copy">
		<polygon id="leg_x5F_l_1_" class="st21" points="169.7,193.8 150.4,193.8 128.4,336.6 137.8,336.6 		"/>
		<path id="leg_x5F_l_x5F_sh_1_" class="st22" d="M169.7,193.8L164,194l-27.9,130.9c-0.6,4,0,8.1,1.8,11.7l0,0L169.7,193.8z"/>
		<polygon id="leg_x5F_r_1_" class="st21" points="536.9,193.8 556.2,193.8 578.2,336.6 568.7,336.6 		"/>
		<path id="leg_x5F_r_x5F_sh_1_" class="st22" d="M536.9,193.8l5.7,0.2l27.9,130.9c0.6,4,0,8.1-1.8,11.7l0,0L536.9,193.8z"/>
		<path id="top_x5F_bottom_1_" class="st23" d="M583.5,183.3H114.7v10.6c0,1,0.8,1.8,1.8,1.8h465.4c1,0,1.8-0.8,1.8-1.8V183.3z"/>
		<path id="top_x5F_mid_1_" class="st22" d="M651.9,182.4H46.3c-1.3,0-2.4,1.1-2.4,2.4v3.6c0,1.3,1.1,2.4,2.4,2.4h605.6
			c1.3,0,2.4-1.1,2.4-2.4v-3.6C654.2,183.5,653.2,182.4,651.9,182.4z"/>
		<path id="top_x5F_top_1_" class="st21" d="M651.5,177.6H46.7c-1.5,0-2.8,1.2-2.8,2.8v6.2h610.3v-6.2
			C654.2,178.8,653,177.6,651.5,177.6z"/>
		<rect x="139.1" y="19.3" class="st24" width="500" height="200"/>
	</g>
	<g id="laptop_copy_2_1_">
		<rect x="332.3" y="169.6" class="st25" width="6.6" height="6.6"/>
		<rect x="367.1" y="169.6" class="st25" width="6.6" height="6.6"/>
		<path class="st26" d="M379.3,113.1l14,0.6c1.7,0,3,1.4,3,3v52.7c0,1.7-1.4,3-3,3l-13.8,0.4h-54l-12.7-0.4c-1.7,0-3-1.4-3-3v-52.7
			c0-1.7,1.4-3,3-3l12.7-0.6"/>
		<path class="st25" d="M353,143l-40.2,29.5c-1.7,0-3-1.4-3-3v-52.7c0-1.7,1.4-3,3-3L353,143z"/>
		<path class="st25" d="M353,143l40.2,29.5c1.7,0,3-1.4,3-3v-52.7c0-1.7-1.4-3-3-3L353,143z"/>
		<path class="st27" d="M396.2,169.4"/>
		<path class="st25" d="M394.1,174.3h-82.5c-0.6,0-1.1,0.5-1.1,1.1v3.6c0,0.4,0.4,0.8,0.8,0.8h83.2c0.6,0,1-0.5,1-1v-3.1
			C395.5,175,394.9,174.3,394.1,174.3z"/>
		<path class="st28" d="M392.4,174.3h-79.6c-0.7,0-1.5,0.1-1.7,0.7c-0.4,1.4,83.9,1.6,83.3,0.1C394.2,174.4,393.2,174.3,392.4,174.3
			z"/>
		<ellipse class="st29" cx="353" cy="128.8" rx="3.1" ry="3.7"/>
	</g>
	<g id="laptop_copy_2">
		<path class="st30" d="M144.1,123.9l13.4,0.5c1.6,0,2.9,1.1,2.9,2.6v44.4c0,1.4-1.3,2.6-2.9,2.6l-13.3,0.4h-52L80,173.9
			c-1.6,0-2.9-1.1-2.9-2.6V127c0-1.4,1.3-2.6,2.9-2.6l12.2-0.5"/>
		<path class="st27" d="M160.4,169.7"/>
		<path class="st30" d="M159.4,173.9h-82c-0.2,0-0.3,0.1-0.3,0.3v3.5c0,0.4,0.4,0.8,0.8,0.8h80.8c0.6,0,1-0.5,1-1v-3.3
			C159.7,174.1,159.6,173.9,159.4,173.9z"/>
		<path class="st31" d="M156.7,173.9H79.4c-0.6,0-2.1-0.2-2.3,0.3c-0.4,1.2,82.6,0.4,82.6,0.1C159.7,173.7,158.5,173.9,156.7,173.9z
			"/>
		<ellipse class="st32" cx="118.7" cy="149.1" rx="3" ry="3.1"/>
	</g>
	<g id="screen_copy">
		<path class="st33" d="M232.1,199.1h-3.8c-0.8,0-1.5-0.7-1.5-1.5v-4.9c0-0.8,0.7-1.5,1.5-1.5h3.8c0.8,0,1.5,0.7,1.5,1.5v4.9
			C233.6,198.5,233,199.1,232.1,199.1z"/>
		<path class="st25" d="M237,34.3h63.3c1.7,0,3,1.3,3,3v108.8c0,1.7-1.3,3-3,3H237c-1.7,0-3-1.3-3-3V37.3
			C234,35.7,235.3,34.3,237,34.3z"/>
		<path class="st34" d="M301.6,35.8c0.6,0.7,1.6,2.3,1.6,3.8v104.2c0,1.3-0.5,2.5-1.3,3.4C296.9,153.9,296.6,40.4,301.6,35.8z"/>
		<path class="st34" d="M235.6,35.9c-0.6,0.7-1.6,2.3-1.6,3.8v104.2c0,1.3,0.5,2.5,1.3,3.4C240.3,154,240.7,40.5,235.6,35.9z"/>
		<path class="st33" d="M277.9,103.2h-19.6c-0.9,0-1.6-0.7-1.6-1.6V81.9c0-0.9,0.7-1.6,1.6-1.6h19.6c0.9,0,1.6,0.7,1.6,1.6v19.6
			C279.5,102.5,278.8,103.2,277.9,103.2z"/>
		<path class="st35" d="M227,95.6h42.9c0.6,0,1.1-0.5,1.1-1.1v-7c0-0.6-0.5-1.1-1.1-1.1h-41.5c-1.4,0-2.5,1.1-2.5,2.5v5.6
			C225.9,95.1,226.4,95.6,227,95.6z"/>
		<path class="st35" d="M234.5,175.2H226c-0.1,0-0.1-0.1-0.1-0.1V88.8c0-1.3,1.1-2.4,2.4-2.4h6.3c0.1,0,0.1,0.1,0.1,0.1v88.6
			C234.6,175.2,234.6,175.2,234.5,175.2z"/>
		<path class="st33" d="M241.6,185.1H219v-15c0-1.6,1.3-2.9,2.9-2.9h16.7c1.6,0,2.9,1.3,2.9,2.9V185.1z"/>
		<path class="st36" d="M235.4,197.1h-10.2c-0.2,0-0.4-0.2-0.4-0.4V185c0-0.2,0.2-0.4,0.4-0.4h10.2c0.2,0,0.4,0.2,0.4,0.4v11.7
			C235.8,196.9,235.6,197.1,235.4,197.1z"/>
		<circle class="st25" cx="258.8" cy="82.5" r="0.7"/>
		<circle class="st25" cx="276.9" cy="82.5" r="0.7"/>
		<circle class="st25" cx="259.1" cy="100.8" r="0.8"/>
		<circle class="st25" cx="276.7" cy="100.8" r="0.8"/>
	</g>
	<g id="mug_copy">
		<path class="st37" d="M427.6,175.9h-9.4c-2.9,0-5.3-2.4-5.3-5.3v-22.8c0-2.5,2-4.5,4.5-4.5c4.3-0.5,6.6-0.5,10.9,0
			c2.5,0,4.5,2,4.5,4.5v22.8C432.9,173.5,430.5,175.9,427.6,175.9z"/>
		<path class="st38" d="M427.9,175.9c-4.7-0.1-10.5,0.4-11.8-0.5c0.6-1.9,13.4-1.2,14-1.9c3-3.2-0.8-26.1,2.5-27.5
			c0.2,0.5,0.4,1.1,0.4,1.7l0,23.3C432.6,174.4,429.6,175.9,427.9,175.9z"/>
		<ellipse class="st6" cx="422.9" cy="144.9" rx="8.1" ry="1.3"/>
		<g class="st39">
			<path d="M420.2,145.5c-0.9-1.1-1.4-2.5-1.7-3.9c-0.3-1.4-0.4-2.8-0.4-4.2c0-1.4-0.2-2.8,0-4.1c0.2-1.4,0.4-2.7,0.9-4.1l0.2,0
				c0.6,1.3,0.8,2.8,0.9,4.2c0.1,1.4-0.3,2.8-0.4,4.1c-0.2,1.3-0.3,2.7-0.2,4c0,1.3,0.3,2.7,0.9,3.9L420.2,145.5z"/>
		</g>
		<g class="st39">
			<path d="M421.2,143.9c0.4-2.2,1-4.4,1.2-6.6c0.3-2.2,0.5-4.3,0.4-6.5c-0.1-2.1-0.8-4.2-1.1-6.2c-0.3-2.1-0.9-4.1-1.2-6.5l0.3-0.1
				c0.9,0.8,1.7,1.7,2.3,2.7c0.3,0.5,0.6,1,0.9,1.5l0.7,1.6c0.8,2.3,0.7,4.7,0.6,7c-0.1,2.3-0.6,4.6-1.3,6.8
				c-0.7,2.2-1.6,4.2-2.4,6.3L421.2,143.9z"/>
		</g>
		<g class="st39">
			<path d="M425.8,145.6c0.3-1,0.7-1.9,0.9-2.9c0.2-1,0.4-1.9,0.5-2.9c0.1-1-0.1-1.9,0.1-2.9c0.1-1,0.3-1.9,0.5-3l0.2-0.1
				c0.8,0.9,1.1,2,1.3,3.1c0.2,1.1-0.2,2.2-0.5,3.2c-0.3,1-0.7,2-1.2,3c-0.5,0.9-1.1,1.8-1.7,2.6L425.8,145.6z"/>
		</g>
	</g>
	<g id="tablet_copy">
		<path class="st25" d="M597.7,179.2l-105.6,1.6c-3.4,0.1-8.5-2.6-8.8-6l-3.1-59.6c-0.3-3.7,2.6-7,6.3-7.1l116.6,2.6
			c4.2-0.1,7.5,3.7,6.6,7.8l-5.8,55.1C603.4,176.7,600.8,179.1,597.7,179.2z"/>
		<path class="st33" d="M496.1,180.9l-3.7,0.1c-3.4,0.1-8.5-2.6-8.8-6l-3.1-59.6c-0.3-3.7,2.6-7,6.3-7.1l8.5,0.2
			c-16.6,2.6-10.8,18.6-10.4,37C485.6,170.4,485.7,179.9,496.1,180.9z"/>
		<path class="st33" d="M598,179.1c6.1-4.6,6.4-22.7,7.2-34.1c0.7-10.6,4.9-26.3-1.7-34.1c2.1-0.1,4,0.9,5.2,2.3
			c1.2,1.5,1.8,3.4,1.4,5.5l-5.8,55.1C603.7,176.9,601.1,179.1,598,179.1z"/>
		<path class="st35" d="M548.7,156.5v26.2c0,0,0,0.1,0.1,0.1h3.1c0,0,0.1,0,0.1-0.1v-26.2c0,0,0-0.1-0.1-0.1L548.7,156.5
			C548.7,156.4,548.7,156.4,548.7,156.5z"/>
		<path class="st35" d="M535.8,156.5v26.2c0,0,0,0.1,0.1,0.1h3.1c0,0,0.1,0,0.1-0.1v-26.2c0,0,0-0.1-0.1-0.1L535.8,156.5
			C535.8,156.4,535.8,156.4,535.8,156.5z"/>
		<path class="st33" d="M553.8,162.6h-20.1c-0.9,0-1.7-0.7-1.7-1.7v-32.1c0-0.9,0.7-1.7,1.7-1.7h20.1c0.9,0,1.7,0.7,1.7,1.7v32.1
			C555.4,161.8,554.7,162.6,553.8,162.6z"/>
		<path class="st35" d="M589.6,182.7h-85.4c-0.7,0-1.3-0.6-1.3-1.3v-3c0-0.7,0.6-1.3,1.3-1.3h85.4c0.7,0,1.3,0.6,1.3,1.3v3
			C591,182.1,590.3,182.7,589.6,182.7z"/>
		<path class="st35" d="M531.9,136.2l-9.5,44.8c0,0-0.1,0.1-0.1,0.1l-5.4-1.1c0,0-0.1-0.1-0.1-0.1l9.5-44.8c0,0,0.1-0.1,0.1-0.1
			l5.4,1.1C531.9,136.1,532,136.1,531.9,136.2z"/>
		<path class="st35" d="M555.4,136.2l9.5,44.8c0,0,0.1,0.1,0.1,0.1l5.4-1.1c0,0,0.1-0.1,0.1-0.1L561,135c0,0-0.1-0.1-0.1-0.1
			l-5.4,1.1C555.5,136.1,555.4,136.1,555.4,136.2z"/>
		<path class="st35" d="M565.5,131.6h-43.9c-0.9,0-1.6,0.7-1.6,1.6v3.6c0,0.9,0.7,1.6,1.6,1.6h43.9c0.9,0,1.6-0.7,1.6-1.6v-3.6
			C567.1,132.3,566.4,131.6,565.5,131.6z"/>
	</g>
	<g id="pen_copy">
		<path class="st40" d="M616.9,145H616c-0.4,0-0.7,0.3-0.7,0.7V170c0,0.4,0.3,0.7,0.7,0.7h0.9c0.4,0,0.7-0.3,0.7-0.7v-24.4
			C617.6,145.3,617.3,145,616.9,145z"/>
		<path class="st41" d="M617.8,168.5h-2.6c-0.1,0-0.2-0.1-0.2-0.2V163c0-0.4,0.3-0.7,0.7-0.7h1.5c0.4,0,0.7,0.3,0.7,0.7L617.8,168.5
			C617.9,168.4,617.9,168.5,617.8,168.5z"/>
		<path class="st42" d="M619.7,178.5h-6.6c-0.7,0-1.2-0.6-1.2-1.2v-9.5c0-1.7,1.4-2.4,3.1-2.4c0.9,0.2,1.9,0.2,2.8,0
			c1.7,0,3.1,0.7,3.1,2.4v9.5C621,177.9,620.4,178.5,619.7,178.5z"/>
		<path class="st33" d="M619.7,178.5h-2c2-0.1,2.5-3,2.4-6.6c-0.1-3.1,0.7-5.8-2.7-6.5c0,0,0.3-0.1,0.5-0.1c1.7,0,3.1,0.7,3.1,2.4
			v9.5C621,177.9,620.4,178.5,619.7,178.5z"/>
		<path class="st43" d="M616.6,158.2h-0.2c-0.1,0-0.2,0.1-0.2,0.2v2.8c0,0.1,0.1,0.2,0.2,0.2h0.2c0.1,0,0.2-0.1,0.2-0.2v-2.8
			C616.8,158.3,616.7,158.2,616.6,158.2z"/>
	</g>
</g>
</svg>
