<?xml version="1.0" encoding="utf-8"?>
<!-- Generator: Adobe Illustrator 23.0.6, SVG Export Plug-In . SVG Version: 6.00 Build 0)  -->
<svg version="1.1" xmlns="http://www.w3.org/2000/svg" xmlns:xlink="http://www.w3.org/1999/xlink" x="0px" y="0px"
	 viewBox="0 0 2000 200" style="enable-background:new 0 0 2000 200;" xml:space="preserve">
<style type="text/css">
	.st0{display:none;}
	.st1{display:inline;}
	.st2{fill:#C0C6C8;}
	.st3{fill:#8DA09F;}
	.st4{fill:#474645;}
	.st5{fill:#686867;}
	.st6{fill:#3A3A3A;}
	.st7{fill:#6C582C;}
	.st8{opacity:0.24;fill:#FFFFFF;}
	.st9{fill:#56451A;}
	.st10{fill:#6C5728;}
	.st11{opacity:0.27;fill:#FFFFFF;}
	.st12{fill:#473315;}
	.st13{fill:#474872;}
	.st14{fill:#F3F4F5;}
	.st15{fill:#FDE7DA;}
	.st16{fill:#CBB995;}
	.st17{fill:#B9A37F;}
	.st18{fill:#B7A27E;}
	.st19{opacity:0.11;}
	.st20{fill:#F4834A;}
	.st21{fill:#846456;}
	.st22{fill:#684533;}
	.st23{fill:#52413A;}
	.st24{display:none;opacity:0.13;fill:#846456;}
	.st25{fill:#858586;}
	.st26{fill:#8D8D8D;}
	.st27{opacity:0.18;}
	.st28{fill:#64646C;}
	.st29{fill:#CECECD;}
	.st30{fill:#C8C8C8;}
	.st31{fill:#ACACAC;}
	.st32{fill:#FFFFFF;}
	.st33{fill:#626364;}
	.st34{fill:#989898;}
	.st35{fill:#6A6C6C;}
	.st36{fill:#787878;}
	.st37{fill:#D22027;}
	.st38{fill:#AF2024;}
	.st39{opacity:5.000000e-02;}
	.st40{fill:#575757;}
	.st41{fill:#30302F;}
	.st42{fill:#7F7F7F;}
	.st43{fill:#919090;}
</style>
<g id="kjhgf">
	
		<image style="display:none;overflow:visible;opacity:0.28;" width="450" height="453" xlink:href="../../../Downloads/business-man-manager-sitting-on-office-desk_gg99587865.jpg"  transform="matrix(0.4415 0 0 0.4415 859.2367 -2.5532)">
	</image>
	
		<image style="display:none;overflow:visible;opacity:0.28;" width="450" height="470" xlink:href="../../../Downloads/work-office-desk-eps-vector_csp39582249.jpg"  transform="matrix(0.3806 8.224338e-02 -7.953732e-02 0.3681 941.308 -29.8684)">
	</image>
	
		<image style="display:none;overflow:visible;opacity:0.28;" width="1000" height="1080" xlink:href="../../../Downloads/man-behind-a-desk-working-on-a-computer-the-vector-13367445.jpg"  transform="matrix(0.1542 0 0 0.1763 909.7776 -10.4257)">
	</image>
	
		<image style="display:none;overflow:visible;opacity:0.28;" width="1300" height="1040" xlink:href="../../../Downloads/84988684-business-man-or-a-clerk-working-at-his-office-desk-vector-illustration-in-flat-style.jpg"  transform="matrix(0.2074 0 0 0.2074 1008.5745 -10.4)">
	</image>
</g>
<g id="mobile" class="st0">
	<g id="chair" class="st1">
		
			<rect x="1008.3" y="145.8" transform="matrix(0.9546 0.2978 -0.2978 0.9546 89.6093 -295.6715)" class="st2" width="13.8" height="0.9"/>
		
			<ellipse transform="matrix(0.2182 -0.9759 0.9759 0.2182 654.8658 1114.4745)" class="st3" cx="1023" cy="148.5" rx="2.4" ry="3.7"/>
		<path class="st2" d="M974.5,178.1h-3.8c-0.4,0-0.7,0.3-0.7,0.7v8h4.6V178.1z"/>
		<path class="st3" d="M974.4,182.6c-1.1,1.3-1.2,2.6-0.5,4l0.5,0.9L974.4,182.6L974.4,182.6z"/>
		<rect x="998.8" y="178.1" class="st2" width="5.5" height="8.7"/>
		<rect x="998" y="145.4" class="st2" width="7.1" height="19"/>
		<path class="st2" d="M1032.8,178.1h-4.2v8.7h4.6v-8.4C1033.1,178.3,1033,178.1,1032.8,178.1z"/>
		<path class="st3" d="M1028.6,182.6c1,1.3,1.2,2.8,0.5,4.1l-0.5,1L1028.6,182.6L1028.6,182.6z"/>
		<rect x="1030.9" y="113.3" class="st2" width="3.1" height="16.3"/>
		<rect x="968.8" y="113.3" class="st2" width="3.1" height="16.3"/>
		<circle class="st4" cx="1001.5" cy="190.1" r="4.6"/>
		<circle class="st4" cx="971.9" cy="190.1" r="4.6"/>
		<circle class="st4" cx="1031.4" cy="190.1" r="4.6"/>
		<circle class="st5" cx="1001.5" cy="190.1" r="2.5"/>
		<circle class="st5" cx="971.9" cy="190.1" r="2.5"/>
		<circle class="st5" cx="1031.4" cy="190.1" r="2.5"/>
		<path class="st2" d="M1030.5,181.5c-19.3-2.5-38.6-2.5-58,0c-1.5,0-2.7-1.2-2.7-2.7v0c0-1.5,1.2-2.7,2.7-2.7c18.8-2,38.1-2,58,0
			c1.5,0,2.7,1.2,2.7,2.7v0C1033.1,180.3,1032,181.5,1030.5,181.5z"/>
		<path class="st3" d="M1026.8,181.1c-16.9-1.9-33.7-1.9-50.6,0c-1.2,0.1-2.5,0.3-3.7,0.5c-1.5,0,19.2-4,29-4
			C1011,177.6,1028,181.2,1026.8,181.1z"/>
		<circle class="st2" cx="1029.7" cy="179.4" r="3.4"/>
		<circle class="st2" cx="973.3" cy="179.4" r="3.4"/>
		<path class="st6" d="M1004.5,181.5h-5.9c-1.5,0-2.8-1.3-2.8-2.8v-14.1c0-0.4,0.3-0.7,0.7-0.7h10c0.4,0,0.7,0.3,0.7,0.7v14.1
			C1007.2,180.3,1006,181.5,1004.5,181.5z"/>
		<path class="st3" d="M1008.2,148.3h-13.4c-1,0-1.9-0.8-1.9-1.9v-8.7h17.1v8.7C1010.1,147.4,1009.2,148.3,1008.2,148.3z"/>
		<path class="st6" d="M1027.3,142.5h-51.6c-2.9,0-5.3-2.4-5.3-5.3V132h62.3v5.2C1032.7,140.1,1030.3,142.5,1027.3,142.5z"/>
		<path class="st7" d="M1032.8,135.7h-62.6c-1.6,0-2.9-1.3-2.9-2.9v-4.8c0-1.6,1.3-2.9,2.9-2.9h62.6c1.6,0,2.9,1.3,2.9,2.9v4.8
			C1035.7,134.4,1034.4,135.7,1032.8,135.7z"/>
		<path class="st8" d="M967.7,127.3c0.1-1.3,1.8-2.1,3.3-2.1h61.1c1.4,0,3.1,0.7,3.3,2.1C1004.5,130.9,997,130.6,967.7,127.3z"/>
		
			<rect x="973.2" y="99.4" transform="matrix(3.004625e-11 -1 1 3.004625e-11 869.8122 1079.6674)" class="st2" width="3.1" height="11"/>
		
			<rect x="1025.6" y="99.4" transform="matrix(3.092111e-11 -1 1 3.092111e-11 922.218 1132.0731)" class="st2" width="3.1" height="11"/>
		<path class="st9" d="M1023.5,125.2H979c-1.6,0-3-1.3-3-3V64.1c0-7.8,7.8-15.4,15.7-15.4l19-0.1c7.8,0,15.7,7.9,15.7,15.8v57.8
			C1026.5,123.9,1025.1,125.2,1023.5,125.2z"/>
		<path class="st10" d="M1020.2,125.2h-37.4c1-23.2,0-38.9-6.7-60.8c0.5-8.8,7.1-14.5,15.6-15.7l19.5,0c8.8,1.3,13.9,6.5,15.3,15.7
			C1025.6,64.5,1017,102.7,1020.2,125.2z"/>
		<path class="st11" d="M978.6,56.5c2.7-4.3,7.3-7.1,13-7.7c6.8-0.1,13.3-0.1,19.5,0c5.8,0.7,10.4,3.7,13,8.5
			C1009.4,48.6,994.1,48.1,978.6,56.5z"/>
		<path class="st9" d="M971.8,117h-2.8c-1.2,0-2.2-1-2.2-2.2v-12.2c0-1.2,1-2.2,2.2-2.2h2.8c1.2,0,2.2,1,2.2,2.2v12.2
			C974,116,973,117,971.8,117z"/>
		<path class="st10" d="M971.6,116.5h-2.4c-1,0-1.9-0.8-1.9-1.9v-11.9c0-1,0.8-1.9,1.9-1.9h2.4c1,0,1.9,0.8,1.9,1.9v11.9
			C973.5,115.7,972.6,116.5,971.6,116.5z"/>
		<path class="st9" d="M1033.8,117h-2.8c-1.2,0-2.2-1-2.2-2.2v-12.2c0-1.2,1-2.2,2.2-2.2h2.8c1.2,0,2.2,1,2.2,2.2v12.2
			C1036,116,1035,117,1033.8,117z"/>
		<path class="st10" d="M1033.6,116.5h-2.4c-1,0-1.9-0.8-1.9-1.9v-11.9c0-1,0.8-1.9,1.9-1.9h2.4c1,0,1.9,0.8,1.9,1.9v11.9
			C1035.5,115.7,1034.7,116.5,1033.6,116.5z"/>
	</g>
	<g id="Layer_4" class="st1">
		<g id="Layer_11">
			<path class="st12" d="M996.4,179.5c0,0,4.2,4.6,0,6.8c-4.2,2.2-7.7,6.1-7.7,6.1s-4,3.1-7.7,2c-3.7-1.1-6.6-1.8-3.4-4.6
				c3.1-2.8,12-9,11.4-12.2c-0.6-3.2,6.2,0.4,6.2,0.4L996.4,179.5z"/>
		</g>
		<g id="Layer_11_copy">
			<path class="st12" d="M1004.3,179.5c0,0-4.2,4.6,0,6.8c4.2,2.2,7.7,6.1,7.7,6.1s4,3.1,7.7,2c3.7-1.1,6.6-1.8,3.4-4.6
				c-3.1-2.8-12-9-11.4-12.2c0.6-3.2-6.2,0.4-6.2,0.4L1004.3,179.5z"/>
		</g>
		<g id="Layer_9">
			<g id="Layer_10">
				<path class="st13" d="M1011.8,111.5c0,0,12.2,14.9,13.9,17.8c0,0,1.8,2.5,1.1,9.6c-0.7,7.1-12.2,42-12.9,42.6
					c0,0-6.3,1.4-10-2.1c0,0-0.2-0.7,1.7-2.5c0,0-0.1-1.4,0.7-2.4c0,0,3-17.5,3.5-20.4c0.5-2.9,2.5-17.3,3-17.9
					c0,0-4.8-9.3-11.1-8.8c-6.3,0.5-9.7,1.1-10.1,5.5c-0.4,4.4,1.2,21.8,1.5,22.5s3.8,19.6,3.6,20.3c0,0,1.2,0.9,0.9,1.5
					c0,0,0.7,2.4-0.2,2.8c0,0-7,2.8-10.7-1.4c0,0-1.5-6.3-3.6-12.6c-2.1-6.3-5.1-29.1-5.2-33c-0.1-3.9,1.6-20.6,10.3-21.3
					S1011.8,111.5,1011.8,111.5z"/>
			</g>
		</g>
		<path class="st14" d="M992.6,58.5c0,0,1.4,5.6,7,6.3c5.5,0.7,7.1-5.5,6.7-6.3c-0.4-0.8,3,0.9,3,0.9l0.6,52.7c0,0-4.4,2.3-22.5,0
			l4.3-53.8L992.6,58.5z"/>
		<g id="Layer_7">
			<g id="Layer_8">
				<path class="st15" d="M1009.8,60.6"/>
				<path class="st16" d="M990.6,111.7l-11,19l-1.2,0.7c0,0-1.3-1.1-1.7-4.4c-0.4-3.3-0.3-6.8,0.9-7.7c1.2-0.9,5.5-7.6,6.2-12.4
					c0.6-4.8,1.8-6-0.2-5.9c-2,0.1-10,0.7-11.5,0.4c-1.5-0.3-4.1-0.7-3.6-6.5c0.4-5.8,9.2-20.1,9.5-23.9c0.3-3.8,2.9-6.4,4.9-7.6
					c2.1-1.2,4.8-2,5-2.2c0,0,1-0.1,2.5-0.1L990.6,111.7z"/>
				<path class="st16" d="M1008.1,60.7c1.3,0,2.1,0,2.1,0c0.6,0.5,10.8,6.3,10.8,6.3s2.3,1.4,3.3,5.7c1,4.3-1.5,16.9,1.1,17.7
					c12.7,4,9.7,11.7,5.8,13.1c-7.5,2.6-12.7-2.5-12.7-2.5s-1.8,4.3-1.5,8.4c0.4,4.2,3.6,12.7,3.6,13.4c-0.1,0.7-0.3,6.8-1.7,7.5
					c-1.4,0.7-3.6-5.3-3.6-5.3l-6.1-13.6L1008.1,60.7z"/>
			</g>
			<path class="st17" d="M1038.2,96.3c1.7,4.2-0.6,7.4-5.4,7.4c-3.6,0-6.6-2.3-6.8-5.5c-0.2-2.5,0.1-5.9,4.9-6.8
				C1034.5,90.8,1037,93.3,1038.2,96.3z"/>
		</g>
		<g id="Layer_5">
			<g id="Layer_6">
				<path class="st18" d="M993.8,57.4c-3.5,3.8-3.2,21.2-3,29.1s1.1,27,0.4,27.7c-0.7,0.7-2.2,4.8-3.2,8.2c-1,3.4,4.8,11.9-3.1,11.4
					c-7.9-0.4-7.4-4.5-7.7-7.6c-0.2-1.7-0.2-3.6-0.2-5c0-1.1,0.6-2.2,1.5-2.8c7.4-5.3,8.9-14.1,8.9-14.1s3.1-8.7,1.2-15
					c-1.9-6.3-3.2-23.9-1.9-25.4c1.2-1.5,1.1-3,1.1-3c0.2-3.8,6.8-6.1,6.8-6.1h9.4c0,0,6.9,2.3,7.1,6.1c0,0-0.1,1.5,1.1,3
					c1.2,1.5,0,19.1-1.9,25.4c-1.9,6.3,1.2,15,1.2,15s-1.2,9.3,5.9,14.7c0.9,0.7,1.6,1.7,1.8,2.8c0.3,1.6,0.7,3.8,0.5,5.6
					c-0.3,3.1-1.3,3.4-1.9,3.4c-7.9,0.4-5.3-5-6.3-8.5c-1-3.4-3.1-7.5-3.8-8.2s0.3-19.8,0.4-27.7s0.5-25.2-3-29.1H993.8z"/>
			</g>
		</g>
		<path class="st15" d="M1005.8,60.8c-0.6,1.5-1.6,2.6-2.8,3.3c-1.9,0.9-3.9,0.8-5.9-0.1c-1.4-0.7-2.6-1.8-3.4-3.2
			c-0.4-0.6-0.7-1.2-0.9-1.8c0,0,0.3-0.7,0.6-1.1c1.5-2.2,1.9-5.6,1.2-10.1h9.4c-0.7,5,0.4,8.1,1.7,10.4c0.2,0.4,0.4,0.9,0.6,1.3
			C1006.2,60,1006,60.4,1005.8,60.8z"/>
		<path class="st19" d="M1003.9,52.6c-1,1.2-2.4,2.7-4.5,2.7c-2.2-0.1-4-1.6-4.5-2.5L1003.9,52.6z"/>
		<path class="st15" d="M1011.4,34.3c0,3-1.3,5.8-1.6,8.4c-0.4,3.9-5.7,12.1-10.5,12.1c-5,0-10.3-8.4-10.8-11.9
			c-0.3-2.6-1.6-5.9-1.6-8.9c0-11.3,5.8-17.6,12.2-17.6S1011.4,23,1011.4,34.3z"/>
		<path class="st20" d="M1013.3,35.8c0,0,0.2-3.2,0.3-3.4c0-0.1,1.6-11.7-5.3-16.6c-6.8-5-16.9-0.8-16.9-0.8s-3.9,2.6-5.5,6.4
			c-2,4.7-0.8,13.9-0.8,13.9l2.1-0.4l-0.3-4.2c0,0,2.3-1.5,3.4-3.5l0.3,4c0,0,4.5-3.9,4.3-7.6c0,0,4.3,7.2,5.7,6.6
			c0,0-4-5.9-2.8-8.6c0,0,2.3,6.4,5.1,7.5c0,0-4.6-5.8-2.8-7.5c0,0,4.5-0.6,7.9,1c3.4,1.6,3,12.4,3,12.4l1.1,0.3L1013.3,35.8z"/>
		<path class="st15" d="M985,35c0.3-0.2,0.6-0.3,0.9-0.4c1-0.1,2.3,0.5,3.3,1.7c1.3,1.6,1.5,3.6,0.5,4.4c-1,0.8-2.9,0.2-4.2-1.4
			C984.2,37.8,984,35.8,985,35z"/>
		
			<ellipse transform="matrix(0.6306 -0.7761 0.7761 0.6306 343.967 798.4763)" class="st15" cx="1010.8" cy="37.9" rx="3.7" ry="2.4"/>
		<path class="st15" d="M1043.8,89.2c0,0-2.8,1.5-6.1,1.9c-2.6,0.3-5.6,1.6-7.1,2.2c-0.6,0.3-1.2,0.8-1.5,1.4
			c-1.6,3.5,2.2,7.2,5.7,6.5c1.7-0.4,3.9-2.1,4.8-2.7c0.8-0.5,4.2-4,6.4-5.2"/>
	</g>
	<g id="Table" class="st1">
		<polygon id="leg_x5F_l" class="st21" points="894.7,113.8 883.4,113.8 870.4,197.7 876,197.7 		"/>
		<path id="leg_x5F_l_x5F_sh" class="st22" d="M894.7,113.8l-3.4,0.1L875,190.8c-0.4,2.3,0,4.7,1,6.9l0,0L894.7,113.8z"/>
		<polygon id="leg_x5F_r" class="st21" points="1110.2,113.8 1121.6,113.8 1134.5,197.7 1128.9,197.7 		"/>
		<path id="leg_x5F_r_x5F_sh" class="st22" d="M1110.2,113.8l3.4,0.1l16.4,76.8c0.4,2.3,0,4.7-1,6.9l0,0L1110.2,113.8z"/>
		<path id="top_x5F_bottom" class="st23" d="M1137.6,107.7H862.4v5.5c0,1,0.8,1.8,1.8,1.8h271.7c1,0,1.8-0.8,1.8-1.8V107.7z"/>
		<path id="top_x5F_mid" class="st22" d="M1176.8,107.2H823.2c-1.3,0-2.4,1.1-2.4,2.4v0.2c0,1.3,1.1,2.4,2.4,2.4h353.5
			c1.3,0,2.4-1.1,2.4-2.4v-0.2C1179.1,108.2,1178.1,107.2,1176.8,107.2z"/>
		<path id="top_x5F_top" class="st21" d="M1176.4,104.3H823.6c-1.5,0-2.8,1.2-2.8,2.8v2.5h358.3v-2.5
			C1179.1,105.6,1177.9,104.3,1176.4,104.3z"/>
		<rect x="750" y="10" class="st24" width="500" height="200"/>
	</g>
	<g id="laptop" class="st1">
		<rect x="990.2" y="99.6" class="st25" width="3.9" height="3.9"/>
		<rect x="1010.6" y="99.6" class="st25" width="3.9" height="3.9"/>
		<path class="st26" d="M1017.7,66.4l8.2,0.3c1,0,1.8,0.8,1.8,1.8v31c0,1-0.8,1.8-1.8,1.8l-8.1,0.2h-31.7l-7.4-0.2
			c-1,0-1.8-0.8-1.8-1.8v-31c0-1,0.8-1.8,1.8-1.8l7.4-0.3"/>
		<path class="st25" d="M1002.3,84l-23.6,17.3c-1,0-1.8-0.8-1.8-1.8v-31c0-1,0.8-1.8,1.8-1.8L1002.3,84z"/>
		<path class="st25" d="M1002.3,84l23.6,17.3c1,0,1.8-0.8,1.8-1.8v-31c0-1-0.8-1.8-1.8-1.8L1002.3,84z"/>
		<path class="st27" d="M1027.7,99.5"/>
		<path class="st25" d="M1025.8,102.4h-47.4c-0.6,0-1.1,0.5-1.1,1.1v1.3c0,0.4,0.4,0.8,0.8,0.8h48.1c0.6,0,1-0.5,1-1v-0.8
			C1027.2,103,1026.6,102.4,1025.8,102.4z"/>
		<path class="st28" d="M1025.5,102.4h-46.7c-0.4,0-0.9,0.1-1,0.4c-0.3,0.8,49.3,1,48.9,0.1C1026.5,102.5,1025.9,102.4,1025.5,102.4
			z"/>
		<ellipse class="st29" cx="1002.3" cy="75.7" rx="1.8" ry="2.2"/>
	</g>
	<g id="laptop_copy" class="st1">
		<path class="st30" d="M879.6,72.8l7.9,0.3c0.9,0,1.7,0.7,1.7,1.5v26.1c0,0.8-0.8,1.5-1.7,1.5l-7.8,0.2h-30.5l-7.2-0.2
			c-0.9,0-1.7-0.7-1.7-1.5V74.6c0-0.8,0.8-1.5,1.7-1.5l7.2-0.3"/>
		<path class="st27" d="M889.3,99.7"/>
		<path class="st30" d="M888.5,102.2h-47.8c-0.2,0-0.3,0.1-0.3,0.3v1.6c0,0.4,0.4,0.8,0.8,0.8h46.7c0.6,0,1-0.5,1-1v-1.4
			C888.8,102.3,888.7,102.2,888.5,102.2z"/>
		<path class="st31" d="M887.1,102.2h-45.4c-0.4,0-1.2-0.1-1.3,0.2c-0.3,0.7,48.5,0.2,48.5,0.1C888.8,102.1,888.1,102.2,887.1,102.2
			z"/>
		<ellipse class="st32" cx="864.8" cy="87.6" rx="1.8" ry="1.8"/>
	</g>
	<g id="screen" class="st1">
		<path class="st33" d="M930.7,117h-1c-0.8,0-1.5-0.7-1.5-1.5v-1.7c0-0.8,0.7-1.5,1.5-1.5h1c0.8,0,1.5,0.7,1.5,1.5v1.7
			C932.2,116.3,931.6,117,930.7,117z"/>
		<path class="st25" d="M935.4,20.2h34.7c1.7,0,3,1.3,3,3v61.4c0,1.7-1.3,3-3,3h-34.7c-1.7,0-3-1.3-3-3V23.2
			C932.4,21.6,933.8,20.2,935.4,20.2z"/>
		<path class="st34" d="M972.1,21.1c0.4,0.4,1,1.4,1,2.3v61.2c0,0.8-0.3,1.4-0.7,2C969.4,90.4,969.2,23.8,972.1,21.1z"/>
		<path class="st34" d="M933.4,21.1c-0.4,0.4-1,1.4-1,2.3v61.2c0,0.8,0.3,1.4,0.7,2C936.1,90.4,936.4,23.8,933.4,21.1z"/>
		<path class="st33" d="M957.5,60.6h-10.2c-0.9,0-1.6-0.7-1.6-1.6V48.8c0-0.9,0.7-1.6,1.6-1.6h10.2c0.9,0,1.6,0.7,1.6,1.6V59
			C959.1,59.9,958.4,60.6,957.5,60.6z"/>
		<path class="st35" d="M928.8,56.2h24.2c0.6,0,1.1-0.5,1.1-1.1v-3.2c0-0.6-0.5-1.1-1.1-1.1h-22.9c-1.4,0-2.5,1.1-2.5,2.5v1.8
			C927.7,55.7,928.2,56.2,928.8,56.2z"/>
		<path class="st35" d="M932.7,102.9h-4.9c-0.1,0-0.1-0.1-0.1-0.1V53.1c0-1.3,1.1-2.4,2.4-2.4h2.7c0.1,0,0.1,0.1,0.1,0.1v51.9
			C932.8,102.9,932.8,102.9,932.7,102.9z"/>
		<path class="st33" d="M936.9,108.7h-13.3v-7.6c0-1.6,1.3-2.9,2.9-2.9h7.4c1.6,0,2.9,1.3,2.9,2.9V108.7z"/>
		<path class="st36" d="M933.1,115.8h-5.6c-0.2,0-0.4-0.2-0.4-0.4v-6.5c0-0.2,0.2-0.4,0.4-0.4h5.6c0.2,0,0.4,0.2,0.4,0.4v6.5
			C933.5,115.6,933.3,115.8,933.1,115.8z"/>
		<circle class="st25" cx="947" cy="48.5" r="0.4"/>
		<circle class="st25" cx="957.6" cy="48.5" r="0.4"/>
		<circle class="st25" cx="947.1" cy="59.2" r="0.4"/>
		<circle class="st25" cx="957.5" cy="59.2" r="0.5"/>
	</g>
	<g id="mug" class="st1">
		<path class="st37" d="M1046.1,103.3h-5.5c-1.7,0-3.1-1.4-3.1-3.1V86.8c0-1.5,1.2-2.6,2.7-2.6c2.5-0.3,3.9-0.3,6.4,0
			c1.5,0,2.7,1.2,2.7,2.6v13.4C1049.2,101.9,1047.8,103.3,1046.1,103.3z"/>
		<path class="st38" d="M1046.3,103.3c-2.8,0-6.1,0.2-6.9-0.3c0.4-1.1,7.9-0.7,8.2-1.1c1.8-1.9-0.5-15.3,1.5-16.1
			c0.1,0.3,0.2,0.7,0.2,1l0,13.7C1049,102.5,1047.3,103.3,1046.3,103.3z"/>
		<ellipse class="st6" cx="1043.3" cy="85.1" rx="4.7" ry="0.8"/>
		<g class="st39">
			<path d="M1041.7,85.5c-0.6-0.6-0.9-1.4-1.2-2.3c-0.2-0.8-0.3-1.7-0.4-2.5c0-0.8-0.2-1.7-0.1-2.4c0.2-0.8,0.4-1.5,0.9-2.4l0.2,0
				c0.6,0.8,0.8,1.6,0.9,2.5c0.1,0.8-0.2,1.6-0.3,2.4c-0.1,0.8-0.2,1.5-0.2,2.3c0,0.8,0.1,1.5,0.3,2.3L1041.7,85.5z"/>
		</g>
		<g class="st39">
			<path d="M1042.3,84.5c0.1-1.3,0.4-2.6,0.5-3.9c0.1-1.3,0.1-2.5,0-3.7c-0.1-1.2-0.7-2.3-0.7-3.5c-0.1-1.2-0.3-2.4-0.2-3.9l0.3-0.1
				c0.7,0.4,1.3,0.9,1.7,1.4c0.5,0.6,0.8,1.2,1.1,1.9c0.6,1.4,0.4,2.9,0.2,4.3c-0.1,1.4-0.5,2.8-1,4c-0.5,1.3-1.1,2.5-1.7,3.6
				L1042.3,84.5z"/>
		</g>
		<g class="st39">
			<path d="M1045,85.5c0.1-0.6,0.3-1.2,0.4-1.8c0.1-0.6,0.2-1.1,0.2-1.7c0-0.6-0.2-1.1,0-1.6c0.1-0.5,0.3-1.1,0.7-1.8l0.2-0.1
				c0.7,0.5,1,1.1,1.1,1.8c0.2,0.7-0.2,1.3-0.4,1.9c-0.2,0.6-0.5,1.2-0.8,1.7c-0.3,0.5-0.7,1-1.2,1.5L1045,85.5z"/>
		</g>
	</g>
	<g id="tablet" class="st1">
		<path class="st25" d="M1146,105.3l-62,1c-2,0-5-1.5-5.1-3.5l-1.8-35c-0.2-2.2,1.5-4.1,3.7-4.2l68.5,1.5c2.5-0.1,4.4,2.2,3.9,4.6
			l-3.4,32.4C1149.3,103.8,1147.8,105.2,1146,105.3z"/>
		<path class="st33" d="M1086.3,106.3l-2.2,0c-2,0-5-1.5-5.1-3.5l-1.8-35c-0.2-2.2,1.5-4.1,3.7-4.2l5,0.1
			c-9.7,1.5-6.4,10.9-6.1,21.7C1080.1,100.1,1080.2,105.7,1086.3,106.3z"/>
		<path class="st33" d="M1146.1,105.2c3.6-2.7,3.8-13.3,4.2-20c0.4-6.2,2.9-15.4-1-20c1.2,0,2.3,0.5,3.1,1.4c0.7,0.9,1.1,2,0.8,3.2
			l-3.4,32.4C1149.5,103.9,1147.9,105.2,1146.1,105.2z"/>
		<path class="st35" d="M1117.2,91.9v15.3c0,0,0,0.1,0.1,0.1h1.8c0,0,0.1,0,0.1-0.1V91.9c0,0,0-0.1-0.1-0.1L1117.2,91.9
			C1117.2,91.9,1117.2,91.9,1117.2,91.9z"/>
		<path class="st35" d="M1109.6,91.9v15.3c0,0,0,0.1,0.1,0.1h1.8c0,0,0.1,0,0.1-0.1V91.9c0,0,0-0.1-0.1-0.1L1109.6,91.9
			C1109.6,91.9,1109.6,91.9,1109.6,91.9z"/>
		<path class="st33" d="M1119.5,95.5h-10.4c-0.9,0-1.7-0.7-1.7-1.7V76.3c0-0.9,0.7-1.7,1.7-1.7h10.4c0.9,0,1.7,0.7,1.7,1.7v17.5
			C1121.1,94.7,1120.4,95.5,1119.5,95.5z"/>
		<path class="st35" d="M1140.6,107.3h-49c-0.7,0-1.3-0.6-1.3-1.3v-0.6c0-0.7,0.6-1.3,1.3-1.3h49c0.7,0,1.3,0.6,1.3,1.3v0.6
			C1142,106.7,1141.4,107.3,1140.6,107.3z"/>
		<path class="st35" d="M1107.3,80l-5.6,26.3c0,0,0,0-0.1,0l-3.2-0.7c0,0,0,0,0-0.1l5.6-26.3c0,0,0,0,0.1,0L1107.3,80
			C1107.3,80,1107.4,80,1107.3,80z"/>
		<path class="st35" d="M1121.1,80l5.6,26.3c0,0,0,0,0.1,0l3.2-0.7c0,0,0,0,0-0.1l-5.6-26.3c0,0,0,0-0.1,0L1121.1,80
			C1121.1,80,1121.1,80,1121.1,80z"/>
		<path class="st35" d="M1126.4,77.3H1102c-0.9,0-1.6,0.7-1.6,1.6v0.8c0,0.9,0.7,1.6,1.6,1.6h24.4c0.9,0,1.6-0.7,1.6-1.6V79
			C1128,78.1,1127.3,77.3,1126.4,77.3z"/>
	</g>
	<g id="pen" class="st1">
		<path class="st40" d="M1157,85.2L1157,85.2c-0.4,0-0.7,0.3-0.7,0.7v13.8c0,0.4,0.3,0.7,0.7,0.7l0,0c0.4,0,0.7-0.3,0.7-0.7V85.9
			C1157.6,85.5,1157.3,85.2,1157,85.2z"/>
		<path class="st41" d="M1157.7,99h-1.4c-0.1,0-0.2-0.1-0.2-0.2V96c0-0.4,0.3-0.7,0.7-0.7h0.3c0.4,0,0.7,0.3,0.7,0.7L1157.7,99
			C1157.8,98.9,1157.8,99,1157.7,99z"/>
		<path class="st42" d="M1158.9,104.9h-3.9c-0.4,0-0.7-0.3-0.7-0.7v-5.6c0-1,0.8-1.4,1.8-1.4c0.5,0.1,1.1,0.1,1.6,0
			c1,0,1.8,0.4,1.8,1.4v5.6C1159.6,104.5,1159.3,104.9,1158.9,104.9z"/>
		<path class="st33" d="M1158.9,104.9h-1.2c1.2-0.1,1.5-1.8,1.4-3.9c-0.1-1.8,0.4-3.4-1.6-3.8c0,0,0.2,0,0.3-0.1
			c1,0,1.8,0.4,1.8,1.4v5.6C1159.6,104.5,1159.3,104.9,1158.9,104.9z"/>
		<path class="st43" d="M1157,92.9L1157,92.9c-0.1,0-0.2,0.1-0.2,0.2v1.5c0,0.1,0.1,0.2,0.2,0.2l0,0c0.1,0,0.2-0.1,0.2-0.2v-1.5
			C1157.1,93,1157.1,92.9,1157,92.9z"/>
	</g>
</g>
<g id="mobile_copy">
	<g id="chair_copy">
		
			<rect x="974.1" y="239" transform="matrix(0.9546 0.2978 -0.2978 0.9546 116.1229 -282.6958)" class="st2" width="23.5" height="1.6"/>
		
			<ellipse transform="matrix(0.2182 -0.9759 0.9759 0.2182 543.485 1165.5913)" class="st3" cx="999.3" cy="243.6" rx="4.2" ry="6.3"/>
		<path class="st2" d="M916.5,294.1h-7c-0.4,0-0.7,0.3-0.7,0.7V309h7.8V294.1z"/>
		<path class="st3" d="M916.4,301.7c-1.8,2.1-2.1,4.5-0.8,6.7l0.9,1.6L916.4,301.7L916.4,301.7z"/>
		<rect x="957.9" y="294.1" class="st2" width="9.4" height="14.9"/>
		<rect x="956.5" y="238.3" class="st2" width="12.1" height="32.3"/>
		<path class="st2" d="M1016.1,294.1h-7.4V309h7.8v-14.5C1016.5,294.2,1016.3,294.1,1016.1,294.1z"/>
		<path class="st3" d="M1008.8,301.7c1.7,2.2,2,4.7,0.8,7l-0.9,1.7v-8.8L1008.8,301.7z"/>
		<rect x="1012.6" y="183.5" class="st2" width="5.3" height="27.7"/>
		<rect x="906.9" y="183.5" class="st2" width="5.3" height="27.7"/>
		<circle class="st4" cx="962.6" cy="314.4" r="7.9"/>
		<circle class="st4" cx="912.1" cy="314.4" r="7.9"/>
		<circle class="st4" cx="1013.6" cy="314.4" r="7.9"/>
		<circle class="st5" cx="962.6" cy="314.4" r="4.3"/>
		<circle class="st5" cx="912.1" cy="314.4" r="4.3"/>
		<circle class="st5" cx="1013.6" cy="314.4" r="4.3"/>
		<path class="st2" d="M1011.9,299.8c-32.9-4.3-65.8-4.3-98.7,0c-2.5,0-4.5-2-4.5-4.5l0,0c0-2.5,2-4.5,4.5-4.5
			c31.9-3.4,64.8-3.4,98.7,0c2.5,0,4.5,2,4.5,4.5l0,0C1016.5,297.8,1014.4,299.8,1011.9,299.8z"/>
		<path class="st3" d="M1005.7,299.1c-28.7-3.3-57.4-3.3-86.2,0c-2.1,0.2-4.2,0.5-6.3,0.8c-2.5,0,32.7-6.8,49.4-6.7
			C978.8,293.1,1007.8,299.3,1005.7,299.1z"/>
		<circle class="st2" cx="1010.7" cy="296.2" r="5.8"/>
		<circle class="st2" cx="914.5" cy="296.2" r="5.8"/>
		<path class="st6" d="M969.5,299.8h-13.9c-1.5,0-2.8-1.3-2.8-2.8v-26.6c0-0.4,0.3-0.7,0.7-0.7h18c0.4,0,0.7,0.3,0.7,0.7V297
			C972.3,298.6,971.1,299.8,969.5,299.8z"/>
		<path class="st3" d="M975.3,243.2h-25.4c-1,0-1.9-0.8-1.9-1.9v-16h29.1v16C977.1,242.3,976.3,243.2,975.3,243.2z"/>
		<path class="st6" d="M1010.3,233.3h-95.5c-2.9,0-5.3-2.4-5.3-5.3v-12.6h106.1V228C1015.6,230.9,1013.3,233.3,1010.3,233.3z"/>
		<path class="st7" d="M1017.9,221.8H907.3c-1.6,0-2.9-1.3-2.9-2.9v-12.2c0-1.6,1.3-2.9,2.9-2.9h110.6c1.6,0,2.9,1.3,2.9,2.9v12.2
			C1020.8,220.5,1019.5,221.8,1017.9,221.8z"/>
		<path class="st8" d="M905,207.4c0.2-2.3,3.1-3.5,5.6-3.5h104.1c2.4,0,5.3,1.2,5.5,3.5C967.6,213.6,954.9,213.1,905,207.4z"/>
		
			<rect x="914.3" y="160" transform="matrix(2.996720e-11 -1 1 2.996720e-11 747.6112 1086.3276)" class="st2" width="5.3" height="18.8"/>
		
			<rect x="1003.6" y="160" transform="matrix(3.082341e-11 -1 1 3.082341e-11 836.8839 1175.6003)" class="st2" width="5.3" height="18.8"/>
		<path class="st9" d="M1000,203.9h-75.7c-2.8,0-5.1-2.3-5.1-5.1v-99c0-13.3,13.3-26.2,26.7-26.2l32.4-0.1
			c13.3,0,26.8,13.5,26.8,26.9l0,98.4C1005.1,201.6,1002.8,203.9,1000,203.9z"/>
		<path class="st10" d="M994.5,203.9h-63.7c1.7-39.5,0-66.2-11.4-103.5c0.9-14.9,12.2-24.8,26.6-26.7l33.2,0.1
			c15,2.1,23.7,11.1,26,26.7C1003.6,100.4,988.9,165.5,994.5,203.9z"/>
		<path class="st11" d="M923.6,86.8c4.5-7.3,12.4-12.1,22.2-13.2c11.5-0.1,22.7-0.1,33.2,0.1c9.9,1.2,17.7,6.3,22.2,14.4
			C975.9,73.4,949.9,72.6,923.6,86.8z"/>
		<path class="st9" d="M913.5,189.9h-7.9c-1.2,0-2.2-1-2.2-2.2v-23.8c0-1.2,1-2.2,2.2-2.2h7.9c1.2,0,2.2,1,2.2,2.2v23.8
			C915.7,188.9,914.7,189.9,913.5,189.9z"/>
		<path class="st10" d="M912.9,189.1h-6.8c-1,0-1.9-0.8-1.9-1.9v-22.8c0-1,0.8-1.9,1.9-1.9h6.8c1,0,1.9,0.8,1.9,1.9v22.8
			C914.8,188.3,913.9,189.1,912.9,189.1z"/>
		<path class="st9" d="M1019.2,189.9h-7.9c-1.2,0-2.2-1-2.2-2.2v-23.8c0-1.2,1-2.2,2.2-2.2h7.9c1.2,0,2.2,1,2.2,2.2v23.8
			C1021.4,188.9,1020.4,189.9,1019.2,189.9z"/>
		<path class="st10" d="M1018.6,189.1h-6.8c-1,0-1.9-0.8-1.9-1.9v-22.8c0-1,0.8-1.9,1.9-1.9h6.8c1,0,1.9,0.8,1.9,1.9v22.8
			C1020.5,188.3,1019.6,189.1,1018.6,189.1z"/>
	</g>
	<g id="Layer_4_copy">
		<g id="Layer_11_copy_2_1_">
			<path class="st12" d="M953.8,296.5c0,0,7.1,7.8,0,11.6c-7.1,3.8-13.1,10.4-13.1,10.4s-6.8,5.3-13.2,3.5
				c-6.4-1.9-11.2-3.1-5.9-7.8c5.3-4.7,20.4-15.4,19.4-20.8c-1-5.4,10.6,0.6,10.6,0.6L953.8,296.5z"/>
		</g>
		<g id="Layer_11_copy_2">
			<path class="st12" d="M967.4,296.5c0,0-7.1,7.8,0,11.6c7.1,3.8,13.1,10.4,13.1,10.4s6.8,5.3,13.2,3.5c6.4-1.9,11.2-3.1,5.9-7.8
				c-5.3-4.7-20.4-15.4-19.4-20.8c1-5.4-10.6,0.6-10.6,0.6L967.4,296.5z"/>
		</g>
		<g id="Layer_9_copy">
			<g id="Layer_10_copy">
				<path class="st13" d="M980.2,180.6c0,0,20.8,25.4,23.7,30.3c0,0,3.1,4.2,1.9,16.3s-20.8,71.5-22,72.6c0,0-10.8,2.4-17.1-3.6
					c0,0-0.3-1.2,2.9-4.2c0,0-0.2-2.4,1.3-4.1c0,0,5.1-29.8,5.9-34.7c0.8-4.9,4.3-29.5,5.1-30.4c0,0-8.2-15.9-18.9-15.1
					c-10.8,0.8-16.5,1.9-17.2,9.3c-0.6,7.4,2.1,37.1,2.5,38.4s6.5,33.4,6.2,34.5c0,0,2,1.5,1.6,2.5c0,0,1.3,4.1-0.4,4.7
					c0,0-11.9,4.7-18.2-2.3c0,0-2.6-10.8-6.2-21.5c-3.6-10.8-8.8-49.6-8.8-56.2s2.8-35.1,17.5-36.3
					C954.7,179.4,980.2,180.6,980.2,180.6z"/>
			</g>
		</g>
		<path class="st14" d="M947.4,90.2c0,0,2.4,9.5,11.8,10.7c9.4,1.1,12.2-9.4,11.4-10.7c-0.7-1.3,5.1,1.6,5.1,1.6l1,89.7
			c0,0-7.6,3.9-38.4,0l7.4-91.6L947.4,90.2z"/>
		<g id="Layer_7_copy">
			<g id="Layer_8_copy">
				<path class="st15" d="M976.8,93.9"/>
				<path class="st16" d="M944,180.9l-18.8,32.3l-2,1.2c0,0-2.2-1.9-2.9-7.5c-0.7-5.6-0.5-11.6,1.5-13.1c2-1.5,9.4-12.9,10.5-21.1
					c1-8.2,3-10.2-0.4-10c-3.5,0.2-17,1.2-19.5,0.6c-2.5-0.5-6.9-1.2-6.2-11.1c0.7-10,15.6-34.3,16.2-40.7
					c0.5-6.4,4.9-10.8,8.4-12.9c3.5-2.1,8.1-3.5,8.4-3.8c0.1-0.1,1.7-0.1,4.3-0.2L944,180.9z"/>
				<path class="st16" d="M973.8,94c2.2,0,3.5-0.1,3.5-0.1c1.1,0.8,18.4,10.7,18.4,10.7s3.9,2.4,5.6,9.6c1.7,7.3-2.6,28.8,1.9,30.2
					c21.6,6.7,16.5,19.9,9.8,22.2c-12.8,4.5-21.7-4.3-21.7-4.3s-3.1,7.2-2.5,14.4c0.6,7.1,6.2,21.6,6.1,22.8
					c-0.1,1.3-0.5,11.6-2.8,12.7c-2.3,1.2-6.1-9.1-6.1-9.1l-10.4-23.2L973.8,94z"/>
			</g>
			<path class="st17" d="M1025.1,154.6c2.8,7.2-1,12.7-9.2,12.6c-6.2,0-11.2-3.9-11.6-9.3c-0.3-4.2,0.1-10.1,8.4-11.5
				C1018.8,145.2,1023.1,149.5,1025.1,154.6z"/>
		</g>
		<g id="Layer_5_copy">
			<g id="Layer_6_copy">
				<path class="st18" d="M949.4,88.5c-6,6.5-5.4,36.1-5.2,49.5c0.2,13.4,1.9,46,0.7,47.2c-1.2,1.2-3.8,8.1-5.4,14
					c-1.7,5.9,8.3,20.2-5.2,19.5s-12.6-7.7-13.1-12.9c-0.3-2.9-0.3-6.2-0.3-8.5c0-1.9,1-3.7,2.5-4.8c12.6-9.1,15.2-23.9,15.2-23.9
					s5.3-14.9,2.1-25.6c-3.2-10.8-5.4-40.6-3.3-43.3c2.1-2.6,1.9-5.2,1.9-5.2c0.3-6.5,11.5-10.5,11.5-10.5h16
					c0,0,11.7,3.9,12.1,10.5c0,0-0.2,2.6,1.9,5.2c2.1,2.6-0.1,32.5-3.3,43.3c-3.2,10.8,2.1,25.6,2.1,25.6s-2.1,15.9,10.1,25
					c1.6,1.2,2.7,2.9,3.1,4.8c0.6,2.7,1.2,6.5,0.9,9.6c-0.5,5.2-2.3,5.7-3.3,5.8c-13.5,0.7-9-8.6-10.7-14.4
					c-1.7-5.9-5.3-12.7-6.4-13.9c-1.2-1.2,0.5-33.8,0.7-47.2c0.2-13.4,0.9-43-5.2-49.5H949.4z"/>
			</g>
		</g>
		<path class="st15" d="M969.9,94.3c-1.1,2.5-2.7,4.4-4.8,5.6c-3.2,1.6-6.6,1.4-10-0.2c-2.4-1.2-4.4-3-5.8-5.4
			c-0.6-1-1.2-2.1-1.5-3.1c0,0,0.6-1.2,1-1.8c2.5-3.8,3.2-9.5,2-17.2h16c-1.2,8.6,0.6,13.8,2.9,17.8c0.4,0.6,0.7,1.5,1,2.2
			C970.5,92.8,970.3,93.5,969.9,94.3z"/>
		<path class="st19" d="M966.7,80.2c-1.8,2.1-4.2,4.6-7.7,4.5c-3.8-0.1-6.8-2.8-7.7-4.3L966.7,80.2z"/>
		<path class="st15" d="M979.5,49c0,5.1-2.2,9.8-2.7,14.3c-0.7,6.6-9.8,20.5-17.9,20.6c-8.5,0-17.6-14.3-18.4-20.2
			c-0.6-4.5-2.7-10-2.7-15.2c0-19.2,10-30,20.8-30S979.5,29.7,979.5,49z"/>
		<path class="st20" d="M982.7,51.6c0,0,0.4-5.5,0.5-5.7c0.1-0.2,2.7-19.8-8.9-28.3c-11.6-8.5-28.7-1.4-28.7-1.4s-6.6,4.3-9.3,11
			c-3.4,8.1-1.3,23.6-1.3,23.6l3.6-0.6l-0.5-7.2c0,0,4-2.5,5.7-6l0.5,6.8c0,0,7.6-6.7,7.3-13c0,0,7.4,12.2,9.7,11.2
			c0,0-6.8-10.1-4.7-14.7c0,0,3.8,11,8.6,12.7c0,0-7.8-9.8-4.7-12.8c0,0,7.7-1,13.5,1.6s5.1,21.1,5.1,21.1l1.8,0.6L982.7,51.6z"/>
		<path class="st15" d="M934.4,50.2c0.4-0.4,1-0.6,1.6-0.6c1.7-0.2,4,0.9,5.6,3c2.2,2.7,2.6,6.1,0.8,7.5c-1.8,1.4-5,0.4-7.2-2.3
			C933.1,55,932.7,51.7,934.4,50.2z"/>
		
			<ellipse transform="matrix(0.6306 -0.7761 0.7761 0.6306 318.5901 779.7072)" class="st15" cx="978.4" cy="55.2" rx="6.4" ry="4.1"/>
		<path class="st15" d="M1034.7,142.6c0,0-4.8,2.6-10.3,3.3c-4.5,0.6-9.6,2.7-12,3.8c-1.1,0.5-2,1.3-2.5,2.4
			c-2.8,5.9,3.7,12.3,9.8,11c2.9-0.6,6.6-3.7,8.2-4.6c1.4-0.9,7.2-6.8,10.9-8.9"/>
	</g>
	<g id="Table_copy">
		<polygon id="leg_x5F_l_1_" class="st21" points="780.6,184.5 761.3,184.5 739.3,327.4 748.8,327.4 		"/>
		<path id="leg_x5F_l_x5F_sh_1_" class="st22" d="M780.6,184.5l-5.7,0.2L747,315.7c-0.6,4,0,8.1,1.8,11.7l0,0L780.6,184.5z"/>
		<polygon id="leg_x5F_r_1_" class="st21" points="1147.8,184.5 1167.1,184.5 1189.1,327.4 1179.6,327.4 		"/>
		<path id="leg_x5F_r_x5F_sh_1_" class="st22" d="M1147.8,184.5l5.7,0.2l27.9,130.9c0.6,4,0,8.1-1.8,11.7l0,0L1147.8,184.5z"/>
		<path id="top_x5F_bottom_1_" class="st23" d="M1194.4,174.1H725.6v10.6c0,1,0.8,1.8,1.8,1.8h465.4c1,0,1.8-0.8,1.8-1.8V174.1z"/>
		<path id="top_x5F_mid_1_" class="st22" d="M1262.8,173.2H657.2c-1.3,0-2.4,1.1-2.4,2.4v3.6c0,1.3,1.1,2.4,2.4,2.4h605.6
			c1.3,0,2.4-1.1,2.4-2.4v-3.6C1265.2,174.2,1264.1,173.2,1262.8,173.2z"/>
		<path id="top_x5F_top_1_" class="st21" d="M1262.4,168.3H657.6c-1.5,0-2.8,1.2-2.8,2.8v6.2h610.3v-6.2
			C1265.2,169.6,1263.9,168.3,1262.4,168.3z"/>
		<rect x="750" y="10" class="st24" width="500" height="200"/>
	</g>
	<g id="laptop_copy_2_1_">
		<rect x="943.2" y="160.3" class="st25" width="6.6" height="6.6"/>
		<rect x="978" y="160.3" class="st25" width="6.6" height="6.6"/>
		<path class="st26" d="M990.2,103.8l14,0.6c1.7,0,3,1.4,3,3v52.7c0,1.7-1.4,3-3,3l-13.8,0.4h-54l-12.7-0.4c-1.7,0-3-1.4-3-3v-52.7
			c0-1.7,1.4-3,3-3l12.7-0.6"/>
		<path class="st25" d="M963.9,133.7l-40.2,29.5c-1.7,0-3-1.4-3-3v-52.7c0-1.7,1.4-3,3-3L963.9,133.7z"/>
		<path class="st25" d="M963.9,133.7l40.2,29.5c1.7,0,3-1.4,3-3v-52.7c0-1.7-1.4-3-3-3L963.9,133.7z"/>
		<path class="st27" d="M1007.2,160.1"/>
		<path class="st25" d="M1005,165.1h-82.5c-0.6,0-1.1,0.5-1.1,1.1v3.6c0,0.4,0.4,0.8,0.8,0.8h83.2c0.6,0,1-0.5,1-1v-3.1
			C1006.4,165.7,1005.8,165.1,1005,165.1z"/>
		<path class="st28" d="M1003.4,165.1h-79.6c-0.7,0-1.5,0.1-1.7,0.7c-0.4,1.4,83.9,1.6,83.3,0.1
			C1005.2,165.2,1004.2,165.1,1003.4,165.1z"/>
		<ellipse class="st29" cx="963.9" cy="119.5" rx="3.1" ry="3.7"/>
	</g>
	<g id="laptop_copy_2">
		<path class="st30" d="M755,114.7l13.4,0.5c1.6,0,2.9,1.1,2.9,2.6v44.4c0,1.4-1.3,2.6-2.9,2.6l-13.3,0.4h-52l-12.2-0.4
			c-1.6,0-2.9-1.1-2.9-2.6v-44.4c0-1.4,1.3-2.6,2.9-2.6l12.2-0.5"/>
		<path class="st27" d="M771.3,160.5"/>
		<path class="st30" d="M770.3,164.7h-82c-0.2,0-0.3,0.1-0.3,0.3v3.5c0,0.4,0.4,0.8,0.8,0.8h80.8c0.6,0,1-0.5,1-1V165
			C770.6,164.8,770.5,164.7,770.3,164.7z"/>
		<path class="st31" d="M767.7,164.7h-77.4c-0.6,0-2.1-0.2-2.3,0.3c-0.4,1.2,82.6,0.4,82.6,0.1C770.6,164.5,769.4,164.7,767.7,164.7
			z"/>
		<ellipse class="st32" cx="729.7" cy="139.8" rx="3" ry="3.1"/>
	</g>
	<g id="screen_copy">
		<path class="st33" d="M843.1,189.9h-3.8c-0.8,0-1.5-0.7-1.5-1.5v-4.9c0-0.8,0.7-1.5,1.5-1.5h3.8c0.8,0,1.5,0.7,1.5,1.5v4.9
			C844.5,189.2,843.9,189.9,843.1,189.9z"/>
		<path class="st25" d="M847.9,25.1h63.3c1.7,0,3,1.3,3,3v108.8c0,1.7-1.3,3-3,3h-63.3c-1.7,0-3-1.3-3-3V28.1
			C844.9,26.4,846.2,25.1,847.9,25.1z"/>
		<path class="st34" d="M912.5,26.5c0.6,0.7,1.6,2.3,1.6,3.8v104.2c0,1.3-0.5,2.5-1.3,3.4C907.9,144.6,907.5,31.1,912.5,26.5z"/>
		<path class="st34" d="M846.5,26.6c-0.6,0.7-1.6,2.3-1.6,3.8v104.2c0,1.3,0.5,2.5,1.3,3.4C851.2,144.7,851.6,31.2,846.5,26.6z"/>
		<path class="st33" d="M888.8,93.9h-19.6c-0.9,0-1.6-0.7-1.6-1.6V72.7c0-0.9,0.7-1.6,1.6-1.6h19.6c0.9,0,1.6,0.7,1.6,1.6v19.6
			C890.4,93.2,889.7,93.9,888.8,93.9z"/>
		<path class="st35" d="M837.9,86.4h42.9c0.6,0,1.1-0.5,1.1-1.1v-7c0-0.6-0.5-1.1-1.1-1.1h-41.5c-1.4,0-2.5,1.1-2.5,2.5v5.6
			C836.8,85.9,837.3,86.4,837.9,86.4z"/>
		<path class="st35" d="M845.4,166h-8.5c-0.1,0-0.1-0.1-0.1-0.1V79.5c0-1.3,1.1-2.4,2.4-2.4h6.3c0.1,0,0.1,0.1,0.1,0.1v88.6
			C845.5,165.9,845.5,166,845.4,166z"/>
		<path class="st33" d="M852.5,175.8h-22.6v-15c0-1.6,1.3-2.9,2.9-2.9h16.7c1.6,0,2.9,1.3,2.9,2.9V175.8z"/>
		<path class="st36" d="M846.3,187.9h-10.2c-0.2,0-0.4-0.2-0.4-0.4v-11.7c0-0.2,0.2-0.4,0.4-0.4h10.2c0.2,0,0.4,0.2,0.4,0.4v11.7
			C846.7,187.7,846.5,187.9,846.3,187.9z"/>
		<circle class="st25" cx="869.7" cy="73.2" r="0.7"/>
		<circle class="st25" cx="887.8" cy="73.3" r="0.7"/>
		<circle class="st25" cx="870" cy="91.5" r="0.8"/>
		<circle class="st25" cx="887.6" cy="91.5" r="0.8"/>
	</g>
	<g id="mug_copy">
		<path class="st37" d="M1038.5,166.6h-9.4c-2.9,0-5.3-2.4-5.3-5.3v-22.8c0-2.5,2-4.5,4.5-4.5c4.3-0.5,6.6-0.5,10.9,0
			c2.5,0,4.5,2,4.5,4.5v22.8C1043.8,164.3,1041.4,166.6,1038.5,166.6z"/>
		<path class="st38" d="M1038.8,166.6c-4.7-0.1-10.5,0.4-11.8-0.5c0.6-1.9,13.4-1.2,14-1.9c3-3.2-0.8-26.1,2.5-27.5
			c0.2,0.5,0.4,1.1,0.4,1.7l0,23.3C1043.5,165.1,1040.5,166.6,1038.8,166.6z"/>
		<ellipse class="st6" cx="1033.8" cy="135.6" rx="8.1" ry="1.3"/>
		<g class="st39">
			<path d="M1031.1,136.2c-0.9-1.1-1.4-2.5-1.7-3.9c-0.3-1.4-0.4-2.8-0.4-4.2c0-1.4-0.2-2.8,0-4.1c0.2-1.4,0.4-2.7,0.9-4.1l0.2,0
				c0.6,1.3,0.8,2.8,0.9,4.2c0.1,1.4-0.3,2.8-0.4,4.1c-0.2,1.3-0.3,2.7-0.2,4c0,1.3,0.3,2.7,0.9,3.9L1031.1,136.2z"/>
		</g>
		<g class="st39">
			<path d="M1032.2,134.6c0.4-2.2,1-4.4,1.2-6.6c0.3-2.2,0.5-4.3,0.4-6.5c-0.1-2.1-0.8-4.2-1.1-6.2c-0.3-2.1-0.9-4.1-1.2-6.5
				l0.3-0.1c0.9,0.8,1.7,1.7,2.3,2.7c0.3,0.5,0.6,1,0.9,1.5l0.7,1.6c0.8,2.3,0.7,4.7,0.6,7c-0.1,2.3-0.6,4.6-1.3,6.8
				c-0.7,2.2-1.6,4.2-2.4,6.3L1032.2,134.6z"/>
		</g>
		<g class="st39">
			<path d="M1036.7,136.4c0.3-1,0.7-1.9,0.9-2.9c0.2-1,0.4-1.9,0.5-2.9c0.1-1-0.1-1.9,0.1-2.9c0.1-1,0.3-1.9,0.5-3l0.2-0.1
				c0.8,0.9,1.1,2,1.3,3.1c0.2,1.1-0.2,2.2-0.5,3.2c-0.3,1-0.7,2-1.2,3c-0.5,0.9-1.1,1.8-1.7,2.6L1036.7,136.4z"/>
		</g>
	</g>
	<g id="tablet_copy">
		<path class="st25" d="M1208.6,169.9l-105.6,1.6c-3.4,0.1-8.5-2.6-8.8-6l-3.1-59.6c-0.3-3.7,2.6-7,6.3-7.1l116.6,2.6
			c4.2-0.1,7.4,3.7,6.6,7.8l-5.8,55.1C1214.4,167.4,1211.7,169.9,1208.6,169.9z"/>
		<path class="st33" d="M1107.1,171.7l-3.7,0.1c-3.4,0.1-8.5-2.6-8.8-6l-3.1-59.6c-0.3-3.7,2.6-7,6.3-7.1l8.5,0.2
			c-16.6,2.6-10.8,18.6-10.4,37C1096.5,161.2,1096.7,170.7,1107.1,171.7z"/>
		<path class="st33" d="M1208.9,169.8c6.1-4.6,6.4-22.7,7.2-34.1c0.7-10.6,4.9-26.3-1.7-34.1c2.1-0.1,4,0.9,5.2,2.3
			c1.2,1.5,1.8,3.4,1.4,5.5l-5.8,55.1C1214.6,167.6,1212,169.8,1208.9,169.8z"/>
		<path class="st35" d="M1159.6,147.2v26.2c0,0,0,0.1,0.1,0.1h3.1c0,0,0.1,0,0.1-0.1v-26.2c0,0,0-0.1-0.1-0.1L1159.6,147.2
			C1159.6,147.2,1159.6,147.2,1159.6,147.2z"/>
		<path class="st35" d="M1146.7,147.2v26.2c0,0,0,0.1,0.1,0.1h3.1c0,0,0.1,0,0.1-0.1v-26.2c0,0,0-0.1-0.1-0.1L1146.7,147.2
			C1146.8,147.2,1146.7,147.2,1146.7,147.2z"/>
		<path class="st33" d="M1164.7,153.3h-20.1c-0.9,0-1.7-0.7-1.7-1.7v-32.1c0-0.9,0.7-1.7,1.7-1.7h20.1c0.9,0,1.7,0.7,1.7,1.7v32.1
			C1166.4,152.5,1165.6,153.3,1164.7,153.3z"/>
		<path class="st35" d="M1200.5,173.4h-85.4c-0.7,0-1.3-0.6-1.3-1.3v-3c0-0.7,0.6-1.3,1.3-1.3h85.4c0.7,0,1.3,0.6,1.3,1.3v3
			C1201.9,172.8,1201.3,173.4,1200.5,173.4z"/>
		<path class="st35" d="M1142.9,126.9l-9.5,44.8c0,0-0.1,0.1-0.1,0.1l-5.4-1.1c0,0-0.1-0.1-0.1-0.1l9.5-44.8c0,0,0.1-0.1,0.1-0.1
			l5.4,1.1C1142.8,126.8,1142.9,126.9,1142.9,126.9z"/>
		<path class="st35" d="M1166.4,126.9l9.5,44.8c0,0,0.1,0.1,0.1,0.1l5.4-1.1c0,0,0.1-0.1,0.1-0.1l-9.5-44.8c0,0-0.1-0.1-0.1-0.1
			l-5.4,1.1C1166.4,126.8,1166.3,126.9,1166.4,126.9z"/>
		<path class="st35" d="M1176.4,122.3h-43.9c-0.9,0-1.6,0.7-1.6,1.6v3.6c0,0.9,0.7,1.6,1.6,1.6h43.9c0.9,0,1.6-0.7,1.6-1.6V124
			C1178.1,123.1,1177.3,122.3,1176.4,122.3z"/>
	</g>
	<g id="pen_copy">
		<path class="st40" d="M1227.8,135.7h-0.9c-0.4,0-0.7,0.3-0.7,0.7v24.4c0,0.4,0.3,0.7,0.7,0.7h0.9c0.4,0,0.7-0.3,0.7-0.7v-24.4
			C1228.5,136,1228.2,135.7,1227.8,135.7z"/>
		<path class="st41" d="M1228.7,159.2h-2.6c-0.1,0-0.2-0.1-0.2-0.2v-5.3c0-0.4,0.3-0.7,0.7-0.7h1.5c0.4,0,0.7,0.3,0.7,0.7
			L1228.7,159.2C1228.8,159.2,1228.8,159.2,1228.7,159.2z"/>
		<path class="st42" d="M1230.7,169.2h-6.6c-0.7,0-1.2-0.6-1.2-1.2v-9.5c0-1.7,1.4-2.4,3.1-2.4c0.9,0.2,1.9,0.2,2.8,0
			c1.7,0,3.1,0.7,3.1,2.4v9.5C1231.9,168.7,1231.4,169.2,1230.7,169.2z"/>
		<path class="st33" d="M1230.7,169.2h-2c2-0.1,2.5-3,2.4-6.6c-0.1-3.1,0.7-5.8-2.7-6.5c0,0,0.3-0.1,0.5-0.1c1.7,0,3.1,0.7,3.1,2.4
			v9.5C1231.9,168.7,1231.3,169.2,1230.7,169.2z"/>
		<path class="st43" d="M1227.5,148.9h-0.2c-0.1,0-0.2,0.1-0.2,0.2v2.8c0,0.1,0.1,0.2,0.2,0.2h0.2c0.1,0,0.2-0.1,0.2-0.2v-2.8
			C1227.7,149,1227.6,148.9,1227.5,148.9z"/>
	</g>
</g>
</svg>
