<svg id="brand" xmlns="http://www.w3.org/2000/svg" viewBox="0 0 440.31 346.95"><defs><style>.cls-1,.cls-2,.cls-4,.cls-5,.cls-6,.cls-7,.cls-8,.cls-9{fill:none;stroke:#fff;stroke-miterlimit:10;}.cls-1{stroke-width:14px;}.cls-2{stroke-width:11px;}.cls-3{fill:#fff;}.cls-4{stroke-width:7px;}.cls-5{stroke-width:9px;}.cls-6,.cls-7,.cls-8,.cls-9{stroke-linecap:round;}.cls-6{stroke-width:4px;}.cls-7{stroke-width:3px;}.cls-8{stroke-width:6px;}.cls-9{stroke-width:5px;}</style></defs><title>icon_branding_white</title><path class="cls-1" d="M300.47,291h-249c-6.37,0-11.53-4.48-11.53-10V140.36c0-5.52,5.16-10,11.53-10H330.61c6.37,0,11.52,4.48,11.52,10v36.4" transform="translate(-32.89 -8.13)"/><rect class="cls-2" x="282.51" y="180.43" width="114.02" height="159.18" rx="10"/><rect class="cls-3" x="72.3" y="322.08" width="169.22" height="24.87" rx="10"/><rect class="cls-3" x="138.31" y="281.83" width="36.41" height="50.12" rx="10"/><ellipse class="cls-4" cx="307.05" cy="48.85" rx="53.89" ry="45.35"/><path class="cls-5" d="M463.15,160.3l3.53-3.07a5.4,5.4,0,0,0-.17-8.56L394.19,89.79a6.36,6.36,0,0,0-7.92.11l-5.75,5a4.21,4.21,0,0,0,.13,6.67L453,160.45A8.19,8.19,0,0,0,463.15,160.3Z" transform="translate(-32.89 -8.13)"/><polyline class="cls-5" points="15.06 108.12 15.06 5.97 176.67 5.97 222.51 43.27 222.51 108.38"/><polyline class="cls-5" points="176.67 10.42 176.67 43.27 217.43 43.27"/><g id="Layer_8_copy" data-name="Layer 8 copy"><path class="cls-6" d="M127.72,227.56c10.36-7.1,20.83-17.4,24.16-26.09s1.06-14.53,7.69-20.94,18.45-2,18.45-2,7.36,2.93,7.6,10.82-15.81,44.09-42.78,56.28" transform="translate(-32.89 -8.13)"/><path class="cls-6" d="M170.84,187.84c-.25,17-13.9,30.16-13.9,30.16" transform="translate(-32.89 -8.13)"/><path class="cls-6" d="M152.12,223.77c-10.33,10.69-17.21,13.69-17.21,13.69" transform="translate(-32.89 -8.13)"/><path class="cls-6" d="M150.14,255l33.16-29.43a27.81,27.81,0,0,0,4.12-4.67c2.51-3.69,6.47-2.31,10.93,3.87,5,6.95,34.79,13.84,34.79,13.84" transform="translate(-32.89 -8.13)"/><path class="cls-6" d="M157,262.77c12.78-5.16,24.23-20.9,29.56-26.09,0,0,5.5-6.53,11.61-.77s33.05,11.32,33.05,11.32" transform="translate(-32.89 -8.13)"/><path class="cls-6" d="M122,219.12s19.69-7.94,23.72-32.28,32.38-18.21,32.38-18.21,24.85,7.11,16.29,25.22S214,224.27,214,224.27s11.48,6.36,19.11,4.87" transform="translate(-32.89 -8.13)"/><path class="cls-6" d="M118.61,211.16s13-5.77,19.82-30.84,36.81-21.59,36.81-21.59S201.17,161,205,179.14s-3.94,22.73,3.36,30.31,18.7,13,25.53,12.53" transform="translate(-32.89 -8.13)"/><path class="cls-6" d="M121,181.46c7.07-17.25,22.1-26.86,31.11-31.28a34.57,34.57,0,0,1,16.14-3.44c10.58.29,28.7,3.16,43.72,17.58" transform="translate(-32.89 -8.13)"/><path class="cls-6" d="M234.16,213.75s-16.58-7.84-17.29-23.28-2.49-15.85-2.49-15.85" transform="translate(-32.89 -8.13)"/><path class="cls-6" d="M232.05,198.89c-.71-15.45-7.94-24.61-7.94-24.61" transform="translate(-32.89 -8.13)"/><path class="cls-6" d="M116.88,200.32c-1.39,1.52,7.5-5.09,10.56-14.77" transform="translate(-32.89 -8.13)"/><path class="cls-6" d="M165.62,269.85s17.67-10.72,20.12-18,8.2-8.88,13.39-4.08,30.54,7.38,30.54,7.38" transform="translate(-32.89 -8.13)"/><path class="cls-6" d="M178.39,270.43s16.12-10.42,16-14.13,20.17,4.36,23.24,5.39" transform="translate(-32.89 -8.13)"/><path class="cls-6" d="M188.38,275s10.33-6.25,10.21-10,8.51,3.27,11.57,4.3" transform="translate(-32.89 -8.13)"/><path class="cls-6" d="M213,294" transform="translate(-32.89 -8.13)"/><path class="cls-7" d="M341.68,271.35c7-2.81,14.59-7.63,18.07-12.56s3.38-9,8.19-12,10.32,1.7,10.32,1.7a8.09,8.09,0,0,1,2,8c-1.4,5-17.06,25.25-33.94,28.6" transform="translate(-32.89 -8.13)"/><path class="cls-7" d="M372.6,253.23C369.17,263.91,359.27,270,359.27,270" transform="translate(-32.89 -8.13)"/><path class="cls-7" d="M355.56,272.87c-7.63,5.09-11.92,5.87-11.92,5.87" transform="translate(-32.89 -8.13)"/><path class="cls-7" d="M348.45,292.23,372,279a18,18,0,0,0,3.12-2.28c2.06-1.93,3.93-.42,5.13,4.19,1.36,5.18,16.06,14.3,16.06,14.3" transform="translate(-32.89 -8.13)"/><path class="cls-7" d="M350.63,298.23c7.87-1.2,17.09-9.29,21-11.7,0,0,4.23-3.24,6.4,1.38s15.62,12.43,15.62,12.43" transform="translate(-32.89 -8.13)"/><path class="cls-7" d="M340.25,265.12s12.14-1.85,19-16.54,21-6.28,21-6.28,12,8.47,3.9,18.5,4.63,22.3,4.63,22.3,4.95,5.85,9.35,6.14" transform="translate(-32.89 -8.13)"/><path class="cls-7" d="M340,259.55s8.1-1.56,16.65-16.25,24-7.7,24-7.7,13.53,5.6,12.08,17.63-6.52,13.69-4.06,19.64,7.56,11.19,11.32,12" transform="translate(-32.89 -8.13)"/><path class="cls-7" d="M347,241.22a39.43,39.43,0,0,1,22.81-14.72,17.22,17.22,0,0,1,9.36.42A33.59,33.59,0,0,1,399.29,245" transform="translate(-32.89 -8.13)"/><path class="cls-7" d="M401.68,279.72s-7.41-7.6-4.8-17.45,1.72-10.38,1.72-10.38" transform="translate(-32.89 -8.13)"/><path class="cls-7" d="M403.42,270c2.61-9.84.49-16.78.49-16.78" transform="translate(-32.89 -8.13)"/><path class="cls-7" d="M341.12,252.45c-1,.73,5-2,8.55-7.62" transform="translate(-32.89 -8.13)"/><path class="cls-7" d="M353.91,304.08s11.59-3.93,14.33-8.14,6.13-4.28,8-.42,15,9.55,15,9.55" transform="translate(-32.89 -8.13)"/><path class="cls-7" d="M360.68,306.49s10.7-4,11.35-6.34,10,6,11.47,7.12" transform="translate(-32.89 -8.13)"/><path class="cls-7" d="M365.17,311s6.77-2.28,7.43-4.63,3.94,3.42,5.39,4.56" transform="translate(-32.89 -8.13)"/><path class="cls-7" d="M388.09,338.37" transform="translate(-32.89 -8.13)"/><path class="cls-8" d="M97.35,113.9c11.91-5.54,23-12.64,28.93-19.87,8.27-10,8.06-18.3,19.51-24.35s24.58,3.45,24.58,3.45,8.08,6.17,4.77,16.36c-1.4,4.29-8.81,14.06-19.91,24.46" transform="translate(-32.89 -8.13)"/><path class="cls-8" d="M154.83,83.64c-5.53,14.74-18.17,25.2-25.72,30.4" transform="translate(-32.89 -8.13)"/><path class="cls-8" d="M77.8,107.82s28.92-3.75,45.31-33.66S173,61.39,173,61.39s28.6,17.23,9.28,37.64c-4.59,4.85-6.38,10-6.43,14.93" transform="translate(-32.89 -8.13)"/><path class="cls-8" d="M77.1,96.49s19.28-3.17,39.63-33.07,57.16-15.68,57.16-15.68,32.2,11.4,28.75,35.9c-2.31,16.44-8.52,23.36-10.57,29.8" transform="translate(-32.89 -8.13)"/><path class="cls-8" d="M215.79,62.39a29.61,29.61,0,0,1,2.61,4.51" transform="translate(-32.89 -8.13)"/><path class="cls-8" d="M93.85,59.18c17-19.8,40.71-27.23,54.3-30a47.71,47.71,0,0,1,22.29.86,87.59,87.59,0,0,1,24.29,11.07" transform="translate(-32.89 -8.13)"/><path class="cls-8" d="M211.43,113.1A28.84,28.84,0,0,1,212.65,102c6.21-20,4.11-21.13,4.11-21.13" transform="translate(-32.89 -8.13)"/><path class="cls-8" d="M229.48,113.22c4.21-17.58-.08-29.58-.08-29.58" transform="translate(-32.89 -8.13)"/><path class="cls-8" d="M79.87,82c-2.47,1.48,12-4.09,20.36-15.5" transform="translate(-32.89 -8.13)"/><path class="cls-8" d="M181.34,234.24" transform="translate(-32.89 -8.13)"/><path class="cls-9" d="M325.47,20.87h22.87a0,0,0,0,1,0,0v1.81a55.5,55.5,0,0,1-55.5,55.5H270a0,0,0,0,1,0,0V76.38a55.5,55.5,0,0,1,55.5-55.5Z"/><ellipse class="cls-9" cx="311.15" cy="48.22" rx="23.61" ry="19.87"/><ellipse class="cls-3" cx="310.14" cy="48.37" rx="7" ry="5.89"/></g></svg>