<?xml version="1.0" encoding="utf-8"?>
<!-- Generator: Adobe Illustrator 23.0.6, SVG Export Plug-In . SVG Version: 6.00 Build 0)  -->
<svg version="1.1" id="develop_copy" xmlns="http://www.w3.org/2000/svg" xmlns:xlink="http://www.w3.org/1999/xlink" x="0px"
	 y="0px" viewBox="0 0 398.6 346.1" style="enable-background:new 0 0 398.6 346.1;" xml:space="preserve">
<style type="text/css">
	.st0{fill:none;stroke:#231F20;stroke-width:20;stroke-miterlimit:10;}
	.st1{fill:#231F20;}
</style>
<title>icon_develop_black</title>
<path class="st0" d="M20,10h358.6c5.5,0,10,4.5,10,10v214c0,5.5-4.5,10-10,10H20c-5.5,0-10-4.5-10-10V20C10,14.5,14.5,10,20,10z"/>
<path class="st1" d="M290.3,317.9v12.2h-182v-12.2H290.3 M296.3,301.9h-194c-5.5,0-10,4.5-10,10v24.2c0,5.5,4.5,10,10,10h194
	c5.5,0,10-4.5,10-10v-24.2C306.3,306.4,301.8,301.9,296.3,301.9z"/>
<path class="st1" d="M214.6,250.1v51.2H184v-51.2H214.6 M220.6,234.1H178c-5.5,0-10,4.5-10,10v63.2c0,5.5,4.5,10,10,10h42.6
	c5.5,0,10-4.5,10-10v-63.2C230.6,238.5,226.1,234.1,220.6,234.1z"/>
<path class="st1" d="M114.7,125.7c-2.7,1.9-3.2,3.5,0.2,5.9l37.2,23.9c2.4,1.8,2.6,3.4,1.3,5.6l-3.5,5.5c-1.6,2.4-3.4,2.4-5.6,1
	c-1.8-1-5.4-4.2-43.3-28.6c-1.8-1.4-4.9-2.7-4.9-8.4v-5c0-5.6,2.9-6.9,5.1-8.5c38.4-27.2,42-29.6,43.6-30.7c2.2-1.6,4-1.6,5.6,0.7
	l3.8,5.3c1.4,2.1,0.6,4-1.6,5.8L114.7,125.7z"/>
<path class="st1" d="M216.6,60.8c1-1.9,2.7-1.8,5.1-1.8h7.3c1.3-0.1,2.4,0.9,2.5,2.2c0,0,0,0.1,0,0.1c0,1.1-0.3,2.2-0.8,3.2
	l-52.4,114.1c-0.8,1.8-2.6,1.8-5.1,1.8h-7.2c-1.3,0-2.4-1.1-2.4-2.4c0-0.1,0-0.1,0-0.2c0-0.9,0.2-1.9,0.6-2.7L216.6,60.8z"/>
<path class="st1" d="M240.1,98.3c-2.2-1.8-3-3.7-1.6-5.8l3.8-5.3c1.6-2.3,3.4-2.3,5.6-0.7c1.6,1.1,5.3,3.5,43.6,30.7
	c2.2,1.6,5.1,2.9,5.1,8.5v5c0,5.6-3.2,6.9-4.9,8.4c-37.9,24.4-41.5,27.6-43.3,28.6c-2.2,1.4-4,1.4-5.6-1l-3.5-5.5
	c-1.3-2.3-1.1-3.9,1.3-5.6l37.3-23.9c3.3-2.4,2.9-4,0.2-5.9L240.1,98.3z"/>
<path class="st1" d="M371.6,186.8l-1.5-6.9c-0.1-0.3-0.3-0.6-0.6-0.6l-9.4-1.2l-4.3-6.2l1.8-7.7l-8-5.2l-6.2,4.8l-7.4-1.3l-5-8.1
	c-0.2-0.3-0.5-0.4-0.8-0.4l-6.8,1.5c-0.3,0.1-0.6,0.3-0.6,0.7l-1.2,9.4l-6.1,4.3l-7.6-1.8l-5.1,8.1l4.8,6.2l-1.3,7.4l-8,5
	c-0.3,0.2-0.4,0.5-0.3,0.8l1.5,6.9c0.1,0.3,0.3,0.6,0.6,0.6l9.4,1.2l4.3,6.2l-1.8,7.7l8,5.2l6.2-4.8l7.4,1.3l5,8.1
	c0.2,0.3,0.5,0.4,0.8,0.4l6.8-1.5c0.3-0.1,0.6-0.3,0.6-0.7l1.2-9.4l6.1-4.3l7.6,1.8l5.1-8.1l-4.8-6.2l1.3-7.4l8-5
	C371.6,187.5,371.7,187.2,371.6,186.8z M337.8,205.4c-7.8,1.7-14.9-3.4-16.8-10.9s3.6-15.4,10.8-17c7.8-1.7,14.9,3.4,16.8,10.9
	S345.1,203.8,337.8,205.4z"/>
</svg>
