<svg id="Layer_2" data-name="Layer 2" xmlns="http://www.w3.org/2000/svg" viewBox="0 0 60.89 46.36"><defs><style>.cls-1{fill:#231f20;}.cls-2{fill:#fcfafc;}.cls-3{fill:#0b0a0a;}</style></defs><title>icon_mail</title><rect class="cls-1" y="0.05" width="60.89" height="46.31" rx="6.87"/><path class="cls-2" d="M22.61,72a1,1,0,0,1-.73-.32,1,1,0,0,1,.05-1.41L49.32,45a1,1,0,1,1,1.36,1.47L23.29,71.69A1,1,0,0,1,22.61,72Z" transform="translate(-19.55 -26.79)"/><path class="cls-2" d="M77.39,72a1,1,0,0,1-.67-.26L48.11,45.61a1,1,0,0,1,1.35-1.48l28.6,26.08a1,1,0,0,1,.07,1.42A1,1,0,0,1,77.39,72Z" transform="translate(-19.55 -26.79)"/><path class="cls-3" d="M73.56,26.79H26.44a6.67,6.67,0,0,0-6.89,6.38L50,54.49,80.45,33.17A6.67,6.67,0,0,0,73.56,26.79Z" transform="translate(-19.55 -26.79)"/><path class="cls-2" d="M73.56,28.79a4.8,4.8,0,0,1,4.77,3.42L50,52.05,21.67,32.21a4.8,4.8,0,0,1,4.77-3.42H73.56m0-2H26.44a6.67,6.67,0,0,0-6.89,6.38L50,54.49,80.45,33.17a6.67,6.67,0,0,0-6.89-6.38Z" transform="translate(-19.55 -26.79)"/></svg>