<svg id="Layer_1" data-name="Layer 1" xmlns="http://www.w3.org/2000/svg" viewBox="0 0 60.89 81.66"><defs><style>.cls-1{fill:#f4f4f5;}.cls-2{fill:#231f20;}</style></defs><title>icon_resume</title><rect class="cls-1" x="5.06" y="35.87" width="50.21" height="39.83"/><path class="cls-2" d="M73.85,90.83H26.15a6.62,6.62,0,0,1-6.6-6.6V15.77a6.62,6.62,0,0,1,6.6-6.6h47.7a6.62,6.62,0,0,1,6.6,6.6V84.23A6.62,6.62,0,0,1,73.85,90.83ZM69.43,76.26H29.34a1.08,1.08,0,0,0-1.08,1.08v2a1.08,1.08,0,0,0,1.08,1.09H69.43a1.09,1.09,0,0,0,1.08-1.09v-2A1.08,1.08,0,0,0,69.43,76.26Zm0-9.79H29.34a1.08,1.08,0,0,0-1.08,1.08v2a1.08,1.08,0,0,0,1.08,1.08H69.43a1.09,1.09,0,0,0,1.08-1.08v-2A1.09,1.09,0,0,0,69.43,66.47Zm0-9.79H29.34a1.08,1.08,0,0,0-1.08,1.09v2a1.08,1.08,0,0,0,1.08,1.08H69.43a1.08,1.08,0,0,0,1.08-1.08v-2A1.09,1.09,0,0,0,69.43,56.68Zm0-9.79H29.34A1.08,1.08,0,0,0,28.26,48v2a1.08,1.08,0,0,0,1.08,1.09H69.43A1.09,1.09,0,0,0,70.51,50V48A1.09,1.09,0,0,0,69.43,46.89ZM38.94,16a4.73,4.73,0,1,0,4.72,4.72A4.73,4.73,0,0,0,38.94,16Zm4.6,11.15H42l-2.75,3-3.12-3H34.34A4.86,4.86,0,0,0,29.5,32v7.5A1.45,1.45,0,0,0,31,41H46.52a1.85,1.85,0,0,0,1.85-1.86V32A4.85,4.85,0,0,0,43.54,27.17Z" transform="translate(-19.55 -9.17)"/></svg>