<svg id="develop_copy" data-name="develop copy" xmlns="http://www.w3.org/2000/svg" viewBox="0 0 398.6 346.13"><defs><style>.cls-1{fill:none;stroke:#231f20;stroke-miterlimit:10;stroke-width:20px;}.cls-2{fill:#231f20;}</style></defs><title>icon_develop_black</title><rect class="cls-1" x="10" y="10" width="378.6" height="233.98" rx="10"/><path class="cls-2" d="M341,328.29v12.22H159V328.29H341m6-16H153a10,10,0,0,0-10,10v24.22a10,10,0,0,0,10,10H347a10,10,0,0,0,10-10V322.29a10,10,0,0,0-10-10Z" transform="translate(-50.69 -10.38)"/><path class="cls-2" d="M265.31,260.44v51.21H234.66V260.44h30.65m6-16H228.66a10,10,0,0,0-10,10v63.21a10,10,0,0,0,10,10h42.65a10,10,0,0,0,10-10V254.44a10,10,0,0,0-10-10Z" transform="translate(-50.69 -10.38)"/><path class="cls-2" d="M165.38,136.12c-2.71,1.93-3.19,3.54.16,5.94L202.78,166c2.39,1.77,2.55,3.37,1.28,5.62l-3.5,5.46c-1.6,2.41-3.35,2.41-5.58,1-1.75-1-5.41-4.18-43.29-28.6-1.75-1.44-4.94-2.73-4.94-8.35v-5c0-5.62,2.87-6.91,5.1-8.51,38.36-27.15,42-29.56,43.61-30.69,2.23-1.6,4-1.6,5.57.65l3.82,5.3c1.44,2.09.64,4-1.59,5.78Z" transform="translate(-50.69 -10.38)"/><path class="cls-2" d="M267.25,71.22c.95-1.93,2.7-1.76,5.09-1.76h7.32a2.36,2.36,0,0,1,2.55,2.24,6.38,6.38,0,0,1-.8,3.22L229.05,189c-.8,1.77-2.55,1.77-5.1,1.77h-7.16a2.4,2.4,0,0,1-2.39-2.57,6.13,6.13,0,0,1,.64-2.73Z" transform="translate(-50.69 -10.38)"/><path class="cls-2" d="M290.8,108.65c-2.22-1.77-3-3.69-1.59-5.78l3.82-5.3c1.59-2.25,3.35-2.25,5.57-.65,1.6,1.13,5.26,3.54,43.62,30.69,2.23,1.6,5.09,2.89,5.09,8.51v5c0,5.62-3.18,6.91-4.93,8.35-37.89,24.42-41.55,27.63-43.3,28.6-2.23,1.44-4,1.44-5.57-1l-3.5-5.46c-1.28-2.25-1.12-3.85,1.27-5.62l37.25-23.94c3.34-2.4,2.86-4,.16-5.94Z" transform="translate(-50.69 -10.38)"/><path class="cls-2" d="M422.34,197.2l-1.48-6.86a.76.76,0,0,0-.65-.61l-9.35-1.21-4.27-6.2,1.77-7.67-8-5.19-6.18,4.82-7.37-1.34-5-8.08a.77.77,0,0,0-.82-.35l-6.8,1.49a.78.78,0,0,0-.6.67l-1.2,9.43-6.15,4.31-7.6-1.79-5.14,8.07,4.78,6.23L357,200.36l-8,5a.76.76,0,0,0-.34.82l1.48,6.87a.79.79,0,0,0,.65.61l9.35,1.2,4.27,6.21-1.77,7.67,8,5.18,6.18-4.81,7.37,1.34,5,8.08a.77.77,0,0,0,.82.35l6.8-1.5a.77.77,0,0,0,.6-.66l1.2-9.43L404.7,223l7.6,1.8,5.13-8.07-4.77-6.23,1.33-7.44,8-5A.79.79,0,0,0,422.34,197.2Zm-33.82,18.56c-7.75,1.7-14.87-3.43-16.84-10.92s3.59-15.41,10.82-17c7.75-1.7,14.88,3.43,16.84,10.92S395.76,214.17,388.52,215.76Z" transform="translate(-50.69 -10.38)"/></svg>