<svg id="design" xmlns="http://www.w3.org/2000/svg" viewBox="0 0 492.98 349.98"><defs><style>.cls-1{fill:#fff;}.cls-2,.cls-3,.cls-4,.cls-5,.cls-6{fill:none;stroke:#fff;stroke-miterlimit:10;}.cls-2{stroke-width:20px;}.cls-3{stroke-width:6px;}.cls-4{stroke-width:4px;}.cls-5{stroke-width:3px;}.cls-6{stroke-width:5px;}</style></defs><title>icon_design_white</title><path class="cls-1" d="M476.22,356.74H23.75c-.49,0-1,0-1.47-.05A20,20,0,0,1,5.22,344.58a20.52,20.52,0,0,1,3-21.25C38.36,286.55,43.72,280,44.51,279l1.81-2.5A3.52,3.52,0,0,1,49.18,275l402.13.05a3.56,3.56,0,0,1,2.76,1.32l37.86,47a20.57,20.57,0,0,1,2.81,21.23,20.05,20.05,0,0,1-17,12.05C477.2,356.72,476.71,356.74,476.22,356.74Zm-16.5-35.58-15.25-24.41a3.52,3.52,0,0,0-3-1.67H59a3.55,3.55,0,0,0-2.83,1.42L37.76,321.16c-2,3.35,2.43,7.53,6.32,7.54H178a3.54,3.54,0,0,1,3.54,3.54v2a9.54,9.54,0,0,0,9.54,9.54H308.78a11.53,11.53,0,0,0,11.53-11.54h0a3.55,3.55,0,0,1,3.54-3.54H448.3C455,328.7,463.13,326.91,459.72,321.16Z" transform="translate(-3.51 -6.76)"/><path class="cls-2" d="M63.81,10H429.13a10,10,0,0,1,10,10V278.17a0,0,0,0,1,0,0H53.81a0,0,0,0,1,0,0V20a10,10,0,0,1,10-10Z"/><g id="Layer_3" data-name="Layer 3"><circle class="cls-1" cx="248.91" cy="126.09" r="5.44"/><path class="cls-3" d="M206.36,179.24l71-21,18.9-36L266.34,90,229,106.11l-26.28,69.18Z" transform="translate(-3.51 -6.76)"/><rect class="cls-1" x="267.25" y="89.03" width="48.98" height="14.55" rx="2.96" transform="translate(159.97 -189.63) rotate(47.06)"/><line class="cls-4" x1="250.37" y1="124.72" x2="201.02" y2="170.5"/><path class="cls-1" d="M385,31.78m-.32.3-70.3,65.43L292.16,73.65l44.65-41.56h-7.32l-42,39.11a3.24,3.24,0,0,0-.17,4.57l24.62,26.45a3.24,3.24,0,0,0,4.57.17l76.36-70.3Z" transform="translate(-3.51 -6.76)"/></g><g id="Layer_5" data-name="Layer 5"><rect class="cls-1" x="237.5" y="201.22" width="10.89" height="10.89" rx="1.95" transform="translate(253.43 518.55) rotate(-132.9)"/><rect class="cls-1" x="168" y="198.93" width="10.89" height="10.89" rx="1.95" transform="translate(138.3 463.79) rotate(-132.9)"/><rect class="cls-1" x="170.55" y="129.18" width="10.89" height="10.89" rx="1.95" transform="translate(193.68 348.44) rotate(-132.9)"/><line class="cls-5" x1="218.53" y1="249.91" x2="121.34" y2="145.32"/><circle class="cls-1" cx="218.53" cy="249.91" r="3.94"/><circle class="cls-1" cx="121.34" cy="145.32" r="3.94"/><path class="cls-5" d="M243.19,206.93A49.35,49.35,0,0,1,176,134.63" transform="translate(-3.51 -6.76)"/><line class="cls-6" x1="76.32" y1="30.79" x2="152.84" y2="30.79"/><line class="cls-6" x1="74.32" y1="28.28" x2="74.32" y2="67.4"/><line class="cls-6" x1="74.32" y1="75.52" x2="74.32" y2="92.19"/><line class="cls-6" x1="414.37" y1="232.36" x2="414.37" y2="251.96"/><line class="cls-6" x1="416.86" y1="253.85" x2="333.37" y2="253.85"/><line class="cls-6" x1="414.43" y1="183.68" x2="414.43" y2="219.68"/></g></svg>