<svg id="attempt1_copy_4" data-name="attempt1 copy 4" xmlns="http://www.w3.org/2000/svg" viewBox="0 0 358.82 161.17"><defs><style>.cls-1{fill:none;stroke:#353535;stroke-linecap:round;stroke-miterlimit:10;stroke-width:6px;}.cls-2{fill:#c1c1c1;}</style></defs><title>logo_grey_noTag</title><g id="_copy_4" data-name="{ } copy 4"><line class="cls-1" x1="33.37" y1="139.61" x2="78.8" y2="139.61"/><line class="cls-1" x1="33.37" y1="148.89" x2="78.8" y2="148.89"/><line class="cls-1" x1="66.37" y1="158.17" x2="45.8" y2="158.17"/><line class="cls-1" x1="79.54" y1="130.2" x2="32.63" y2="130.2"/><path class="cls-2" d="M26.7,7.44a5,5,0,0,0-4.82,3,13.86,13.86,0,0,0-1.51,6.42V40.28c0,2-.05,3.92-.15,5.84A17.29,17.29,0,0,1,19,51.7a18.17,18.17,0,0,1-3.65,5.9,13.39,13.39,0,0,1-5,3.47,2.19,2.19,0,0,1,1.36.7,7,7,0,0,0,1.27,1c.39.35.78.67,1.17,1a5.54,5.54,0,0,1,1.07,1.09,22.61,22.61,0,0,1,3,5,21.67,21.67,0,0,1,1.71,5.77,42.23,42.23,0,0,1,.44,6.16v25a15.07,15.07,0,0,0,1.36,6.41,5,5,0,0,0,5,2.95H41.92a3.86,3.86,0,0,1,4,3.72h0a3.85,3.85,0,0,1-4,3.72H26.7a9.89,9.89,0,0,1-5-1.34,13.53,13.53,0,0,1-4-3.59A18.21,18.21,0,0,1,15,113.28a20.64,20.64,0,0,1-1-6.54V79.28a23.69,23.69,0,0,0-.39-2.82,13.76,13.76,0,0,0-1.81-4.55,15.49,15.49,0,0,0-4.19-4.43,11.63,11.63,0,0,0-3.8-1.79A4.9,4.9,0,0,1,0,61.08v-.47A4.9,4.9,0,0,1,3.92,56a13.15,13.15,0,0,0,3.73-1.51,14.37,14.37,0,0,0,4.19-3.72A9.84,9.84,0,0,0,13.59,47c.23-1.16.35-1.82.35-2V16.81a20.75,20.75,0,0,1,1-6.55,18.15,18.15,0,0,1,2.73-5.32,13.27,13.27,0,0,1,4-3.59A9.8,9.8,0,0,1,26.7,0h22a3.86,3.86,0,0,1,4,3.72h0a3.85,3.85,0,0,1-4,3.72Z" transform="translate(0 0)"/><path class="cls-2" d="M63.53,7.44a3.85,3.85,0,0,1-4-3.72h0a3.86,3.86,0,0,1,4-3.72H85.47a9.8,9.8,0,0,1,5,1.35,13.27,13.27,0,0,1,4,3.59,18.15,18.15,0,0,1,2.73,5.32,20.75,20.75,0,0,1,1,6.55V45c0,.17.12.83.34,2a10,10,0,0,0,1.76,3.72,14.37,14.37,0,0,0,4.19,3.72A13.15,13.15,0,0,0,108.25,56a4.91,4.91,0,0,1,3.92,4.64v.47a4.9,4.9,0,0,1-3.75,4.61,11.63,11.63,0,0,0-3.8,1.79,15.35,15.35,0,0,0-4.19,4.43,13.76,13.76,0,0,0-1.81,4.55,21.65,21.65,0,0,0-.39,2.82v27.46a20.64,20.64,0,0,1-1,6.54,18.21,18.21,0,0,1-2.73,5.33,13.53,13.53,0,0,1-4,3.59,9.89,9.89,0,0,1-5,1.34H72.25a3.85,3.85,0,0,1-4-3.72h0a3.86,3.86,0,0,1,4-3.72H85.47a5,5,0,0,0,5-2.95,15.07,15.07,0,0,0,1.36-6.41v-25a42.23,42.23,0,0,1,.44-6.16A21.67,21.67,0,0,1,94,69.79a22.61,22.61,0,0,1,3-5A5.54,5.54,0,0,1,98,63.7c.39-.3.78-.62,1.17-1a6.63,6.63,0,0,0,1.26-1,2.23,2.23,0,0,1,1.37-.7,13.39,13.39,0,0,1-5-3.47,18.17,18.17,0,0,1-3.65-5.9A17.29,17.29,0,0,1,92,46.12c-.1-1.92-.15-3.87-.15-5.84V16.81a13.86,13.86,0,0,0-1.51-6.42,5,5,0,0,0-4.82-2.95Z" transform="translate(0 0)"/></g><g id="JH_copy_4" data-name="JH copy 4"><line class="cls-2" x1="45.71" y1="60.68" x2="63.7" y2="58.89"/></g><g id="Layer_8_copy_4" data-name="Layer 8 copy 4"><path d="M159.45,25a2,2,0,0,1,2,2V56.36a22,22,0,0,1-.18,2.82,14.85,14.85,0,0,1-.62,2.76,11.13,11.13,0,0,1-1.26,2.63A14.17,14.17,0,0,1,154.82,69,11.28,11.28,0,0,1,149,70.59a10.44,10.44,0,0,1-4.33-.91A13,13,0,0,1,141,67.2a14.5,14.5,0,0,1-2.74-3.64,15.32,15.32,0,0,1-1-2.41,2,2,0,0,1,1.26-2.55l1.81-.59a2,2,0,0,1,2.49,1.23c.1.25.21.49.33.73a9,9,0,0,0,1.5,2.19,6.47,6.47,0,0,0,2,1.49,5.52,5.52,0,0,0,2.38.54,5.11,5.11,0,0,0,2.5-.6A5.89,5.89,0,0,0,153.37,62a8.3,8.3,0,0,0,1.24-2.28,13,13,0,0,0,.65-2.63,11.62,11.62,0,0,0,.08-1.33c0-.68,0-1.54,0-2.57V45.55c0-2.29,0-4.63,0-7s0-4.63,0-6.66V27a2,2,0,0,1,2-2Z" transform="translate(0 0)"/><path d="M192.5,27v2a2,2,0,0,1-2,2H175.14a2,2,0,0,0-2,2v8.26a2,2,0,0,0,2,2H188.4a2,2,0,0,1,2,2v2.17a2,2,0,0,1-2,2H175.14a2,2,0,0,0-2,2V61.82a2,2,0,0,0,2,2h15.37a2,2,0,0,1,2,2V68a2,2,0,0,1-2,2H169a2,2,0,0,1-2-2V27a2,2,0,0,1,2-2h21.55A2,2,0,0,1,192.5,27Z" transform="translate(0 0)"/><path d="M226.22,27v2a2,2,0,0,1-2,2h-18a2,2,0,0,0-2,2v8.26a2,2,0,0,0,2,2h16a2,2,0,0,1,2,2v2.17a2,2,0,0,1-2,2h-16a2,2,0,0,0-2,2V68a2,2,0,0,1-2,2H200a2,2,0,0,1-2-2V27a2,2,0,0,1,2-2h24.2A2,2,0,0,1,226.22,27Z" transform="translate(0 0)"/><path d="M256.76,27v2a2,2,0,0,1-2,2h-18a2,2,0,0,0-2,2v8.26a2,2,0,0,0,2,2h16a2,2,0,0,1,2,2v2.17a2,2,0,0,1-2,2h-16a2,2,0,0,0-2,2V68a2,2,0,0,1-2,2h-2.2a2,2,0,0,1-2-2V27a2,2,0,0,1,2-2h24.2A2,2,0,0,1,256.76,27Z" transform="translate(0 0)"/><path d="M291.62,70h-4.73a2,2,0,0,1-1.65-.87L273.3,51.43a2,2,0,0,0-1.65-.87H267.4a2,2,0,0,0-2,2V68a2,2,0,0,1-2,2h-2.19a2,2,0,0,1-2-2V27a2,2,0,0,1,2-2h14.95a11.16,11.16,0,0,1,4.68,1,12.38,12.38,0,0,1,3.83,2.73,13.08,13.08,0,0,1,2.56,4,13.71,13.71,0,0,1,.29,9.16,12.87,12.87,0,0,1-1.79,3.55A12.58,12.58,0,0,1,283,48.24a10.87,10.87,0,0,1-1.32.84A2,2,0,0,0,281,52l11.49,16.39A1,1,0,0,1,291.62,70ZM276.18,44.34a5.37,5.37,0,0,0,2.36-.54,6.15,6.15,0,0,0,1.91-1.42,6.71,6.71,0,0,0,1.26-2.13,7.18,7.18,0,0,0,.47-2.63,6.94,6.94,0,0,0-.47-2.6,7.14,7.14,0,0,0-1.26-2.12A6.16,6.16,0,0,0,277.21,31a2.31,2.31,0,0,0-.52-.06H267.4a2,2,0,0,0-2,2V42.4a2,2,0,0,0,2,2Z" transform="translate(0 0)"/><path d="M322,27v2a2,2,0,0,1-2,2H304.65a2,2,0,0,0-2,2v8.26a2,2,0,0,0,2,2h13.27a2,2,0,0,1,2,2v2.17a2,2,0,0,1-2,2H304.65a2,2,0,0,0-2,2V61.82a2,2,0,0,0,2,2H320a2,2,0,0,1,2,2V68a2,2,0,0,1-2,2H298.47a2,2,0,0,1-2-2V27a2,2,0,0,1,2-2H320A2,2,0,0,1,322,27Z" transform="translate(0 0)"/><path d="M339.21,48.43,326.66,28a2,2,0,0,1,1.69-3H331a2,2,0,0,1,1.7.94l8.14,13.19a2,2,0,0,0,3.38,0l8.14-13.19a2,2,0,0,1,1.7-.94h2.74a2,2,0,0,1,1.69,3L346,48.43a2,2,0,0,0-.29,1V68a2,2,0,0,1-2,2h-2.2a2,2,0,0,1-2-2V49.47A2,2,0,0,0,339.21,48.43Z" transform="translate(0 0)"/><path d="M175.32,93h1.55a2,2,0,0,1,2,2v41a2,2,0,0,1-2,2h-1.55a2,2,0,0,1-2-2V119.38a2,2,0,0,0-2-2H154.45a2,2,0,0,0-2,2V136a2,2,0,0,1-2,2h-1.55a2,2,0,0,1-2-2V95a2,2,0,0,1,2-2h1.55a2,2,0,0,1,2,2v14.22a2,2,0,0,0,2,2h16.89a2,2,0,0,0,2-2V95A2,2,0,0,1,175.32,93Z" transform="translate(0 0)"/><path d="M210,95v2a2,2,0,0,1-2,2H192.61a2,2,0,0,0-2,2v8.25a2,2,0,0,0,2,2h13.27a2,2,0,0,1,2,2v2.18a2,2,0,0,1-2,2H192.61a2,2,0,0,0-2,2v10.47a2,2,0,0,0,2,2H208a2,2,0,0,1,2,2V136a2,2,0,0,1-2,2H186.44a2,2,0,0,1-2-2V95a2,2,0,0,1,2-2H208A2,2,0,0,1,210,95Z" transform="translate(0 0)"/><path d="M215.69,136V95a2,2,0,0,1,2-2h2.2a2,2,0,0,1,2,2v34.83a2,2,0,0,0,2,2h15.32a2,2,0,0,1,2,2V136a2,2,0,0,1-2,2h-21.5A2,2,0,0,1,215.69,136Z" transform="translate(0 0)"/><path d="M244.7,136V95a2,2,0,0,1,2-2h12.82a17.31,17.31,0,0,1,8,1.78,16.82,16.82,0,0,1,5.79,4.82,21.68,21.68,0,0,1,3.52,7.16,30.85,30.85,0,0,1,1.21,8.76,29.67,29.67,0,0,1-1.26,8.78,24,24,0,0,1-3.5,7.13,16.58,16.58,0,0,1-9.46,6.47,2.24,2.24,0,0,1-.52.06H246.69A2,2,0,0,1,244.7,136Zm14.6-4.16a11.39,11.39,0,0,0,5.7-1.33,11.61,11.61,0,0,0,3.89-3.55,15.22,15.22,0,0,0,2.23-5.2,26.93,26.93,0,0,0,.71-6.21,27.34,27.34,0,0,0-.71-6.25,16.41,16.41,0,0,0-2.2-5.3,10.93,10.93,0,0,0-9.62-5h-6.43a2,2,0,0,0-2,2v28.86a2,2,0,0,0,2,2Z" transform="translate(0 0)"/><path d="M308.67,95v2a2,2,0,0,1-2,2H291.3a2,2,0,0,0-2,2v8.25a2,2,0,0,0,2,2h13.26a2,2,0,0,1,2,2v2.18a2,2,0,0,1-2,2H291.3a2,2,0,0,0-2,2v10.47a2,2,0,0,0,2,2h15.38a2,2,0,0,1,2,2V136a2,2,0,0,1-2,2H285.12a2,2,0,0,1-2-2V95a2,2,0,0,1,2-2h21.56A2,2,0,0,1,308.67,95Z" transform="translate(0 0)"/><path d="M346.7,138H342a2,2,0,0,1-1.65-.87l-11.94-17.66a2,2,0,0,0-1.65-.87h-4.25a2,2,0,0,0-2,2V136a2,2,0,0,1-2,2h-2.19a2,2,0,0,1-2-2V95a2,2,0,0,1,2-2h14.95a11,11,0,0,1,4.68,1,12.06,12.06,0,0,1,3.83,2.73,12.85,12.85,0,0,1,2.56,4,13.74,13.74,0,0,1,.29,9.17,12.55,12.55,0,0,1-4.53,6.31,11.33,11.33,0,0,1-1.32.84A2,2,0,0,0,336,120c2.79,4,9,12.8,11.49,16.39A1,1,0,0,1,346.7,138Zm-15.44-25.61a5.37,5.37,0,0,0,2.36-.54,6.18,6.18,0,0,0,1.91-1.43,6.61,6.61,0,0,0,1.26-2.13,7.18,7.18,0,0,0,.48-2.63,7,7,0,0,0-.48-2.6,7.14,7.14,0,0,0-1.26-2.12A6.23,6.23,0,0,0,332.3,99a2.31,2.31,0,0,0-.52-.06h-9.3a2,2,0,0,0-2,2v9.52a2,2,0,0,0,2,2Z" transform="translate(0 0)"/><path d="M46,63.67a13.22,13.22,0,0,1-4.26,2.49A10.55,10.55,0,0,1,36,66.5a9.64,9.64,0,0,1-3.84-1.73,12.15,12.15,0,0,1-2.9-3.08,13.85,13.85,0,0,1-1.81-4c-.1-.33-.18-.66-.25-1a3.16,3.16,0,0,1,2.56-3.8h0a2.72,2.72,0,0,1,2.91,2.23l0,.12a8.8,8.8,0,0,0,1,2.38,6.2,6.2,0,0,0,1.59,1.82,5.06,5.06,0,0,0,2.11,1,4.7,4.7,0,0,0,2.45-.08,5.54,5.54,0,0,0,2-1.14,8.08,8.08,0,0,0,1.62-1.92,12.65,12.65,0,0,0,1.14-2.38,11.81,11.81,0,0,0,.35-1.25c.15-.64.34-1.45.55-2.44l.71-3.35L47,43.94c.46-2.18.93-4.41,1.4-6.71s.91-4.41,1.33-6.34l2.88-13.48a3.08,3.08,0,0,1,3.52-2.53h0a3.08,3.08,0,0,1,2.19,3.75l-7.26,34-.6,2.8c-.13.62-.29,1.22-.47,1.81l14-1.32h0c1.17.25,2.64,1.67,2.32,3.16L63.14,74.17l12.81-1,4.68-21.65a3.32,3.32,0,0,1,3.47-2.24h0c1.17.25,2.64,1.67,2.33,3.16L76.74,97.52a3.3,3.3,0,0,1-3.47,2.23h0c-1.17-.25-2.64-1.67-2.32-3.16l3.72-17.44-12.82,1-6.69,27.65a3.3,3.3,0,0,1-3.47,2.23h0c-1.17-.25-2.63-1.67-2.32-3.16L59.61,62.31Z" transform="translate(0 0)"/></g></svg>