<svg id="attempt1_copy_4" data-name="attempt1 copy 4" xmlns="http://www.w3.org/2000/svg" viewBox="0 0 112.17 161.17"><defs><style>.cls-1{fill:none;stroke:#606161;stroke-linecap:round;stroke-miterlimit:10;stroke-width:6px;}.cls-2{fill:#ffc70a;}</style></defs><title>logo_icon_colour</title><g id="_copy_4" data-name="{ } copy 4"><line class="cls-1" x1="33.37" y1="139.61" x2="78.8" y2="139.61"/><line class="cls-1" x1="33.37" y1="148.89" x2="78.8" y2="148.89"/><line class="cls-1" x1="66.37" y1="158.17" x2="45.8" y2="158.17"/><line class="cls-1" x1="79.54" y1="130.2" x2="32.63" y2="130.2"/><path class="cls-2" d="M26.7,7.44a5,5,0,0,0-4.82,3,13.86,13.86,0,0,0-1.51,6.42V40.28c0,2-.05,3.92-.15,5.84A17.29,17.29,0,0,1,19,51.7a18.17,18.17,0,0,1-3.65,5.9,13.39,13.39,0,0,1-5,3.47,2.19,2.19,0,0,1,1.36.7,7,7,0,0,0,1.27,1c.39.35.78.67,1.17,1a5.54,5.54,0,0,1,1.07,1.09,22.61,22.61,0,0,1,3,5,21.67,21.67,0,0,1,1.71,5.77,42.23,42.23,0,0,1,.44,6.16v25a15.07,15.07,0,0,0,1.36,6.41,5,5,0,0,0,5,2.95H41.92a3.86,3.86,0,0,1,4,3.72h0a3.85,3.85,0,0,1-4,3.72H26.7a9.89,9.89,0,0,1-5-1.34,13.53,13.53,0,0,1-4-3.59A18.21,18.21,0,0,1,15,113.28a20.64,20.64,0,0,1-1-6.54V79.28a23.69,23.69,0,0,0-.39-2.82,13.76,13.76,0,0,0-1.81-4.55,15.49,15.49,0,0,0-4.19-4.43,11.63,11.63,0,0,0-3.8-1.79A4.9,4.9,0,0,1,0,61.08v-.47A4.9,4.9,0,0,1,3.92,56a13.15,13.15,0,0,0,3.73-1.51,14.37,14.37,0,0,0,4.19-3.72A9.84,9.84,0,0,0,13.59,47c.23-1.16.35-1.82.35-2V16.81a20.75,20.75,0,0,1,1-6.55,18.15,18.15,0,0,1,2.73-5.32,13.27,13.27,0,0,1,4-3.59A9.8,9.8,0,0,1,26.7,0h22a3.86,3.86,0,0,1,4,3.72h0a3.85,3.85,0,0,1-4,3.72Z" transform="translate(0 0)"/><path class="cls-2" d="M63.53,7.44a3.85,3.85,0,0,1-4-3.72h0a3.86,3.86,0,0,1,4-3.72H85.47a9.8,9.8,0,0,1,5,1.35,13.27,13.27,0,0,1,4,3.59,18.15,18.15,0,0,1,2.73,5.32,20.75,20.75,0,0,1,1,6.55V45c0,.17.12.83.34,2a10,10,0,0,0,1.76,3.72,14.37,14.37,0,0,0,4.19,3.72A13.15,13.15,0,0,0,108.25,56a4.91,4.91,0,0,1,3.92,4.64v.47a4.9,4.9,0,0,1-3.75,4.61,11.63,11.63,0,0,0-3.8,1.79,15.35,15.35,0,0,0-4.19,4.43,13.76,13.76,0,0,0-1.81,4.55,21.65,21.65,0,0,0-.39,2.82v27.46a20.64,20.64,0,0,1-1,6.54,18.21,18.21,0,0,1-2.73,5.33,13.53,13.53,0,0,1-4,3.59,9.89,9.89,0,0,1-5,1.34H72.25a3.85,3.85,0,0,1-4-3.72h0a3.86,3.86,0,0,1,4-3.72H85.47a5,5,0,0,0,5-2.95,15.07,15.07,0,0,0,1.36-6.41v-25a42.23,42.23,0,0,1,.44-6.16A21.67,21.67,0,0,1,94,69.79a22.61,22.61,0,0,1,3-5A5.54,5.54,0,0,1,98,63.7c.39-.3.78-.62,1.17-1a6.63,6.63,0,0,0,1.26-1,2.23,2.23,0,0,1,1.37-.7,13.39,13.39,0,0,1-5-3.47,18.17,18.17,0,0,1-3.65-5.9A17.29,17.29,0,0,1,92,46.12c-.1-1.92-.15-3.87-.15-5.84V16.81a13.86,13.86,0,0,0-1.51-6.42,5,5,0,0,0-4.82-2.95Z" transform="translate(0 0)"/></g><g id="JH_copy_4" data-name="JH copy 4"><line class="cls-2" x1="45.71" y1="60.68" x2="63.7" y2="58.89"/></g><g id="Layer_8_copy_4" data-name="Layer 8 copy 4"><path d="M46,63.67a13.22,13.22,0,0,1-4.26,2.49A10.55,10.55,0,0,1,36,66.5a9.64,9.64,0,0,1-3.84-1.73,12.15,12.15,0,0,1-2.9-3.08,13.85,13.85,0,0,1-1.81-4c-.1-.33-.18-.66-.25-1a3.16,3.16,0,0,1,2.56-3.8h0a2.72,2.72,0,0,1,2.91,2.23l0,.12a8.8,8.8,0,0,0,1,2.38,6.2,6.2,0,0,0,1.59,1.82,5.06,5.06,0,0,0,2.11,1,4.7,4.7,0,0,0,2.45-.08,5.54,5.54,0,0,0,2-1.14,8.08,8.08,0,0,0,1.62-1.92,12.65,12.65,0,0,0,1.14-2.38,11.81,11.81,0,0,0,.35-1.25c.15-.64.34-1.45.55-2.44l.71-3.35L47,43.94c.46-2.18.93-4.41,1.4-6.71s.91-4.41,1.33-6.34l2.88-13.48a3.08,3.08,0,0,1,3.52-2.53h0a3.08,3.08,0,0,1,2.19,3.75l-7.26,34-.6,2.8c-.13.62-.29,1.22-.47,1.81l14-1.32h0c1.17.25,2.64,1.67,2.32,3.16L63.14,74.17l12.81-1,4.68-21.65a3.32,3.32,0,0,1,3.47-2.24h0c1.17.25,2.64,1.67,2.33,3.16L76.74,97.52a3.3,3.3,0,0,1-3.47,2.23h0c-1.17-.25-2.64-1.67-2.32-3.16l3.72-17.44-12.82,1-6.69,27.65a3.3,3.3,0,0,1-3.47,2.23h0c-1.17-.25-2.63-1.67-2.32-3.16L59.61,62.31Z" transform="translate(0 0)"/></g></svg>