<svg id="attempt1_copy_4" data-name="attempt1 copy 4" xmlns="http://www.w3.org/2000/svg" viewBox="0 0 358.82 161.47"><defs><style>.cls-1{fill:none;stroke:#606161;stroke-linecap:round;stroke-miterlimit:10;stroke-width:6px;}.cls-2{fill:#ffc70a;}.cls-3{fill:#010101;}.cls-4{fill:#606161;}</style></defs><title>logo_colour</title><g id="_copy_4" data-name="{ } copy 4"><line class="cls-1" x1="33.37" y1="139.61" x2="78.8" y2="139.61"/><line class="cls-1" x1="33.37" y1="148.89" x2="78.8" y2="148.89"/><line class="cls-1" x1="66.37" y1="158.17" x2="45.8" y2="158.17"/><line class="cls-1" x1="79.54" y1="130.2" x2="32.63" y2="130.2"/><path class="cls-2" d="M26.7,7.44a5,5,0,0,0-4.82,3,13.86,13.86,0,0,0-1.51,6.42V40.28c0,2-.05,3.92-.15,5.84A17.29,17.29,0,0,1,19,51.7a18.17,18.17,0,0,1-3.65,5.9,13.39,13.39,0,0,1-5,3.47,2.19,2.19,0,0,1,1.36.7,7,7,0,0,0,1.27,1c.39.35.78.67,1.17,1a5.54,5.54,0,0,1,1.07,1.09,22.61,22.61,0,0,1,3,5,21.67,21.67,0,0,1,1.71,5.77,42.23,42.23,0,0,1,.44,6.16v25a15.07,15.07,0,0,0,1.36,6.41,5,5,0,0,0,5,2.95H41.92a3.86,3.86,0,0,1,4,3.72h0a3.85,3.85,0,0,1-4,3.72H26.7a9.89,9.89,0,0,1-5-1.34,13.53,13.53,0,0,1-4-3.59A18.21,18.21,0,0,1,15,113.28a20.64,20.64,0,0,1-1-6.54V79.28a23.69,23.69,0,0,0-.39-2.82,13.76,13.76,0,0,0-1.81-4.55,15.49,15.49,0,0,0-4.19-4.43,11.63,11.63,0,0,0-3.8-1.79A4.9,4.9,0,0,1,0,61.08v-.47A4.9,4.9,0,0,1,3.92,56a13.15,13.15,0,0,0,3.73-1.51,14.37,14.37,0,0,0,4.19-3.72A9.84,9.84,0,0,0,13.59,47c.23-1.16.35-1.82.35-2V16.81a20.75,20.75,0,0,1,1-6.55,18.15,18.15,0,0,1,2.73-5.32,13.27,13.27,0,0,1,4-3.59A9.8,9.8,0,0,1,26.7,0h22a3.86,3.86,0,0,1,4,3.72h0a3.85,3.85,0,0,1-4,3.72Z" transform="translate(0 0)"/><path class="cls-2" d="M63.53,7.44a3.85,3.85,0,0,1-4-3.72h0a3.86,3.86,0,0,1,4-3.72H85.47a9.8,9.8,0,0,1,5,1.35,13.27,13.27,0,0,1,4,3.59,18.15,18.15,0,0,1,2.73,5.32,20.75,20.75,0,0,1,1,6.55V45c0,.17.12.83.34,2a10,10,0,0,0,1.76,3.72,14.37,14.37,0,0,0,4.19,3.72A13.15,13.15,0,0,0,108.25,56a4.91,4.91,0,0,1,3.92,4.64v.47a4.9,4.9,0,0,1-3.75,4.61,11.63,11.63,0,0,0-3.8,1.79,15.35,15.35,0,0,0-4.19,4.43,13.76,13.76,0,0,0-1.81,4.55,21.65,21.65,0,0,0-.39,2.82v27.46a20.64,20.64,0,0,1-1,6.54,18.21,18.21,0,0,1-2.73,5.33,13.53,13.53,0,0,1-4,3.59,9.89,9.89,0,0,1-5,1.34H72.25a3.85,3.85,0,0,1-4-3.72h0a3.86,3.86,0,0,1,4-3.72H85.47a5,5,0,0,0,5-2.95,15.07,15.07,0,0,0,1.36-6.41v-25a42.23,42.23,0,0,1,.44-6.16A21.67,21.67,0,0,1,94,69.79a22.61,22.61,0,0,1,3-5A5.54,5.54,0,0,1,98,63.7c.39-.3.78-.62,1.17-1a6.63,6.63,0,0,0,1.26-1,2.23,2.23,0,0,1,1.37-.7,13.39,13.39,0,0,1-5-3.47,18.17,18.17,0,0,1-3.65-5.9A17.29,17.29,0,0,1,92,46.12c-.1-1.92-.15-3.87-.15-5.84V16.81a13.86,13.86,0,0,0-1.51-6.42,5,5,0,0,0-4.82-2.95Z" transform="translate(0 0)"/></g><g id="JH_copy_4" data-name="JH copy 4"><line class="cls-2" x1="45.71" y1="60.68" x2="63.7" y2="58.89"/></g><g id="Layer_8_copy_4" data-name="Layer 8 copy 4"><path class="cls-3" d="M159.45,5a2,2,0,0,1,2,2V36.36a22,22,0,0,1-.18,2.82,14.85,14.85,0,0,1-.62,2.76,11.13,11.13,0,0,1-1.26,2.63A14.17,14.17,0,0,1,154.82,49,11.28,11.28,0,0,1,149,50.59a10.44,10.44,0,0,1-4.33-.91A13,13,0,0,1,141,47.2a14.5,14.5,0,0,1-2.74-3.64,15.32,15.32,0,0,1-1-2.41,2,2,0,0,1,1.26-2.55l1.81-.59a2,2,0,0,1,2.49,1.23c.1.25.21.49.33.73a9,9,0,0,0,1.5,2.19,6.47,6.47,0,0,0,2,1.49,5.52,5.52,0,0,0,2.38.54,5.11,5.11,0,0,0,2.5-.6A5.89,5.89,0,0,0,153.37,42a8.3,8.3,0,0,0,1.24-2.28,13,13,0,0,0,.65-2.63,11.62,11.62,0,0,0,.08-1.33c0-.68,0-1.54,0-2.57V25.55c0-2.29,0-4.63,0-7s0-4.63,0-6.66V7a2,2,0,0,1,2-2Z" transform="translate(0 0)"/><path class="cls-3" d="M192.5,7V9a2,2,0,0,1-2,2H175.14a2,2,0,0,0-2,2v8.26a2,2,0,0,0,2,2H188.4a2,2,0,0,1,2,2v2.17a2,2,0,0,1-2,2H175.14a2,2,0,0,0-2,2V41.82a2,2,0,0,0,2,2h15.37a2,2,0,0,1,2,2V48a2,2,0,0,1-2,2H169a2,2,0,0,1-2-2V7a2,2,0,0,1,2-2h21.55A2,2,0,0,1,192.5,7Z" transform="translate(0 0)"/><path class="cls-3" d="M226.22,7V9a2,2,0,0,1-2,2h-18a2,2,0,0,0-2,2v8.26a2,2,0,0,0,2,2h16a2,2,0,0,1,2,2v2.17a2,2,0,0,1-2,2h-16a2,2,0,0,0-2,2V48a2,2,0,0,1-2,2H200a2,2,0,0,1-2-2V7a2,2,0,0,1,2-2h24.2A2,2,0,0,1,226.22,7Z" transform="translate(0 0)"/><path class="cls-3" d="M256.76,7V9a2,2,0,0,1-2,2h-18a2,2,0,0,0-2,2v8.26a2,2,0,0,0,2,2h16a2,2,0,0,1,2,2v2.17a2,2,0,0,1-2,2h-16a2,2,0,0,0-2,2V48a2,2,0,0,1-2,2h-2.2a2,2,0,0,1-2-2V7a2,2,0,0,1,2-2h24.2A2,2,0,0,1,256.76,7Z" transform="translate(0 0)"/><path class="cls-3" d="M291.62,50h-4.73a2,2,0,0,1-1.65-.87L273.3,31.43a2,2,0,0,0-1.65-.87H267.4a2,2,0,0,0-2,2V48a2,2,0,0,1-2,2h-2.19a2,2,0,0,1-2-2V7a2,2,0,0,1,2-2h14.95a11.16,11.16,0,0,1,4.68,1,12.38,12.38,0,0,1,3.83,2.73,13.08,13.08,0,0,1,2.56,4,13.71,13.71,0,0,1,.29,9.16,12.87,12.87,0,0,1-1.79,3.55A12.58,12.58,0,0,1,283,28.24a10.87,10.87,0,0,1-1.32.84A2,2,0,0,0,281,32l11.49,16.39A1,1,0,0,1,291.62,50ZM276.18,24.34a5.37,5.37,0,0,0,2.36-.54,6.15,6.15,0,0,0,1.91-1.42,6.71,6.71,0,0,0,1.26-2.13,7.18,7.18,0,0,0,.47-2.63,6.94,6.94,0,0,0-.47-2.6,7.14,7.14,0,0,0-1.26-2.12A6.16,6.16,0,0,0,277.21,11a2.31,2.31,0,0,0-.52-.06H267.4a2,2,0,0,0-2,2V22.4a2,2,0,0,0,2,2Z" transform="translate(0 0)"/><path class="cls-3" d="M322,7V9a2,2,0,0,1-2,2H304.65a2,2,0,0,0-2,2v8.26a2,2,0,0,0,2,2h13.27a2,2,0,0,1,2,2v2.17a2,2,0,0,1-2,2H304.65a2,2,0,0,0-2,2V41.82a2,2,0,0,0,2,2H320a2,2,0,0,1,2,2V48a2,2,0,0,1-2,2H298.47a2,2,0,0,1-2-2V7a2,2,0,0,1,2-2H320A2,2,0,0,1,322,7Z" transform="translate(0 0)"/><path class="cls-3" d="M339.21,28.43,326.66,8a2,2,0,0,1,1.69-3H331a2,2,0,0,1,1.7.94l8.14,13.19a2,2,0,0,0,3.38,0l8.14-13.19a2,2,0,0,1,1.7-.94h2.74a2,2,0,0,1,1.69,3L346,28.43a2,2,0,0,0-.29,1V48a2,2,0,0,1-2,2h-2.2a2,2,0,0,1-2-2V29.47A2,2,0,0,0,339.21,28.43Z" transform="translate(0 0)"/><path class="cls-3" d="M175.32,73h1.55a2,2,0,0,1,2,2v41a2,2,0,0,1-2,2h-1.55a2,2,0,0,1-2-2V99.38a2,2,0,0,0-2-2H154.45a2,2,0,0,0-2,2V116a2,2,0,0,1-2,2h-1.55a2,2,0,0,1-2-2V75a2,2,0,0,1,2-2h1.55a2,2,0,0,1,2,2V89.24a2,2,0,0,0,2,2h16.89a2,2,0,0,0,2-2V75A2,2,0,0,1,175.32,73Z" transform="translate(0 0)"/><path class="cls-3" d="M210,75v2a2,2,0,0,1-2,2H192.61a2,2,0,0,0-2,2v8.25a2,2,0,0,0,2,2h13.27a2,2,0,0,1,2,2V95.4a2,2,0,0,1-2,2H192.61a2,2,0,0,0-2,2v10.47a2,2,0,0,0,2,2H208a2,2,0,0,1,2,2V116a2,2,0,0,1-2,2H186.44a2,2,0,0,1-2-2V75a2,2,0,0,1,2-2H208A2,2,0,0,1,210,75Z" transform="translate(0 0)"/><path class="cls-3" d="M215.69,116V75a2,2,0,0,1,2-2h2.2a2,2,0,0,1,2,2v34.83a2,2,0,0,0,2,2h15.32a2,2,0,0,1,2,2V116a2,2,0,0,1-2,2h-21.5A2,2,0,0,1,215.69,116Z" transform="translate(0 0)"/><path class="cls-3" d="M244.7,116V75a2,2,0,0,1,2-2h12.82a17.31,17.31,0,0,1,8,1.78,16.82,16.82,0,0,1,5.79,4.82,21.68,21.68,0,0,1,3.52,7.16A30.85,30.85,0,0,1,278,95.55a29.67,29.67,0,0,1-1.26,8.78,24,24,0,0,1-3.5,7.13,16.58,16.58,0,0,1-9.46,6.47,2.24,2.24,0,0,1-.52.06H246.69A2,2,0,0,1,244.7,116Zm14.6-4.16a11.39,11.39,0,0,0,5.7-1.33,11.61,11.61,0,0,0,3.89-3.55,15.22,15.22,0,0,0,2.23-5.2,26.93,26.93,0,0,0,.71-6.21,27.34,27.34,0,0,0-.71-6.25,16.41,16.41,0,0,0-2.2-5.3,10.93,10.93,0,0,0-9.62-5h-6.43a2,2,0,0,0-2,2v28.86a2,2,0,0,0,2,2Z" transform="translate(0 0)"/><path class="cls-3" d="M308.67,75v2a2,2,0,0,1-2,2H291.3a2,2,0,0,0-2,2v8.25a2,2,0,0,0,2,2h13.26a2,2,0,0,1,2,2V95.4a2,2,0,0,1-2,2H291.3a2,2,0,0,0-2,2v10.47a2,2,0,0,0,2,2h15.38a2,2,0,0,1,2,2V116a2,2,0,0,1-2,2H285.12a2,2,0,0,1-2-2V75a2,2,0,0,1,2-2h21.56A2,2,0,0,1,308.67,75Z" transform="translate(0 0)"/><path class="cls-3" d="M346.7,118H342a2,2,0,0,1-1.65-.87L328.38,99.46a2,2,0,0,0-1.65-.87h-4.25a2,2,0,0,0-2,2V116a2,2,0,0,1-2,2h-2.19a2,2,0,0,1-2-2V75a2,2,0,0,1,2-2h14.95a11,11,0,0,1,4.68,1,12.06,12.06,0,0,1,3.83,2.73,12.85,12.85,0,0,1,2.56,4,13.74,13.74,0,0,1,.29,9.17,12.55,12.55,0,0,1-4.53,6.31,11.33,11.33,0,0,1-1.32.84A2,2,0,0,0,336,100c2.79,4,9,12.8,11.49,16.39A1,1,0,0,1,346.7,118ZM331.26,92.38a5.37,5.37,0,0,0,2.36-.54,6.18,6.18,0,0,0,1.91-1.43,6.61,6.61,0,0,0,1.26-2.13,7.18,7.18,0,0,0,.48-2.63,7,7,0,0,0-.48-2.6,7.14,7.14,0,0,0-1.26-2.12A6.23,6.23,0,0,0,332.3,79a2.31,2.31,0,0,0-.52-.06h-9.3a2,2,0,0,0-2,2v9.52a2,2,0,0,0,2,2Z" transform="translate(0 0)"/><path d="M46,63.67a13.22,13.22,0,0,1-4.26,2.49A10.55,10.55,0,0,1,36,66.5a9.64,9.64,0,0,1-3.84-1.73,12.15,12.15,0,0,1-2.9-3.08,13.85,13.85,0,0,1-1.81-4c-.1-.33-.18-.66-.25-1a3.16,3.16,0,0,1,2.56-3.8h0a2.72,2.72,0,0,1,2.91,2.23l0,.12a8.8,8.8,0,0,0,1,2.38,6.2,6.2,0,0,0,1.59,1.82,5.06,5.06,0,0,0,2.11,1,4.7,4.7,0,0,0,2.45-.08,5.54,5.54,0,0,0,2-1.14,8.08,8.08,0,0,0,1.62-1.92,12.65,12.65,0,0,0,1.14-2.38,11.81,11.81,0,0,0,.35-1.25c.15-.64.34-1.45.55-2.44l.71-3.35L47,43.94c.46-2.18.93-4.41,1.4-6.71s.91-4.41,1.33-6.34l2.88-13.48a3.08,3.08,0,0,1,3.52-2.53h0a3.08,3.08,0,0,1,2.19,3.75l-7.26,34-.6,2.8c-.13.62-.29,1.22-.47,1.81l14-1.32h0c1.17.25,2.64,1.67,2.32,3.16L63.14,74.17l12.81-1,4.68-21.65a3.32,3.32,0,0,1,3.47-2.24h0c1.17.25,2.64,1.67,2.33,3.16L76.74,97.52a3.3,3.3,0,0,1-3.47,2.23h0c-1.17-.25-2.64-1.67-2.32-3.16l3.72-17.44-12.82,1-6.69,27.65a3.3,3.3,0,0,1-3.47,2.23h0c-1.17-.25-2.63-1.67-2.32-3.16L59.61,62.31Z" transform="translate(0 0)"/></g><path class="cls-4" d="M119.85,139.75l-2.47,15.72a.9.9,0,0,1-.89.76h-1.08l-.31-1.2a6.35,6.35,0,0,1-1.74,1.09,5.35,5.35,0,0,1-2.1.4,4.74,4.74,0,0,1-2.14-.47,4.39,4.39,0,0,1-1.55-1.28,5.09,5.09,0,0,1-.86-1.92,6.19,6.19,0,0,1-.06-2.36,7.25,7.25,0,0,1,.79-2.35,7.57,7.57,0,0,1,1.48-1.92,6.79,6.79,0,0,1,2-1.28,5.71,5.71,0,0,1,2.28-.47,4.55,4.55,0,0,1,2,.4,3.78,3.78,0,0,1,1.37,1.11l1-6.51a.89.89,0,0,1,.89-.76h.5A.89.89,0,0,1,119.85,139.75Zm-8.09,14.7a4,4,0,0,0,1.38-.24,3.55,3.55,0,0,0,1.2-.73,4.31,4.31,0,0,0,.92-1.23,5.27,5.27,0,0,0,.53-1.76,5.61,5.61,0,0,0,0-1.82,2.75,2.75,0,0,0-.53-1.21,2.13,2.13,0,0,0-1-.67,3.91,3.91,0,0,0-1.31-.21,3.32,3.32,0,0,0-1.37.3,4.14,4.14,0,0,0-1.21.83,4.62,4.62,0,0,0-.91,1.25,5.43,5.43,0,0,0-.52,1.53,4.65,4.65,0,0,0,0,1.54,3.4,3.4,0,0,0,.53,1.26,2.86,2.86,0,0,0,1,.85A2.56,2.56,0,0,0,111.76,154.45Z" transform="translate(0 0)"/><path class="cls-4" d="M124.46,156.52a5.39,5.39,0,0,1-2.27-.47,4.87,4.87,0,0,1-1.71-1.28,5.14,5.14,0,0,1-1-1.92,5.62,5.62,0,0,1-.11-2.36,6.86,6.86,0,0,1,.82-2.35,7.92,7.92,0,0,1,1.51-1.92,7,7,0,0,1,2-1.28,5.58,5.58,0,0,1,2.23-.47,5.26,5.26,0,0,1,2.11.41,3.49,3.49,0,0,1,1.53,1.27,5.4,5.4,0,0,1,.79,2.2,9.59,9.59,0,0,1,0,2.35.92.92,0,0,1-.9.83h-7.75a3.53,3.53,0,0,0,.34,1.16,3,3,0,0,0,.69.94,3.32,3.32,0,0,0,1,.61,3.6,3.6,0,0,0,1.25.21,4.73,4.73,0,0,0,1.75-.33,5.79,5.79,0,0,0,.86-.44.88.88,0,0,1,1.14.19l.06.06a.91.91,0,0,1-.19,1.35,8.55,8.55,0,0,1-1.45.73A7.31,7.31,0,0,1,124.46,156.52Zm1.12-9.94a2.78,2.78,0,0,0-1.08.22,3.85,3.85,0,0,0-1,.6,4.72,4.72,0,0,0-.87.91,5.3,5.3,0,0,0-.62,1.15h6.07a3.64,3.64,0,0,0-.11-1.1,2.5,2.5,0,0,0-.44-.93,2.21,2.21,0,0,0-.79-.62A2.73,2.73,0,0,0,125.58,146.58Z" transform="translate(0 0)"/><path class="cls-4" d="M136.38,153.83a2.76,2.76,0,0,0,.47-.43,1.06,1.06,0,0,0,.25-.55.73.73,0,0,0-.16-.65,2,2,0,0,0-.62-.45,3.43,3.43,0,0,0-.78-.27l-.69-.17a9.09,9.09,0,0,1-1.42-.47,4.09,4.09,0,0,1-1.1-.67,2.3,2.3,0,0,1-.67-.94,2.32,2.32,0,0,1-.1-1.28,2.91,2.91,0,0,1,.53-1.31,4.61,4.61,0,0,1,1.08-1.08,5.36,5.36,0,0,1,1.45-.74,4.83,4.83,0,0,1,1.64-.28,4.28,4.28,0,0,1,1.4.22,3.48,3.48,0,0,1,1.11.6,3,3,0,0,1,.76.9,2.76,2.76,0,0,1,.31,1.19l-1.39.32a.89.89,0,0,1-1-.41,1.28,1.28,0,0,0-.29-.37,1.79,1.79,0,0,0-1.26-.38,2.23,2.23,0,0,0-.61.08,2.78,2.78,0,0,0-.62.25,2,2,0,0,0-.5.41,1,1,0,0,0-.26.55.78.78,0,0,0,.1.57,1.31,1.31,0,0,0,.44.4,3,3,0,0,0,.58.25l.58.17a12.52,12.52,0,0,1,2,.67,4.22,4.22,0,0,1,1.22.79,1.91,1.91,0,0,1,.55.94,3.18,3.18,0,0,1,0,1.16,3.53,3.53,0,0,1-.58,1.44,4.37,4.37,0,0,1-1.15,1.16,5.46,5.46,0,0,1-1.59.77,6.36,6.36,0,0,1-1.87.27,4.26,4.26,0,0,1-2.54-.73,3,3,0,0,1-1-1.09.87.87,0,0,1,.47-1.19l.55-.23a.93.93,0,0,1,1.12.37,1.53,1.53,0,0,0,.48.44,2.74,2.74,0,0,0,1.32.3A2.78,2.78,0,0,0,136.38,153.83Z" transform="translate(0 0)"/><path class="cls-4" d="M141.54,156.23H141a.89.89,0,0,1-.88-1l1.51-9.7a.91.91,0,0,1,.89-.76H143a.91.91,0,0,1,.89,1l-1.5,9.7A.9.9,0,0,1,141.54,156.23Zm1.8-14a1.25,1.25,0,0,1-1.25-1.51,1.76,1.76,0,0,1,.6-1.06,1.7,1.7,0,0,1,1.13-.43,1.21,1.21,0,0,1,1,.43,1.29,1.29,0,0,1,.26,1.06,1.85,1.85,0,0,1-.61,1.06A1.61,1.61,0,0,1,143.34,142.24Z" transform="translate(0 0)"/><path class="cls-4" d="M149.13,155.65a4.9,4.9,0,0,1-2.14-.44,4.39,4.39,0,0,1-2.43-3,5.3,5.3,0,0,1-.06-2.18,6,6,0,0,1,.75-2.16,7,7,0,0,1,1.44-1.76,6.7,6.7,0,0,1,1.93-1.19,6,6,0,0,1,2.28-.43,5.17,5.17,0,0,1,2,.36,3.63,3.63,0,0,1,1.4,1l.38-.67a.91.91,0,0,1,.78-.46h1.31a.8.8,0,0,0,0,.18l-.06.42c0,.21-.08.51-.13.89s-.14.91-.24,1.59-.24,1.51-.4,2.52-.35,2.23-.57,3.67c-.08.48-.17.95-.27,1.4a7.19,7.19,0,0,1-.39,1.32,6.91,6.91,0,0,1-.65,1.23,6.48,6.48,0,0,1-1,1.14,5.92,5.92,0,0,1-2.4,1.35,9.9,9.9,0,0,1-2.61.35,8,8,0,0,1-2.13-.28,7.73,7.73,0,0,1-1.09-.42.91.91,0,0,1-.52-1l.31-2a2.58,2.58,0,0,0,1.32,1.12,5.37,5.37,0,0,0,2.25.44,5.93,5.93,0,0,0,1.65-.23,4.65,4.65,0,0,0,1.41-.7,4.09,4.09,0,0,0,1.07-1.22,5.17,5.17,0,0,0,.6-1.79l.07-.46a4.9,4.9,0,0,1-.79.51,6.4,6.4,0,0,1-1,.42,9.77,9.77,0,0,1-1.06.29A5.33,5.33,0,0,1,149.13,155.65Zm1.21-9.05-.18,0a4.31,4.31,0,0,0-2.84,2,3.41,3.41,0,0,0-.47,1.34,3.09,3.09,0,0,0,.05,1.36,2.67,2.67,0,0,0,.56,1.1,2.88,2.88,0,0,0,1,.75,3,3,0,0,0,1.27.27,4.33,4.33,0,0,0,1.35-.21,3.73,3.73,0,0,0,1.17-.65,4,4,0,0,0,.9-1.08,4.51,4.51,0,0,0,.52-1.54,4,4,0,0,0,0-1.59,2.34,2.34,0,0,0-.57-1.07,2.27,2.27,0,0,0-1-.59A4.6,4.6,0,0,0,150.34,146.6Z" transform="translate(0 0)"/><path class="cls-4" d="M158.41,156.23h-.5a.89.89,0,0,1-.89-1l1.52-9.7a.89.89,0,0,1,.88-.76h1.08l.34,1a6,6,0,0,1,1.54-.91,4.65,4.65,0,0,1,1.82-.36,5.56,5.56,0,0,1,1.38.19,3.42,3.42,0,0,1,1.37.72,3.28,3.28,0,0,1,.92,1.47,5.14,5.14,0,0,1,.07,2.42l-1,6.2a.89.89,0,0,1-.89.76h-.38a.9.9,0,0,1-.89-1l.94-5.94a2.73,2.73,0,0,0,0-1.26,1.81,1.81,0,0,0-1.25-1.28,3.56,3.56,0,0,0-.94-.13,3.24,3.24,0,0,0-.9.15,3.34,3.34,0,0,0-1,.46,3.7,3.7,0,0,0-.86.82,2.38,2.38,0,0,0-.48,1.21l-1,6.25A.89.89,0,0,1,158.41,156.23Z" transform="translate(0 0)"/><path class="cls-4" d="M180,138.3h0a.8.8,0,0,1,.79.81v21.56a.8.8,0,0,1-.79.8h0a.8.8,0,0,1-.79-.8V139.11A.8.8,0,0,1,180,138.3Z" transform="translate(0 0)"/><path class="cls-4" d="M205.47,139.8,203,155.43a.94.94,0,0,1-.93.8h-1l-.32-1.2a6.16,6.16,0,0,1-1.73,1.09,5.36,5.36,0,0,1-2.11.4,4.73,4.73,0,0,1-2.13-.47,4.39,4.39,0,0,1-1.55-1.28,5.09,5.09,0,0,1-.86-1.92,6.19,6.19,0,0,1-.06-2.36,7.25,7.25,0,0,1,.79-2.35,7.57,7.57,0,0,1,1.48-1.92,6.79,6.79,0,0,1,1.95-1.28,5.71,5.71,0,0,1,2.28-.47,4.55,4.55,0,0,1,2,.4,3.78,3.78,0,0,1,1.37,1.11l1-6.47a.94.94,0,0,1,.93-.8h.42A.94.94,0,0,1,205.47,139.8Zm-8.08,14.65a4,4,0,0,0,1.38-.24,3.55,3.55,0,0,0,1.2-.73,4.31,4.31,0,0,0,.92-1.23,5.27,5.27,0,0,0,.53-1.76,5.61,5.61,0,0,0,0-1.82,2.75,2.75,0,0,0-.53-1.21,2.13,2.13,0,0,0-1-.67,3.91,3.91,0,0,0-1.31-.21,3.32,3.32,0,0,0-1.37.3,4.14,4.14,0,0,0-1.21.83,4.62,4.62,0,0,0-.91,1.25,5.13,5.13,0,0,0-.52,1.53,4.65,4.65,0,0,0,0,1.54,3.24,3.24,0,0,0,.53,1.26,2.86,2.86,0,0,0,.95.85A2.53,2.53,0,0,0,197.39,154.45Z" transform="translate(0 0)"/><path class="cls-4" d="M210.09,156.52a5.39,5.39,0,0,1-2.27-.47,4.87,4.87,0,0,1-1.71-1.28,5.14,5.14,0,0,1-1-1.92,5.62,5.62,0,0,1-.11-2.36,6.86,6.86,0,0,1,.82-2.35,7.92,7.92,0,0,1,1.51-1.92,7,7,0,0,1,2-1.28,5.58,5.58,0,0,1,2.23-.47,5.26,5.26,0,0,1,2.11.41,3.49,3.49,0,0,1,1.53,1.27,5.4,5.4,0,0,1,.79,2.2,9.28,9.28,0,0,1,0,2.31,1,1,0,0,1-.94.87h-7.71a3.53,3.53,0,0,0,.34,1.16,3,3,0,0,0,.69.94,3.32,3.32,0,0,0,1,.61,3.6,3.6,0,0,0,1.25.21,4.73,4.73,0,0,0,1.75-.33,5.26,5.26,0,0,0,.82-.42,1,1,0,0,1,1.21.19h0a1,1,0,0,1-.2,1.41,7.76,7.76,0,0,1-1.41.71A7.31,7.31,0,0,1,210.09,156.52Zm1.12-9.94a2.71,2.71,0,0,0-1.08.22,3.85,3.85,0,0,0-1,.6,4.44,4.44,0,0,0-.87.91,5.3,5.3,0,0,0-.62,1.15h6.07a4,4,0,0,0-.11-1.1,2.5,2.5,0,0,0-.44-.93,2.29,2.29,0,0,0-.79-.62A2.73,2.73,0,0,0,211.21,146.58Z" transform="translate(0 0)"/><path class="cls-4" d="M222.55,156.23h-1.82a1,1,0,0,1-.92-.71l-2.46-9.61a.94.94,0,0,1,.91-1.18h.57a1,1,0,0,1,.92.71l1.59,6.18a.94.94,0,0,0,1.73.24l3.81-6.65a1,1,0,0,1,.82-.48H228a1,1,0,0,1,.82,1.42l-5.49,9.6A1,1,0,0,1,222.55,156.23Z" transform="translate(0 0)"/><path class="cls-4" d="M233.84,156.52a5.38,5.38,0,0,1-2.26-.47,4.87,4.87,0,0,1-1.71-1.28,5.14,5.14,0,0,1-1-1.92,5.62,5.62,0,0,1-.11-2.36,6.86,6.86,0,0,1,.82-2.35,7.92,7.92,0,0,1,1.51-1.92,7,7,0,0,1,2-1.28,5.58,5.58,0,0,1,2.23-.47,5.26,5.26,0,0,1,2.11.41,3.49,3.49,0,0,1,1.53,1.27,5.4,5.4,0,0,1,.79,2.2,9.28,9.28,0,0,1,0,2.31,1,1,0,0,1-.94.87h-7.71a3.53,3.53,0,0,0,.34,1.16,3,3,0,0,0,.69.94,3.21,3.21,0,0,0,1,.61,3.6,3.6,0,0,0,1.25.21,4.73,4.73,0,0,0,1.75-.33,5.26,5.26,0,0,0,.82-.42,1,1,0,0,1,1.21.19h0a1,1,0,0,1-.2,1.41,7.76,7.76,0,0,1-1.41.71A7.36,7.36,0,0,1,233.84,156.52Zm1.13-9.94a2.71,2.71,0,0,0-1.08.22,4.08,4.08,0,0,0-1,.6,4.67,4.67,0,0,0-.86.91,4.91,4.91,0,0,0-.62,1.15h6.07a4,4,0,0,0-.11-1.1,2.5,2.5,0,0,0-.44-.93,2.29,2.29,0,0,0-.79-.62A2.76,2.76,0,0,0,235,146.58Z" transform="translate(0 0)"/><path class="cls-4" d="M245.1,139.8l-2.47,15.63a.94.94,0,0,1-.93.8h-.41a1,1,0,0,1-.94-1.09l2.46-15.63a1,1,0,0,1,.94-.8h.41A1,1,0,0,1,245.1,139.8Z" transform="translate(0 0)"/><path class="cls-4" d="M249,156.52a5,5,0,0,1-2.18-.47,4.76,4.76,0,0,1-1.63-1.28,4.91,4.91,0,0,1-.93-1.92,5.8,5.8,0,0,1-.09-2.36,6.88,6.88,0,0,1,.83-2.35,7.83,7.83,0,0,1,1.55-1.92,7.18,7.18,0,0,1,2-1.28,5.93,5.93,0,0,1,2.31-.47,5,5,0,0,1,2.16.47,4.49,4.49,0,0,1,1.63,1.28,5.05,5.05,0,0,1,.93,1.92,6,6,0,0,1,.08,2.35,7,7,0,0,1-.81,2.36,7.79,7.79,0,0,1-1.54,1.92,7.23,7.23,0,0,1-2,1.28A6,6,0,0,1,249,156.52Zm1.56-10a3.19,3.19,0,0,0-1.37.32,4.18,4.18,0,0,0-1.21.84,5.15,5.15,0,0,0-.93,1.25,5.51,5.51,0,0,0-.53,1.54,4.38,4.38,0,0,0,0,1.54,3.52,3.52,0,0,0,.53,1.27,2.68,2.68,0,0,0,1,.85,2.57,2.57,0,0,0,1.27.31,3.21,3.21,0,0,0,1.37-.31,4.35,4.35,0,0,0,1.21-.85,5.36,5.36,0,0,0,.92-1.27,4.58,4.58,0,0,0,.51-1.54,4,4,0,0,0,0-1.54,3.44,3.44,0,0,0-.52-1.25,2.74,2.74,0,0,0-.95-.84A2.63,2.63,0,0,0,250.6,146.53Z" transform="translate(0 0)"/><path class="cls-4" d="M255,159.89l2.27-14.36a.94.94,0,0,1,.93-.8h1l.29,1.2a6.89,6.89,0,0,1,1.79-1.08,5.56,5.56,0,0,1,2.07-.38,4.82,4.82,0,0,1,2.15.47,4.34,4.34,0,0,1,1.56,1.28,4.93,4.93,0,0,1,.85,1.92,6.36,6.36,0,0,1,0,2.35,7.23,7.23,0,0,1-.79,2.36,7.77,7.77,0,0,1-1.47,1.92,6.79,6.79,0,0,1-3,1.65l-.18,0a5.52,5.52,0,0,1-3-.33,3.62,3.62,0,0,1-1.38-1.14l-.83,5.21a1,1,0,0,1-.93.79H256A.94.94,0,0,1,255,159.89Zm7.86-13.31a4.16,4.16,0,0,0-1.35.23,3.38,3.38,0,0,0-1.2.72,4.63,4.63,0,0,0-.93,1.22,5.93,5.93,0,0,0-.55,1.74,5.43,5.43,0,0,0,0,1.84,2.49,2.49,0,0,0,.54,1.22,2.28,2.28,0,0,0,1,.69,3.79,3.79,0,0,0,1.29.21,3.14,3.14,0,0,0,1.36-.31,4.26,4.26,0,0,0,1.22-.85,5.38,5.38,0,0,0,.92-1.26,4.57,4.57,0,0,0,.5-1.54,3.75,3.75,0,0,0,0-1.53,3.29,3.29,0,0,0-.53-1.25,2.59,2.59,0,0,0-.94-.83A2.74,2.74,0,0,0,262.88,146.58Z" transform="translate(0 0)"/><path class="cls-4" d="M279.38,138.3h0a.8.8,0,0,1,.79.81v21.56a.8.8,0,0,1-.79.8h0a.8.8,0,0,1-.79-.8V139.11A.8.8,0,0,1,279.38,138.3Z" transform="translate(0 0)"/><path class="cls-4" d="M304.9,139.8l-2.46,15.63a.94.94,0,0,1-.93.8h-1l-.32-1.2a6.16,6.16,0,0,1-1.73,1.09,5.36,5.36,0,0,1-2.11.4,4.7,4.7,0,0,1-2.13-.47,4.3,4.3,0,0,1-1.55-1.28,4.94,4.94,0,0,1-.86-1.92,6.19,6.19,0,0,1-.06-2.36,7.25,7.25,0,0,1,.79-2.35,7.77,7.77,0,0,1,1.47-1.92,7,7,0,0,1,2-1.28,5.71,5.71,0,0,1,2.28-.47,4.55,4.55,0,0,1,2,.4,3.67,3.67,0,0,1,1.36,1.11l1-6.47a.94.94,0,0,1,.93-.8H304A.94.94,0,0,1,304.9,139.8Zm-8.08,14.65a4,4,0,0,0,1.38-.24,3.55,3.55,0,0,0,1.2-.73,4.31,4.31,0,0,0,.92-1.23,5.27,5.27,0,0,0,.53-1.76,5.61,5.61,0,0,0,0-1.82,2.75,2.75,0,0,0-.53-1.21,2.13,2.13,0,0,0-1-.67,3.91,3.91,0,0,0-1.31-.21,3.32,3.32,0,0,0-1.37.3,4.14,4.14,0,0,0-1.21.83,4.62,4.62,0,0,0-.91,1.25,5.13,5.13,0,0,0-.52,1.53,4.65,4.65,0,0,0,0,1.54,3.24,3.24,0,0,0,.53,1.26,2.86,2.86,0,0,0,.95.85A2.5,2.5,0,0,0,296.82,154.45Z" transform="translate(0 0)"/><path class="cls-4" d="M312.2,146.73a2,2,0,0,0-.32-.1,1.62,1.62,0,0,0-.4,0,4,4,0,0,0-1.33.23,4.23,4.23,0,0,0-1.13.61,3.93,3.93,0,0,0-.83.9,3.07,3.07,0,0,0-.43,1.09l-.95,6a.94.94,0,0,1-.93.8h-.42a.94.94,0,0,1-.93-1.09l1.5-9.61a.94.94,0,0,1,.93-.8h.29a1,1,0,0,1,.92.74l.12.54a4.52,4.52,0,0,1,1.44-1.12,4.47,4.47,0,0,1,2-.42h.4a1,1,0,0,1,.83,1.33l-.47,1.06Z" transform="translate(0 0)"/><path class="cls-4" d="M317.48,156.52a5.42,5.42,0,0,1-2.27-.47,4.83,4.83,0,0,1-1.7-1.28,5,5,0,0,1-1-1.92,5.62,5.62,0,0,1-.11-2.36,7.06,7.06,0,0,1,.81-2.35,8,8,0,0,1,1.52-1.92,7,7,0,0,1,2-1.28,5.63,5.63,0,0,1,2.24-.47,5.29,5.29,0,0,1,2.11.41,3.47,3.47,0,0,1,1.52,1.27,5.4,5.4,0,0,1,.8,2.2,9.28,9.28,0,0,1,0,2.31,1,1,0,0,1-.94.87h-7.71a3.78,3.78,0,0,0,.33,1.16,3.25,3.25,0,0,0,.7.94,3.21,3.21,0,0,0,1,.61,3.59,3.59,0,0,0,1.24.21,4.78,4.78,0,0,0,1.76-.33,5.26,5.26,0,0,0,.82-.42,1,1,0,0,1,1.21.19h0a1,1,0,0,1-.2,1.41,7.76,7.76,0,0,1-1.41.71A7.36,7.36,0,0,1,317.48,156.52Zm1.13-9.94a2.71,2.71,0,0,0-1.08.22,3.9,3.9,0,0,0-1,.6,4.39,4.39,0,0,0-.86.91,4.94,4.94,0,0,0-.63,1.15h6.08a4,4,0,0,0-.11-1.1,2.52,2.52,0,0,0-.45-.93,2.12,2.12,0,0,0-.79-.62A2.68,2.68,0,0,0,318.61,146.58Z" transform="translate(0 0)"/><path class="cls-4" d="M336.22,145.82l-1.5,9.61a.94.94,0,0,1-.93.8h-1.16l-.17-1.32a4.61,4.61,0,0,1-1.72,1.2,5.13,5.13,0,0,1-1.95.41,5,5,0,0,1-2.18-.47,4.76,4.76,0,0,1-1.63-1.28,4.91,4.91,0,0,1-.93-1.92,5.8,5.8,0,0,1-.09-2.36,6.88,6.88,0,0,1,.83-2.35,7.83,7.83,0,0,1,1.55-1.92,7.18,7.18,0,0,1,2-1.28,5.93,5.93,0,0,1,2.31-.47,4.28,4.28,0,0,1,1.79.37,3.49,3.49,0,0,1,1.4,1.17l.31-.71a1,1,0,0,1,.87-.57h.24A.94.94,0,0,1,336.22,145.82Zm-7.12,8.63a3.21,3.21,0,0,0,1.37-.31,4.35,4.35,0,0,0,1.21-.85,5.11,5.11,0,0,0,.92-1.26,4.58,4.58,0,0,0,.51-1.54,3.92,3.92,0,0,0,0-1.53,3.56,3.56,0,0,0-.52-1.26,2.67,2.67,0,0,0-.95-.85,2.63,2.63,0,0,0-1.27-.32,3.19,3.19,0,0,0-1.37.32,4,4,0,0,0-1.21.85,5.11,5.11,0,0,0-.92,1.26,5.41,5.41,0,0,0-.51,1.53,4.65,4.65,0,0,0,0,1.54,3.24,3.24,0,0,0,.53,1.26,2.86,2.86,0,0,0,.95.85A2.5,2.5,0,0,0,329.1,154.45Z" transform="translate(0 0)"/><path class="cls-4" d="M337.39,156.23H337a.94.94,0,0,1-.93-1.09l1.5-9.61a.94.94,0,0,1,.93-.8h1l.34,1a5.37,5.37,0,0,1,1.16-.88,3,3,0,0,1,1.53-.37,4.16,4.16,0,0,1,.74.08,3.83,3.83,0,0,1,.82.29,3,3,0,0,1,.75.55,2.72,2.72,0,0,1,.57.9,5,5,0,0,1,1.45-1.28,3.53,3.53,0,0,1,1.84-.54,4.63,4.63,0,0,1,1.29.19,2.64,2.64,0,0,1,1.18.72,3.28,3.28,0,0,1,.74,1.47,6.08,6.08,0,0,1,0,2.42l-.95,6.16a1,1,0,0,1-.94.8h-.27a.94.94,0,0,1-.93-1.09l.93-5.89a2.49,2.49,0,0,0-.29-2.08,2,2,0,0,0-1.53-.59,2.07,2.07,0,0,0-1.44.65,3.59,3.59,0,0,0-.91,2l-1,6.16a.94.94,0,0,1-.93.8h-.27a.94.94,0,0,1-.93-1.09l.93-5.89a2.52,2.52,0,0,0-.29-2.08,2,2,0,0,0-1.54-.59,2.05,2.05,0,0,0-1.35.55,3.07,3.07,0,0,0-.9,1.73l-1,6.57A.94.94,0,0,1,337.39,156.23Z" transform="translate(0 0)"/></svg>