<?xml version="1.0" encoding="utf-8"?>
<!-- Generator: Adobe Illustrator 23.0.6, SVG Export Plug-In . SVG Version: 6.00 Build 0)  -->
<svg version="1.1" id="attempt1_copy_4" xmlns="http://www.w3.org/2000/svg" xmlns:xlink="http://www.w3.org/1999/xlink" x="0px"
	 y="0px" viewBox="0 0 358.8 161.2" style="enable-background:new 0 0 358.8 161.2;" xml:space="preserve">
<style type="text/css">
	.st0{fill:none;stroke:#DDDDDD;stroke-width:6;stroke-linecap:round;stroke-miterlimit:10;}
	.st1{fill:#FFC70A;}
	.st2{fill:none;}
	.st3{fill:#FEFEFE;}
	.st4{fill:#FFFFFF;}
</style>
<title>logo_colour_noTag</title>
<g id="_copy_4">
	<line class="st0" x1="33.4" y1="139.6" x2="78.8" y2="139.6"/>
	<line class="st0" x1="33.4" y1="148.9" x2="78.8" y2="148.9"/>
	<line class="st0" x1="66.4" y1="158.2" x2="45.8" y2="158.2"/>
	<line class="st0" x1="79.5" y1="130.2" x2="32.6" y2="130.2"/>
	<path class="st1" d="M26.7,7.4c-2.1-0.1-4,1.1-4.8,3c-1,2-1.5,4.2-1.5,6.4v23.4c0,2,0,3.9-0.1,5.8c-0.1,1.9-0.5,3.8-1.2,5.6
		c-0.8,2.2-2.1,4.2-3.6,5.9c-1.4,1.5-3.1,2.7-5,3.5c0.5,0.1,1,0.3,1.4,0.7c0.4,0.4,0.8,0.7,1.3,1c0.4,0.3,0.8,0.7,1.2,1
		c0.4,0.3,0.8,0.7,1.1,1.1c1.2,1.5,2.2,3.2,3,5c0.8,1.8,1.4,3.8,1.7,5.8c0.3,2,0.4,4.1,0.4,6.2v25c0,2.2,0.4,4.4,1.4,6.4
		c0.9,1.9,2.9,3.1,5,2.9h15.2c2.1-0.1,3.9,1.6,4,3.7c0,0,0,0,0,0l0,0c-0.1,2.1-1.8,3.8-4,3.7c0,0,0,0,0,0H26.7c-1.8,0-3.5-0.5-5-1.3
		c-1.6-0.9-2.9-2.1-4-3.6c-1.2-1.6-2.1-3.4-2.7-5.4c-0.7-2.1-1-4.3-1-6.5V79.3c-0.1-0.9-0.2-1.9-0.4-2.8c-0.3-1.6-0.9-3.2-1.8-4.6
		c-1.1-1.7-2.5-3.2-4.2-4.4c-1.1-0.8-2.4-1.4-3.8-1.8c-2.2-0.5-3.7-2.4-3.8-4.6v-0.5c0.1-2.3,1.7-4.2,3.9-4.6
		c1.3-0.3,2.6-0.8,3.7-1.5c1.6-1,3.1-2.2,4.2-3.7c0.8-1.1,1.4-2.4,1.8-3.8c0.2-1.2,0.4-1.8,0.4-2V16.8c0-2.2,0.3-4.4,1-6.6
		c0.6-1.9,1.5-3.7,2.7-5.3c1.1-1.5,2.4-2.7,4-3.6c1.5-0.9,3.3-1.4,5-1.3h22c2.1-0.1,3.9,1.6,4,3.7c0,0,0,0,0,0l0,0
		c-0.1,2.1-1.8,3.8-4,3.7c0,0,0,0,0,0H26.7z"/>
	<path class="st1" d="M63.5,7.4c-2.1,0.1-3.9-1.6-4-3.7c0,0,0,0,0,0l0,0c0.1-2.1,1.9-3.8,4-3.7c0,0,0,0,0,0h21.9
		c1.8,0,3.5,0.5,5,1.4c1.6,0.9,2.9,2.1,4,3.6c1.2,1.6,2.1,3.4,2.7,5.3c0.7,2.1,1,4.3,1,6.6V45c0,0.2,0.1,0.8,0.3,2
		c0.3,1.3,0.9,2.6,1.8,3.7c1.1,1.5,2.6,2.8,4.2,3.7c1.2,0.7,2.4,1.2,3.8,1.6c2.2,0.5,3.8,2.4,3.9,4.6v0.5c-0.1,2.2-1.6,4.1-3.8,4.6
		c-1.4,0.4-2.7,1-3.8,1.8c-1.7,1.2-3.1,2.7-4.2,4.4c-0.9,1.4-1.5,2.9-1.8,4.6c-0.2,0.9-0.3,1.9-0.4,2.8v27.5c0,2.2-0.3,4.4-1,6.5
		c-0.6,1.9-1.5,3.7-2.7,5.3c-1.1,1.5-2.4,2.7-4,3.6c-1.5,0.9-3.2,1.3-5,1.3H72.3c-2.1,0.1-3.9-1.6-4-3.7c0,0,0,0,0,0l0,0
		c0.1-2.1,1.9-3.8,4-3.7c0,0,0,0,0,0h13.2c2.1,0.2,4.1-1,5-2.9c0.9-2,1.4-4.2,1.4-6.4v-25c0-2.1,0.1-4.1,0.4-6.2
		c0.3-2,0.9-4,1.7-5.8c0.8-1.8,1.8-3.5,3-5c0.3-0.4,0.6-0.8,1-1.1c0.4-0.3,0.8-0.6,1.2-1c0.5-0.3,0.9-0.6,1.3-1
		c0.4-0.4,0.8-0.6,1.4-0.7c-1.9-0.8-3.6-1.9-5-3.5c-1.6-1.7-2.8-3.7-3.7-5.9c-0.7-1.8-1.1-3.6-1.2-5.5c-0.1-1.9-0.2-3.9-0.2-5.8
		V16.8c0-2.2-0.5-4.4-1.5-6.4c-0.8-1.9-2.8-3.1-4.8-2.9L63.5,7.4z"/>
</g>
<g id="JH_copy_4">
	<line class="st2" x1="45.7" y1="60.7" x2="63.7" y2="58.9"/>
</g>
<g id="Layer_8_copy_4">
	<path class="st3" d="M159.4,25c1.1,0,2,0.9,2,2v29.4c0,0.9-0.1,1.9-0.2,2.8c-0.1,0.9-0.3,1.9-0.6,2.8c-0.3,0.9-0.7,1.8-1.3,2.6
		c-1.2,1.8-2.7,3.3-4.6,4.4c-1.8,1-3.8,1.6-5.8,1.6c-1.5,0-3-0.3-4.3-0.9c-1.4-0.6-2.6-1.4-3.7-2.5c-1.1-1.1-2-2.3-2.7-3.6
		c-0.4-0.8-0.7-1.6-1-2.4c-0.4-1,0.2-2.2,1.2-2.5c0,0,0,0,0,0l1.8-0.6c1-0.3,2.1,0.2,2.5,1.2c0.1,0.3,0.2,0.5,0.3,0.7
		c0.4,0.8,0.9,1.5,1.5,2.2c0.6,0.6,1.2,1.1,2,1.5c0.7,0.4,1.6,0.5,2.4,0.5c0.9,0,1.7-0.2,2.5-0.6c0.7-0.4,1.3-0.9,1.8-1.6
		c0.5-0.7,0.9-1.5,1.2-2.3c0.3-0.9,0.5-1.7,0.6-2.6c0.1-0.4,0.1-0.9,0.1-1.3c0-0.7,0-1.5,0-2.6v-7.6c0-2.3,0-4.6,0-7s0-4.6,0-6.7V27
		c0-1.1,0.9-2,2-2H159.4z"/>
	<path class="st3" d="M192.5,27v2c0,1.1-0.9,2-2,2h-15.4c-1.1,0-2,0.9-2,2v8.3c0,1.1,0.9,2,2,2h13.3c1.1,0,2,0.9,2,2v2.2
		c0,1.1-0.9,2-2,2h-13.3c-1.1,0-2,0.9-2,2v10.4c0,1.1,0.9,2,2,2h15.4c1.1,0,2,0.9,2,2V68c0,1.1-0.9,2-2,2H169c-1.1,0-2-0.9-2-2V27
		c0-1.1,0.9-2,2-2h21.6C191.6,25,192.5,25.9,192.5,27z"/>
	<path class="st3" d="M226.2,27v2c0,1.1-0.9,2-2,2h-18c-1.1,0-2,0.9-2,2v8.3c0,1.1,0.9,2,2,2h16c1.1,0,2,0.9,2,2v2.2
		c0,1.1-0.9,2-2,2h-16c-1.1,0-2,0.9-2,2V68c0,1.1-0.9,2-2,2H200c-1.1,0-2-0.9-2-2V27c0-1.1,0.9-2,2-2h24.2
		C225.3,25,226.2,25.9,226.2,27C226.2,27,226.2,27,226.2,27z"/>
	<path class="st3" d="M256.8,27v2c0,1.1-0.9,2-2,2h-18c-1.1,0-2,0.9-2,2v8.3c0,1.1,0.9,2,2,2h16c1.1,0,2,0.9,2,2v2.2
		c0,1.1-0.9,2-2,2h-16c-1.1,0-2,0.9-2,2V68c0,1.1-0.9,2-2,2h-2.2c-1.1,0-2-0.9-2-2V27c0-1.1,0.9-2,2-2h24.2
		C255.9,25,256.8,25.9,256.8,27z"/>
	<path class="st3" d="M291.6,70h-4.7c-0.7,0-1.3-0.3-1.6-0.9l-11.9-17.7c-0.4-0.5-1-0.9-1.6-0.9h-4.3c-1.1,0-2,0.9-2,2V68
		c0,1.1-0.9,2-2,2h-2.2c-1.1,0-2-0.9-2-2V27c0-1.1,0.9-2,2-2h15c1.6,0,3.2,0.3,4.7,1c1.4,0.7,2.7,1.6,3.8,2.7c1.1,1.2,2,2.5,2.6,4
		c1.1,2.9,1.2,6.2,0.3,9.2c-0.4,1.3-1,2.5-1.8,3.5c-0.8,1.1-1.7,2-2.7,2.8c-0.4,0.3-0.9,0.6-1.3,0.8c-1,0.5-1.3,1.7-0.8,2.7
		c0,0.1,0.1,0.1,0.1,0.2l11.5,16.4c0.3,0.4,0.3,1.1-0.2,1.4C292.1,69.9,291.9,70,291.6,70z M276.2,44.3c0.8,0,1.6-0.2,2.4-0.5
		c0.7-0.3,1.4-0.8,1.9-1.4c0.5-0.6,1-1.3,1.3-2.1c0.3-0.8,0.5-1.7,0.5-2.6c0-0.9-0.1-1.8-0.5-2.6c-0.3-0.8-0.7-1.5-1.3-2.1
		c-0.9-1-2-1.6-3.2-1.9c-0.2,0-0.3-0.1-0.5-0.1h-9.3c-1.1,0-2,0.9-2,2l0,0v9.5c0,1.1,0.9,2,2,2L276.2,44.3z"/>
	<path class="st3" d="M322,27v2c0,1.1-0.9,2-2,2h-15.4c-1.1,0-2,0.9-2,2v8.3c0,1.1,0.9,2,2,2h13.3c1.1,0,2,0.9,2,2v2.2
		c0,1.1-0.9,2-2,2h-13.3c-1.1,0-2,0.9-2,2v10.4c0,1.1,0.9,2,2,2H320c1.1,0,2,0.9,2,2V68c0,1.1-0.9,2-2,2h-21.5c-1.1,0-2-0.9-2-2V27
		c0-1.1,0.9-2,2-2H320C321.1,25,322,25.9,322,27z"/>
	<path class="st3" d="M339.2,48.4L326.7,28c-0.6-1-0.2-2.2,0.7-2.7c0.3-0.2,0.6-0.3,1-0.3h2.6c0.7,0,1.3,0.4,1.7,0.9l8.1,13.2
		c0.6,0.9,1.8,1.2,2.8,0.6c0.3-0.2,0.5-0.4,0.6-0.6l8.1-13.2c0.4-0.6,1-0.9,1.7-0.9h2.7c1.1,0,2,0.9,2,2c0,0.3-0.1,0.7-0.3,1
		L346,48.4c-0.2,0.3-0.3,0.6-0.3,1V68c0,1.1-0.9,2-2,2h-2.2c-1.1,0-2-0.9-2-2V49.5C339.5,49.1,339.4,48.7,339.2,48.4z"/>
	<path class="st3" d="M175.3,93h1.6c1.1,0,2,0.9,2,2v41c0,1.1-0.9,2-2,2h-1.6c-1.1,0-2-0.9-2-2v-16.6c0-1.1-0.9-2-2-2h-16.9
		c-1.1,0-2,0.9-2,2V136c0,1.1-0.9,2-2,2h-1.6c-1.1,0-2-0.9-2-2V95c0-1.1,0.9-2,2-2h1.6c1.1,0,2,0.9,2,2v14.2c0,1.1,0.9,2,2,2h16.9
		c1.1,0,2-0.9,2-2V95C173.3,93.9,174.2,93,175.3,93z"/>
	<path class="st3" d="M210,95v2c0,1.1-0.9,2-2,2h-15.4c-1.1,0-2,0.9-2,2v8.3c0,1.1,0.9,2,2,2h13.3c1.1,0,2,0.9,2,2v2.2
		c0,1.1-0.9,2-2,2h-13.3c-1.1,0-2,0.9-2,2v10.5c0,1.1,0.9,2,2,2H208c1.1,0,2,0.9,2,2v2.1c0,1.1-0.9,2-2,2h-21.6c-1.1,0-2-0.9-2-2V95
		c0-1.1,0.9-2,2-2H208C209.1,93,210,93.9,210,95z"/>
	<path class="st3" d="M215.7,136V95c0-1.1,0.9-2,2-2h2.2c1.1,0,2,0.9,2,2v34.8c0,1.1,0.9,2,2,2h15.3c1.1,0,2,0.9,2,2v2.2
		c0,1.1-0.9,2-2,2h-21.5C216.6,138,215.7,137.1,215.7,136C215.7,136,215.7,136,215.7,136z"/>
	<path class="st3" d="M244.7,136V95c0-1.1,0.9-2,2-2h12.8c2.8-0.1,5.5,0.6,8,1.8c2.3,1.1,4.2,2.8,5.8,4.8c1.6,2.1,2.8,4.6,3.5,7.2
		c0.8,2.8,1.2,5.8,1.2,8.8c0,3-0.4,5.9-1.3,8.8c-0.8,2.6-1.9,5-3.5,7.1c-2.3,3.2-5.6,5.5-9.5,6.5c-0.2,0-0.3,0.1-0.5,0.1h-16.6
		C245.6,138,244.7,137.1,244.7,136z M259.3,131.8c2,0.1,3.9-0.4,5.7-1.3c1.6-0.9,2.9-2.1,3.9-3.6c1.1-1.6,1.8-3.3,2.2-5.2
		c0.5-2,0.7-4.1,0.7-6.2c0-2.1-0.2-4.2-0.7-6.3c-0.4-1.9-1.2-3.7-2.2-5.3c-2.1-3.3-5.8-5.2-9.6-5h-6.4c-1.1,0-2,0.9-2,2v28.9
		c0,1.1,0.9,2,2,2L259.3,131.8z"/>
	<path class="st3" d="M308.7,95v2c0,1.1-0.9,2-2,2h-15.4c-1.1,0-2,0.9-2,2v8.3c0,1.1,0.9,2,2,2h13.3c1.1,0,2,0.9,2,2v2.2
		c0,1.1-0.9,2-2,2h-13.3c-1.1,0-2,0.9-2,2v10.5c0,1.1,0.9,2,2,2h15.4c1.1,0,2,0.9,2,2v2.1c0,1.1-0.9,2-2,2h-21.6c-1.1,0-2-0.9-2-2
		V95c0-1.1,0.9-2,2-2h21.6C307.8,93,308.7,93.9,308.7,95z"/>
	<path class="st3" d="M346.7,138H342c-0.7,0-1.3-0.3-1.6-0.9l-11.9-17.7c-0.4-0.5-1-0.9-1.6-0.9h-4.3c-1.1,0-2,0.9-2,2V136
		c0,1.1-0.9,2-2,2h-2.2c-1.1,0-2-0.9-2-2V95c0-1.1,0.9-2,2-2h15c1.6,0,3.2,0.3,4.7,1c1.4,0.6,2.7,1.6,3.8,2.7c1.1,1.2,2,2.5,2.6,4
		c1.1,2.9,1.2,6.2,0.3,9.2c-0.8,2.5-2.4,4.7-4.5,6.3c-0.4,0.3-0.9,0.6-1.3,0.8c-1,0.5-1.4,1.7-0.9,2.7c0,0.1,0.1,0.2,0.2,0.3
		c2.8,4,9,12.8,11.5,16.4c0.3,0.4,0.3,1.1-0.2,1.4C347.1,137.9,346.9,138,346.7,138z M331.3,112.4c0.8,0,1.6-0.2,2.4-0.5
		c0.7-0.3,1.4-0.8,1.9-1.4c0.6-0.6,1-1.3,1.3-2.1c0.3-0.8,0.5-1.7,0.5-2.6c0-0.9-0.2-1.8-0.5-2.6c-0.3-0.8-0.7-1.5-1.3-2.1
		c-0.9-1-2-1.6-3.2-1.9c-0.2,0-0.3-0.1-0.5-0.1h-9.3c-1.1,0-2,0.9-2,2v9.5c0,1.1,0.9,2,2,2L331.3,112.4z"/>
	<path class="st4" d="M46,63.7c-1.3,1.1-2.7,1.9-4.3,2.5c-1.8,0.6-3.8,0.8-5.7,0.3c-1.4-0.3-2.7-0.9-3.8-1.7
		c-1.1-0.8-2.1-1.9-2.9-3.1c-0.8-1.2-1.4-2.6-1.8-4c-0.1-0.3-0.2-0.7-0.3-1c-0.4-1.7,0.7-3.4,2.4-3.8c0.1,0,0.1,0,0.2,0l0,0
		c1.4-0.1,2.7,0.8,2.9,2.2v0.1c0.2,0.8,0.6,1.6,1,2.4c0.4,0.7,0.9,1.3,1.6,1.8c0.6,0.5,1.3,0.8,2.1,1c0.8,0.2,1.7,0.2,2.5-0.1
		c0.7-0.2,1.4-0.6,2-1.1c0.6-0.6,1.2-1.2,1.6-1.9c0.5-0.8,0.8-1.5,1.1-2.4c0.1-0.4,0.3-0.8,0.3-1.3c0.2-0.6,0.3-1.5,0.5-2.4l0.7-3.3
		l0.8-3.9c0.5-2.2,0.9-4.4,1.4-6.7s0.9-4.4,1.3-6.3l2.9-13.5c0.3-1.7,1.9-2.8,3.5-2.5l0,0c1.6,0.4,2.6,2.1,2.2,3.8l-7.3,34l-0.6,2.8
		c-0.1,0.6-0.3,1.2-0.5,1.8l14-1.3l0,0c1.2,0.3,2.6,1.7,2.3,3.2l-3.2,15.1l12.8-1l4.7-21.7c0.5-1.5,1.9-2.4,3.5-2.2l0,0
		c1.2,0.3,2.6,1.7,2.3,3.2l-9.7,45.1c-0.5,1.5-1.9,2.4-3.5,2.2l0,0c-1.2-0.3-2.6-1.7-2.3-3.2l3.7-17.4l-12.8,1l-6.7,27.7
		c-0.5,1.5-1.9,2.4-3.5,2.2l0,0c-1.2-0.3-2.6-1.7-2.3-3.2l10.2-44.6L46,63.7z"/>
</g>
</svg>
